{"glyphs":{"0":{"ha":903,"x_min":0,"x_max":0,"o":"m 190 542 b 451 85 190 257 275 85 b 713 542 628 85 713 257 b 451 999 713 826 628 999 b 190 542 275 999 190 826 m 822 542 b 451 -15 822 211 706 -15 b 81 542 197 -15 81 211 b 451 1099 81 872 197 1099 b 822 542 706 1099 822 872 "},"1":{"ha":903,"x_min":0,"x_max":0,"o":"m 794 0 l 94 0 l 94 100 l 397 100 l 397 935 b 81 742 397 935 282 794 l 81 844 b 425 1099 289 901 425 1099 l 507 1099 l 507 100 l 794 100 "},"2":{"ha":903,"x_min":0,"x_max":0,"o":"m 65 71 b 518 397 65 71 351 232 b 706 754 646 522 706 633 b 450 999 706 896 611 999 b 192 744 290 999 197 910 l 85 744 b 450 1099 94 954 206 1099 b 815 760 674 1099 815 954 b 582 335 815 597 736 479 b 257 100 453 213 276 111 l 839 100 l 839 0 l 65 0 "},"3":{"ha":903,"x_min":0,"x_max":0,"o":"m 458 -15 b 79 339 215 -15 90 117 l 188 339 b 458 85 192 164 297 85 b 710 299 629 85 710 181 b 458 511 710 431 624 511 l 308 511 l 308 607 l 458 607 b 681 804 604 607 681 686 b 451 999 681 919 589 999 b 208 744 303 999 213 922 l 101 744 b 451 1099 108 961 228 1099 b 790 813 653 1099 790 982 b 608 564 790 672 699 585 b 819 292 722 536 819 451 b 458 -15 819 122 694 -15 "},"4":{"ha":903,"x_min":0,"x_max":0,"o":"m 696 736 l 696 354 l 840 354 l 840 254 l 696 254 l 696 0 l 586 0 l 586 254 l 61 254 l 61 326 b 435 1083 282 535 399 799 l 540 1083 b 199 350 506 793 385 508 l 586 354 l 586 736 "},"5":{"ha":903,"x_min":0,"x_max":0,"o":"m 453 -15 b 78 339 215 -15 90 117 l 186 339 b 453 85 192 164 294 85 b 715 347 619 85 715 197 b 458 617 715 499 619 617 b 207 476 340 617 258 564 l 111 513 l 140 1083 l 778 1083 l 783 983 l 243 983 l 224 613 b 478 717 275 669 358 717 b 825 347 692 717 825 547 b 453 -15 825 147 693 -15 "},"6":{"ha":903,"x_min":0,"x_max":0,"o":"m 717 336 b 467 589 717 489 621 589 b 215 336 313 589 215 489 b 467 85 215 185 313 85 b 717 336 621 85 717 185 m 474 1099 b 822 744 696 1099 814 963 l 715 744 b 474 999 710 922 622 999 b 190 522 294 999 190 856 b 192 485 190 511 190 501 b 481 689 229 608 333 689 b 829 336 693 689 829 538 b 468 -15 829 136 696 -15 b 81 533 221 -15 81 174 b 474 1099 81 904 232 1099 "},"7":{"ha":903,"x_min":0,"x_max":0,"o":"m 331 0 b 704 983 331 419 513 811 l 165 983 l 165 744 l 65 744 l 65 1083 l 850 1083 l 850 1010 b 440 0 586 769 440 403 "},"8":{"ha":903,"x_min":0,"x_max":0,"o":"m 451 607 b 671 803 597 607 671 693 b 451 999 671 919 589 999 b 232 803 314 999 232 919 b 451 607 232 693 306 607 m 451 85 b 700 297 611 85 700 179 b 451 511 700 419 617 511 b 203 297 286 511 203 419 b 451 85 203 179 292 85 m 451 -15 b 93 290 214 -15 93 121 b 294 563 93 447 196 533 b 122 811 208 589 122 679 b 451 1099 122 982 250 1099 b 781 811 653 1099 781 982 b 608 563 781 679 694 589 b 810 290 707 533 810 447 b 451 -15 810 121 689 -15 "},"9":{"ha":903,"x_min":0,"x_max":0,"o":"m 193 747 b 443 494 193 594 289 494 b 694 747 597 494 694 594 b 443 999 694 899 597 999 b 193 747 289 999 193 899 m 425 -15 b 72 339 204 -15 81 121 l 178 339 b 425 85 183 161 278 85 b 719 561 608 85 719 228 b 718 599 719 572 719 582 b 429 394 681 475 576 394 b 81 747 217 394 81 546 b 442 1099 81 947 214 1099 b 829 550 689 1099 829 910 b 425 -15 829 179 672 -15 "},"A":{"ha":1022,"x_min":0,"x_max":0,"o":"m 735 315 l 283 315 l 168 0 l 46 0 l 456 1083 l 567 1083 l 976 0 l 851 0 m 510 939 l 404 643 l 321 418 l 697 418 l 615 643 "},"Æ":{"ha":1585,"x_min":0,"x_max":0,"o":"m 1467 1083 l 1467 981 l 779 981 l 849 607 l 1411 607 l 1411 504 l 867 504 l 940 103 l 1494 103 l 1494 0 l 840 0 l 785 315 l 332 315 l 156 0 l 31 0 l 647 1083 m 679 939 l 517 644 l 389 418 l 767 418 l 728 644 "},"Á":{"ha":1022,"x_min":0,"x_max":0,"o":"m 735 315 l 283 315 l 168 0 l 46 0 l 456 1083 l 567 1083 l 976 0 l 851 0 m 510 939 l 404 643 l 321 418 l 697 418 l 615 643 m 679 1389 l 565 1144 l 457 1144 l 568 1389 "},"Ă":{"ha":1022,"x_min":0,"x_max":0,"o":"m 735 315 l 283 315 l 168 0 l 46 0 l 456 1083 l 567 1083 l 976 0 l 851 0 m 510 939 l 404 643 l 321 418 l 697 418 l 615 643 m 511 1128 b 267 1389 360 1128 267 1221 l 354 1389 b 511 1213 354 1271 417 1213 b 668 1389 606 1213 668 1271 l 756 1389 b 511 1128 756 1221 663 1128 "},"Â":{"ha":1022,"x_min":0,"x_max":0,"o":"m 735 315 l 283 315 l 168 0 l 46 0 l 456 1083 l 567 1083 l 976 0 l 851 0 m 510 939 l 404 643 l 321 418 l 697 418 l 615 643 m 264 1144 l 467 1389 l 556 1389 l 758 1144 l 646 1144 l 511 1301 l 376 1144 "},"Ä":{"ha":1022,"x_min":0,"x_max":0,"o":"m 735 315 l 283 315 l 168 0 l 46 0 l 456 1083 l 567 1083 l 976 0 l 851 0 m 510 939 l 404 643 l 321 418 l 697 418 l 615 643 m 300 1267 b 372 1339 300 1307 332 1339 b 444 1267 413 1339 444 1307 b 372 1194 444 1226 413 1194 b 300 1267 332 1194 300 1226 m 578 1267 b 650 1339 578 1307 610 1339 b 722 1267 690 1339 722 1307 b 650 1194 722 1226 690 1194 b 578 1267 610 1194 578 1226 "},"À":{"ha":1022,"x_min":0,"x_max":0,"o":"m 735 315 l 283 315 l 168 0 l 46 0 l 456 1083 l 567 1083 l 976 0 l 851 0 m 510 939 l 404 643 l 321 418 l 697 418 l 615 643 m 454 1389 l 565 1144 l 457 1144 l 343 1389 "},"Ā":{"ha":1022,"x_min":0,"x_max":0,"o":"m 735 315 l 283 315 l 168 0 l 46 0 l 456 1083 l 567 1083 l 976 0 l 851 0 m 510 939 l 404 643 l 321 418 l 697 418 l 615 643 m 692 1315 l 692 1218 l 331 1218 l 331 1315 "},"Ą":{"ha":1022,"x_min":0,"x_max":0,"o":"m 1079 -253 b 938 -294 1056 -269 1007 -294 b 771 -144 826 -294 771 -219 b 850 3 771 -76 807 -29 l 735 315 l 283 315 l 168 0 l 46 0 l 456 1083 l 567 1083 l 976 0 b 857 -131 917 -24 857 -62 b 951 -217 857 -183 899 -217 b 1046 -187 997 -217 1028 -200 m 510 939 l 404 643 l 321 418 l 697 418 l 615 643 "},"Å":{"ha":1022,"x_min":0,"x_max":0,"o":"m 735 315 l 283 315 l 168 0 l 46 0 l 456 1083 l 567 1083 l 976 0 l 851 0 m 510 939 l 404 643 l 321 418 l 697 418 l 615 643 m 372 1267 b 511 1406 372 1343 435 1406 b 650 1267 588 1406 650 1343 b 511 1128 650 1190 588 1128 b 372 1267 435 1128 372 1190 m 432 1267 b 511 1188 432 1224 468 1188 b 590 1267 554 1188 590 1224 b 511 1346 590 1310 554 1346 b 432 1267 468 1346 432 1310 "},"Ã":{"ha":1022,"x_min":0,"x_max":0,"o":"m 735 315 l 283 315 l 168 0 l 46 0 l 456 1083 l 567 1083 l 976 0 l 851 0 m 510 939 l 404 643 l 321 418 l 697 418 l 615 643 m 400 1365 b 614 1263 524 1365 529 1263 b 682 1346 656 1263 682 1290 l 769 1346 b 622 1168 769 1235 713 1168 b 408 1271 499 1168 493 1271 b 340 1188 367 1271 340 1243 l 253 1188 b 400 1365 253 1299 310 1365 "},"B":{"ha":985,"x_min":0,"x_max":0,"o":"m 128 0 l 128 1083 l 564 1083 b 875 794 747 1083 875 978 b 722 564 875 663 782 590 b 911 308 810 538 911 460 b 581 0 911 118 794 0 m 589 103 b 797 310 701 103 797 169 b 589 504 797 450 678 504 l 239 504 l 239 103 m 239 981 l 239 607 l 571 607 b 761 792 675 607 761 675 b 581 981 761 907 683 981 "},"Ḃ":{"ha":985,"x_min":0,"x_max":0,"o":"m 128 0 l 128 1083 l 564 1083 b 875 794 747 1083 875 978 b 722 564 875 663 782 590 b 911 308 810 538 911 460 b 581 0 911 118 794 0 m 589 103 b 797 310 701 103 797 169 b 589 504 797 450 678 504 l 239 504 l 239 103 m 239 981 l 239 607 l 571 607 b 761 792 675 607 761 675 b 581 981 761 907 683 981 m 408 1267 b 481 1339 408 1307 440 1339 b 553 1267 521 1339 553 1307 b 481 1194 553 1226 521 1194 b 408 1267 440 1194 408 1226 "},"C":{"ha":1219,"x_min":0,"x_max":0,"o":"m 86 542 b 628 1100 86 878 311 1100 b 1139 690 936 1100 1113 896 l 1028 690 b 636 997 1001 838 874 997 b 200 542 382 997 200 824 b 636 86 200 260 382 86 b 1028 393 874 86 1001 246 l 1139 393 b 628 -17 1113 188 936 -17 b 86 542 311 -17 86 206 "},"Ć":{"ha":1219,"x_min":0,"x_max":0,"o":"m 799 1389 l 685 1144 l 576 1144 l 688 1389 m 86 542 b 628 1100 86 878 311 1100 b 1139 690 936 1100 1113 896 l 1028 690 b 636 997 1001 838 874 997 b 200 542 382 997 200 824 b 636 86 200 260 382 86 b 1028 393 874 86 1001 246 l 1139 393 b 628 -17 1113 188 936 -17 b 86 542 311 -17 86 206 "},"Č":{"ha":1219,"x_min":0,"x_max":0,"o":"m 496 1389 l 631 1231 l 765 1389 l 878 1389 l 675 1144 l 586 1144 l 383 1389 m 86 542 b 628 1100 86 878 311 1100 b 1139 690 936 1100 1113 896 l 1028 690 b 636 997 1001 838 874 997 b 200 542 382 997 200 824 b 636 86 200 260 382 86 b 1028 393 874 86 1001 246 l 1139 393 b 628 -17 1113 188 936 -17 b 86 542 311 -17 86 206 "},"Ç":{"ha":1219,"x_min":0,"x_max":0,"o":"m 525 -187 b 624 -218 543 -200 581 -218 b 706 -167 672 -218 706 -200 b 583 -93 706 -121 643 -100 l 592 -15 b 86 542 294 0 86 218 b 628 1100 86 878 311 1100 b 1139 690 936 1100 1113 896 l 1028 690 b 636 997 1001 838 874 997 b 200 542 382 997 200 824 b 636 86 200 260 382 86 b 1028 393 874 86 1001 246 l 1139 393 b 665 -15 1114 196 950 0 l 661 -50 b 790 -178 731 -67 790 -104 b 632 -294 790 -242 733 -294 b 493 -251 563 -294 517 -268 "},"Ĉ":{"ha":1219,"x_min":0,"x_max":0,"o":"m 383 1144 l 586 1389 l 675 1389 l 878 1144 l 765 1144 l 631 1301 l 496 1144 m 86 542 b 628 1100 86 878 311 1100 b 1139 690 936 1100 1113 896 l 1028 690 b 636 997 1001 838 874 997 b 200 542 382 997 200 824 b 636 86 200 260 382 86 b 1028 393 874 86 1001 246 l 1139 393 b 628 -17 1113 188 936 -17 b 86 542 311 -17 86 206 "},"Ċ":{"ha":1219,"x_min":0,"x_max":0,"o":"m 558 1267 b 631 1339 558 1307 590 1339 b 703 1267 671 1339 703 1307 b 631 1194 703 1226 671 1194 b 558 1267 590 1194 558 1226 m 86 542 b 628 1100 86 878 311 1100 b 1139 690 936 1100 1113 896 l 1028 690 b 636 997 1001 838 874 997 b 200 542 382 997 200 824 b 636 86 200 260 382 86 b 1028 393 874 86 1001 246 l 1139 393 b 628 -17 1113 188 936 -17 b 86 542 311 -17 86 206 "},"D":{"ha":1136,"x_min":0,"x_max":0,"o":"m 1050 542 b 476 0 1050 156 803 0 l 128 0 l 128 1083 l 476 1083 b 1050 542 803 1083 1050 928 m 471 103 b 936 542 740 103 936 226 b 471 981 936 857 740 981 l 239 981 l 239 103 "},"Ď":{"ha":1136,"x_min":0,"x_max":0,"o":"m 1050 542 b 476 0 1050 156 803 0 l 128 0 l 128 1083 l 476 1083 b 1050 542 803 1083 1050 928 m 471 103 b 936 542 740 103 936 226 b 471 981 936 857 740 981 l 239 981 l 239 103 m 406 1389 l 540 1231 l 675 1389 l 788 1389 l 585 1144 l 496 1144 l 293 1389 "},"Đ":{"ha":1261,"x_min":0,"x_max":0,"o":"m 1175 542 b 601 0 1175 156 928 0 l 253 0 l 253 506 l 58 506 l 58 606 l 253 606 l 253 1083 l 601 1083 b 1175 542 928 1083 1175 928 m 596 103 b 1061 542 865 103 1061 226 b 596 981 1061 857 865 981 l 364 981 l 364 606 l 756 606 l 756 506 l 364 506 l 364 103 "},"Ḋ":{"ha":1136,"x_min":0,"x_max":0,"o":"m 1050 542 b 476 0 1050 156 803 0 l 128 0 l 128 1083 l 476 1083 b 1050 542 803 1083 1050 928 m 471 103 b 936 542 740 103 936 226 b 471 981 936 857 740 981 l 239 981 l 239 103 m 468 1267 b 540 1339 468 1307 500 1339 b 613 1267 581 1339 613 1307 b 540 1194 613 1226 581 1194 b 468 1267 500 1194 468 1226 "},"E":{"ha":990,"x_min":0,"x_max":0,"o":"m 872 1083 l 872 981 l 239 981 l 239 607 l 817 607 l 817 504 l 239 504 l 239 103 l 900 103 l 900 0 l 128 0 l 128 1083 "},"É":{"ha":990,"x_min":0,"x_max":0,"o":"m 872 1083 l 872 981 l 239 981 l 239 607 l 817 607 l 817 504 l 239 504 l 239 103 l 900 103 l 900 0 l 128 0 l 128 1083 m 688 1389 l 574 1144 l 465 1144 l 576 1389 "},"Ĕ":{"ha":990,"x_min":0,"x_max":0,"o":"m 872 1083 l 872 981 l 239 981 l 239 607 l 817 607 l 817 504 l 239 504 l 239 103 l 900 103 l 900 0 l 128 0 l 128 1083 m 519 1128 b 275 1389 368 1128 275 1221 l 363 1389 b 519 1213 363 1271 425 1213 b 676 1389 614 1213 676 1271 l 764 1389 b 519 1128 764 1221 671 1128 "},"Ě":{"ha":990,"x_min":0,"x_max":0,"o":"m 872 1083 l 872 981 l 239 981 l 239 607 l 817 607 l 817 504 l 239 504 l 239 103 l 900 103 l 900 0 l 128 0 l 128 1083 m 385 1389 l 519 1231 l 654 1389 l 767 1389 l 564 1144 l 475 1144 l 272 1389 "},"Ê":{"ha":990,"x_min":0,"x_max":0,"o":"m 872 1083 l 872 981 l 239 981 l 239 607 l 817 607 l 817 504 l 239 504 l 239 103 l 900 103 l 900 0 l 128 0 l 128 1083 m 272 1144 l 475 1389 l 564 1389 l 767 1144 l 654 1144 l 519 1301 l 385 1144 "},"Ë":{"ha":990,"x_min":0,"x_max":0,"o":"m 872 1083 l 872 981 l 239 981 l 239 607 l 817 607 l 817 504 l 239 504 l 239 103 l 900 103 l 900 0 l 128 0 l 128 1083 m 308 1267 b 381 1339 308 1307 340 1339 b 453 1267 421 1339 453 1307 b 381 1194 453 1226 421 1194 b 308 1267 340 1194 308 1226 m 586 1267 b 658 1339 586 1307 618 1339 b 731 1267 699 1339 731 1307 b 658 1194 731 1226 699 1194 b 586 1267 618 1194 586 1226 "},"Ė":{"ha":990,"x_min":0,"x_max":0,"o":"m 872 1083 l 872 981 l 239 981 l 239 607 l 817 607 l 817 504 l 239 504 l 239 103 l 900 103 l 900 0 l 128 0 l 128 1083 m 447 1267 b 519 1339 447 1307 479 1339 b 592 1267 560 1339 592 1307 b 519 1194 592 1226 560 1194 b 447 1267 479 1194 447 1226 "},"È":{"ha":990,"x_min":0,"x_max":0,"o":"m 872 1083 l 872 981 l 239 981 l 239 607 l 817 607 l 817 504 l 239 504 l 239 103 l 900 103 l 900 0 l 128 0 l 128 1083 m 463 1389 l 574 1144 l 465 1144 l 351 1389 "},"Ē":{"ha":990,"x_min":0,"x_max":0,"o":"m 872 1083 l 872 981 l 239 981 l 239 607 l 817 607 l 817 504 l 239 504 l 239 103 l 900 103 l 900 0 l 128 0 l 128 1083 m 700 1315 l 700 1218 l 339 1218 l 339 1315 "},"Ŋ":{"ha":1083,"x_min":0,"x_max":0,"o":"m 853 179 l 849 514 l 849 1083 l 956 1083 l 956 -125 b 771 -294 956 -221 885 -294 b 597 -136 656 -294 601 -215 l 697 -136 b 772 -200 701 -168 724 -200 b 849 -125 821 -200 849 -168 l 849 -8 l 231 904 l 235 569 l 235 0 l 128 0 l 128 1083 l 239 1083 "},"Ę":{"ha":990,"x_min":0,"x_max":0,"o":"m 1003 -253 b 861 -294 979 -269 931 -294 b 694 -144 750 -294 694 -219 b 771 0 694 -79 729 -32 l 128 0 l 128 1083 l 872 1083 l 872 981 l 239 981 l 239 607 l 817 607 l 817 504 l 239 504 l 239 103 l 900 103 l 900 0 b 781 -131 840 -24 781 -62 b 875 -217 781 -183 822 -217 b 969 -187 921 -217 951 -200 "},"ẞ":{"ha":1138,"x_min":0,"x_max":0,"o":"m 735 82 b 964 274 864 82 964 154 b 719 472 964 371 910 439 l 543 503 l 543 579 l 829 954 b 614 996 772 981 700 996 b 222 683 344 996 222 856 l 222 0 l 110 0 l 110 671 b 614 1100 110 915 275 1100 b 947 1014 756 1100 868 1065 l 947 936 l 676 582 l 740 571 b 1075 278 938 536 1075 461 b 735 -17 1075 93 917 -17 b 371 347 510 -17 363 129 l 479 347 b 735 82 471 181 567 82 "},"Ð":{"ha":1261,"x_min":0,"x_max":0,"o":"m 1175 542 b 601 0 1175 156 928 0 l 253 0 l 253 506 l 58 506 l 58 606 l 253 606 l 253 1083 l 601 1083 b 1175 542 928 1083 1175 928 m 596 103 b 1061 542 865 103 1061 226 b 596 981 1061 857 865 981 l 364 981 l 364 606 l 756 606 l 756 506 l 364 506 l 364 103 "},"€":{"ha":903,"x_min":0,"x_max":0,"o":"m 157 482 b 156 542 156 501 156 521 b 157 601 156 563 156 582 l 50 601 l 50 686 l 164 686 b 540 1100 197 949 328 1100 b 850 783 746 1100 844 951 l 740 783 b 540 1000 735 908 664 1000 b 274 686 396 1000 303 893 l 718 686 l 690 601 l 267 601 b 265 542 265 582 265 563 b 267 482 265 521 265 501 l 654 482 l 626 397 l 274 397 b 540 83 303 189 396 83 b 740 300 664 83 735 175 l 850 300 b 540 -17 844 132 746 -17 b 164 397 328 -17 197 135 l 50 397 l 50 482 "},"F":{"ha":906,"x_min":0,"x_max":0,"o":"m 239 0 l 128 0 l 128 1083 l 844 1083 l 844 981 l 239 981 l 239 607 l 789 607 l 789 504 l 239 504 "},"Ḟ":{"ha":906,"x_min":0,"x_max":0,"o":"m 239 0 l 128 0 l 128 1083 l 844 1083 l 844 981 l 239 981 l 239 607 l 789 607 l 789 504 l 239 504 m 428 1267 b 500 1339 428 1307 460 1339 b 572 1267 540 1339 572 1307 b 500 1194 572 1226 540 1194 b 428 1267 460 1194 428 1226 "},"G":{"ha":1231,"x_min":0,"x_max":0,"o":"m 1118 0 l 1017 0 l 1017 229 b 603 -17 949 96 813 -17 b 86 542 318 -17 86 203 b 629 1100 86 881 310 1100 b 1119 731 913 1100 1081 926 l 1003 731 b 636 997 969 871 851 997 b 200 542 379 997 200 818 b 615 86 200 265 386 86 b 982 404 849 86 963 254 l 654 404 l 654 506 l 1118 506 "},"Ğ":{"ha":1231,"x_min":0,"x_max":0,"o":"m 1118 0 l 1017 0 l 1017 229 b 603 -17 949 96 813 -17 b 86 542 318 -17 86 203 b 629 1100 86 881 310 1100 b 1119 731 913 1100 1081 926 l 1003 731 b 636 997 969 871 851 997 b 200 542 379 997 200 818 b 615 86 200 265 386 86 b 982 404 849 86 963 254 l 654 404 l 654 506 l 1118 506 m 631 1128 b 386 1389 479 1128 386 1221 l 474 1389 b 631 1213 474 1271 536 1213 b 788 1389 725 1213 788 1271 l 875 1389 b 631 1128 875 1221 782 1128 "},"Ĝ":{"ha":1231,"x_min":0,"x_max":0,"o":"m 1118 0 l 1017 0 l 1017 229 b 603 -17 949 96 813 -17 b 86 542 318 -17 86 203 b 629 1100 86 881 310 1100 b 1119 731 913 1100 1081 926 l 1003 731 b 636 997 969 871 851 997 b 200 542 379 997 200 818 b 615 86 200 265 386 86 b 982 404 849 86 963 254 l 654 404 l 654 506 l 1118 506 m 383 1144 l 586 1389 l 675 1389 l 878 1144 l 765 1144 l 631 1301 l 496 1144 "},"Ģ":{"ha":1231,"x_min":0,"x_max":0,"o":"m 1118 0 l 1017 0 l 1017 229 b 603 -17 949 96 813 -17 b 86 542 318 -17 86 203 b 629 1100 86 881 310 1100 b 1119 731 913 1100 1081 926 l 1003 731 b 636 997 969 871 851 997 b 200 542 379 997 200 818 b 615 86 200 265 386 86 b 982 404 849 86 963 254 l 654 404 l 654 506 l 1118 506 m 533 -233 b 629 -171 582 -224 621 -204 b 567 -107 593 -169 567 -140 b 631 -43 567 -72 594 -43 b 703 -129 668 -43 703 -74 b 533 -294 703 -207 653 -278 "},"Ġ":{"ha":1231,"x_min":0,"x_max":0,"o":"m 1118 0 l 1017 0 l 1017 229 b 603 -17 949 96 813 -17 b 86 542 318 -17 86 203 b 629 1100 86 881 310 1100 b 1119 731 913 1100 1081 926 l 1003 731 b 636 997 969 871 851 997 b 200 542 379 997 200 818 b 615 86 200 265 386 86 b 982 404 849 86 963 254 l 654 404 l 654 506 l 1118 506 m 558 1267 b 631 1339 558 1307 590 1339 b 703 1267 671 1339 703 1307 b 631 1194 703 1226 671 1194 b 558 1267 590 1194 558 1226 "},"H":{"ha":1069,"x_min":0,"x_max":0,"o":"m 942 1083 l 942 0 l 831 0 l 831 504 l 239 504 l 239 0 l 128 0 l 128 1083 l 239 1083 l 239 607 l 831 607 l 831 1083 "},"Ħ":{"ha":1069,"x_min":0,"x_max":0,"o":"m 942 1083 l 942 0 l 831 0 l 831 504 l 239 504 l 239 0 l 128 0 l 128 1083 l 239 1083 l 239 899 l 831 899 l 831 1083 m 831 607 l 831 799 l 239 799 l 239 607 "},"Ĥ":{"ha":1069,"x_min":0,"x_max":0,"o":"m 942 1083 l 942 0 l 831 0 l 831 504 l 239 504 l 239 0 l 128 0 l 128 1083 l 239 1083 l 239 607 l 831 607 l 831 1083 m 288 1144 l 490 1389 l 579 1389 l 782 1144 l 669 1144 l 535 1301 l 400 1144 "},"I":{"ha":411,"x_min":0,"x_max":0,"o":"m 261 0 l 150 0 l 150 1083 l 261 1083 "},"Ĳ":{"ha":750,"x_min":0,"x_max":0,"o":"m 261 0 l 150 0 l 150 1083 l 261 1083 m 621 176 b 429 0 621 76 547 0 l 358 0 l 358 103 l 431 103 b 510 182 481 103 510 136 l 510 1083 l 621 1083 "},"Í":{"ha":411,"x_min":0,"x_max":0,"o":"m 261 0 l 150 0 l 150 1083 l 261 1083 m 374 1389 l 260 1144 l 151 1144 l 263 1389 "},"Ĭ":{"ha":411,"x_min":0,"x_max":0,"o":"m 261 0 l 150 0 l 150 1083 l 261 1083 m 206 1128 b -39 1389 54 1128 -39 1221 l 49 1389 b 206 1213 49 1271 111 1213 b 363 1389 300 1213 363 1271 l 450 1389 b 206 1128 450 1221 357 1128 "},"Î":{"ha":411,"x_min":0,"x_max":0,"o":"m 261 0 l 150 0 l 150 1083 l 261 1083 m -42 1144 l 161 1389 l 250 1389 l 453 1144 l 340 1144 l 206 1301 l 71 1144 "},"Ï":{"ha":411,"x_min":0,"x_max":0,"o":"m 261 0 l 150 0 l 150 1083 l 261 1083 m -6 1267 b 67 1339 -6 1307 26 1339 b 139 1267 107 1339 139 1307 b 67 1194 139 1226 107 1194 b -6 1267 26 1194 -6 1226 m 272 1267 b 344 1339 272 1307 304 1339 b 417 1267 385 1339 417 1307 b 344 1194 417 1226 385 1194 b 272 1267 304 1194 272 1226 "},"İ":{"ha":411,"x_min":0,"x_max":0,"o":"m 261 0 l 150 0 l 150 1083 l 261 1083 m 133 1267 b 206 1339 133 1307 165 1339 b 278 1267 246 1339 278 1307 b 206 1194 278 1226 246 1194 b 133 1267 165 1194 133 1226 "},"Ì":{"ha":411,"x_min":0,"x_max":0,"o":"m 261 0 l 150 0 l 150 1083 l 261 1083 m 149 1389 l 260 1144 l 151 1144 l 38 1389 "},"Ī":{"ha":411,"x_min":0,"x_max":0,"o":"m 261 0 l 150 0 l 150 1083 l 261 1083 m 386 1315 l 386 1218 l 25 1218 l 25 1315 "},"Į":{"ha":411,"x_min":0,"x_max":0,"o":"m 364 -253 b 222 -294 340 -269 292 -294 b 56 -144 111 -294 56 -219 b 150 14 56 -69 101 -18 l 150 1083 l 261 1083 l 261 0 b 142 -131 201 -24 142 -62 b 236 -217 142 -183 183 -217 b 331 -187 282 -217 313 -200 "},"Ĩ":{"ha":411,"x_min":0,"x_max":0,"o":"m 261 0 l 150 0 l 150 1083 l 261 1083 m 94 1365 b 308 1263 218 1365 224 1263 b 376 1346 350 1263 376 1290 l 464 1346 b 317 1168 464 1235 407 1168 b 103 1271 193 1168 188 1271 b 35 1188 61 1271 35 1243 l -53 1188 b 94 1365 -53 1299 4 1365 "},"J":{"ha":719,"x_min":0,"x_max":0,"o":"m 599 1083 l 599 261 b 314 -17 599 96 476 -17 b 38 243 149 -17 44 88 l 143 243 b 314 86 150 150 214 86 b 486 261 426 86 486 161 l 486 1083 "},"Ĵ":{"ha":719,"x_min":0,"x_max":0,"o":"m 599 1083 l 599 261 b 314 -17 599 96 476 -17 b 38 243 149 -17 44 88 l 143 243 b 314 86 150 150 214 86 b 486 261 426 86 486 161 l 486 1083 m 294 1144 l 497 1389 l 586 1389 l 789 1144 l 676 1144 l 542 1301 l 407 1144 "},"K":{"ha":997,"x_min":0,"x_max":0,"o":"m 239 499 l 776 1083 l 928 1083 l 468 593 l 960 0 l 814 0 l 394 515 l 239 350 l 239 0 l 128 0 l 128 1083 l 239 1083 "},"Ķ":{"ha":997,"x_min":0,"x_max":0,"o":"m 239 499 l 776 1083 l 928 1083 l 468 593 l 960 0 l 814 0 l 394 515 l 239 350 l 239 0 l 128 0 l 128 1083 l 239 1083 m 399 -233 b 494 -171 447 -224 486 -204 b 432 -107 458 -169 432 -140 b 496 -43 432 -72 460 -43 b 568 -129 533 -43 568 -74 b 399 -294 568 -207 518 -278 "},"L":{"ha":849,"x_min":0,"x_max":0,"o":"m 239 103 l 817 103 l 817 0 l 128 0 l 128 1083 l 239 1083 "},"Ĺ":{"ha":849,"x_min":0,"x_max":0,"o":"m 239 103 l 817 103 l 817 0 l 128 0 l 128 1083 l 239 1083 m 351 1389 l 238 1144 l 129 1144 l 240 1389 "},"Ľ":{"ha":849,"x_min":0,"x_max":0,"o":"m 239 103 l 817 103 l 817 0 l 128 0 l 128 1083 l 239 1083 m 604 1111 l 571 850 l 488 850 l 517 1111 "},"Ļ":{"ha":849,"x_min":0,"x_max":0,"o":"m 239 103 l 817 103 l 817 0 l 128 0 l 128 1083 l 239 1083 m 383 -233 b 479 -171 432 -224 471 -204 b 417 -107 443 -169 417 -140 b 481 -43 417 -72 444 -43 b 553 -129 518 -43 553 -74 b 383 -294 553 -207 503 -278 "},"Ŀ":{"ha":849,"x_min":0,"x_max":0,"o":"m 239 103 l 817 103 l 817 0 l 128 0 l 128 1083 l 239 1083 m 681 556 b 608 483 681 517 649 483 b 536 556 568 483 536 517 b 608 628 536 596 568 628 b 681 556 649 628 681 596 "},"Ł":{"ha":974,"x_min":0,"x_max":0,"o":"m 364 428 l 364 103 l 942 103 l 942 0 l 253 0 l 253 367 l 58 260 l 58 369 l 253 476 l 253 1083 l 364 1083 l 364 538 l 756 753 l 756 643 "},"M":{"ha":1274,"x_min":0,"x_max":0,"o":"m 315 671 l 232 883 l 236 569 l 236 0 l 128 0 l 128 1083 l 267 1083 l 542 401 l 638 150 l 733 401 l 1010 1083 l 1146 1083 l 1146 0 l 1039 0 l 1039 569 l 1043 883 l 960 671 l 690 0 l 585 0 "},"Ṁ":{"ha":1274,"x_min":0,"x_max":0,"o":"m 315 671 l 232 883 l 236 569 l 236 0 l 128 0 l 128 1083 l 267 1083 l 542 401 l 638 150 l 733 401 l 1010 1083 l 1146 1083 l 1146 0 l 1039 0 l 1039 569 l 1043 883 l 960 671 l 690 0 l 585 0 m 565 1267 b 638 1339 565 1307 597 1339 b 710 1267 678 1339 710 1307 b 638 1194 710 1226 678 1194 b 565 1267 597 1194 565 1226 "},"N":{"ha":1083,"x_min":0,"x_max":0,"o":"m 853 179 l 849 514 l 849 1083 l 956 1083 l 956 0 l 844 0 l 231 904 l 235 569 l 235 0 l 128 0 l 128 1083 l 239 1083 "},"Ń":{"ha":1083,"x_min":0,"x_max":0,"o":"m 853 179 l 849 514 l 849 1083 l 956 1083 l 956 0 l 844 0 l 231 904 l 235 569 l 235 0 l 128 0 l 128 1083 l 239 1083 m 710 1389 l 596 1144 l 488 1144 l 599 1389 "},"Ň":{"ha":1083,"x_min":0,"x_max":0,"o":"m 853 179 l 849 514 l 849 1083 l 956 1083 l 956 0 l 844 0 l 231 904 l 235 569 l 235 0 l 128 0 l 128 1083 l 239 1083 m 407 1389 l 542 1231 l 676 1389 l 789 1389 l 586 1144 l 497 1144 l 294 1389 "},"Ņ":{"ha":1083,"x_min":0,"x_max":0,"o":"m 853 179 l 849 514 l 849 1083 l 956 1083 l 956 0 l 844 0 l 231 904 l 235 569 l 235 0 l 128 0 l 128 1083 l 239 1083 m 444 -233 b 540 -171 493 -224 532 -204 b 478 -107 504 -169 478 -140 b 542 -43 478 -72 506 -43 b 614 -129 579 -43 614 -74 b 444 -294 614 -207 564 -278 "},"Ñ":{"ha":1083,"x_min":0,"x_max":0,"o":"m 853 179 l 849 514 l 849 1083 l 956 1083 l 956 0 l 844 0 l 231 904 l 235 569 l 235 0 l 128 0 l 128 1083 l 239 1083 m 431 1365 b 644 1263 554 1365 560 1263 b 713 1346 686 1263 713 1290 l 800 1346 b 653 1168 800 1235 743 1168 b 439 1271 529 1168 524 1271 b 371 1188 397 1271 371 1243 l 283 1188 b 431 1365 283 1299 340 1365 "},"O":{"ha":1283,"x_min":0,"x_max":0,"o":"m 201 542 b 642 86 201 257 392 86 b 1082 542 892 86 1082 257 b 642 997 1082 826 892 997 b 201 542 392 997 201 826 m 1197 542 b 642 -17 1197 200 957 -17 b 86 542 326 -17 86 200 b 642 1100 86 883 326 1100 b 1197 542 957 1100 1197 883 "},"Œ":{"ha":1704,"x_min":0,"x_max":0,"o":"m 86 542 b 660 1083 86 928 333 1083 l 1586 1083 l 1586 981 l 953 981 l 953 607 l 1531 607 l 1531 504 l 953 504 l 953 103 l 1614 103 l 1614 0 l 660 0 b 86 542 333 0 86 156 m 665 981 b 200 542 396 981 200 857 b 665 103 200 226 396 103 l 842 103 l 842 981 "},"Ó":{"ha":1283,"x_min":0,"x_max":0,"o":"m 811 1389 l 697 1144 l 589 1144 l 700 1389 m 201 542 b 642 86 201 257 392 86 b 1082 542 892 86 1082 257 b 642 997 1082 826 892 997 b 201 542 392 997 201 826 m 1197 542 b 642 -17 1197 200 957 -17 b 86 542 326 -17 86 200 b 642 1100 86 883 326 1100 b 1197 542 957 1100 1197 883 "},"Ŏ":{"ha":1283,"x_min":0,"x_max":0,"o":"m 643 1128 b 399 1389 492 1128 399 1221 l 486 1389 b 643 1213 486 1271 549 1213 b 800 1389 738 1213 800 1271 l 888 1389 b 643 1128 888 1221 794 1128 m 201 542 b 642 86 201 257 392 86 b 1082 542 892 86 1082 257 b 642 997 1082 826 892 997 b 201 542 392 997 201 826 m 1197 542 b 642 -17 1197 200 957 -17 b 86 542 326 -17 86 200 b 642 1100 86 883 326 1100 b 1197 542 957 1100 1197 883 "},"Ô":{"ha":1283,"x_min":0,"x_max":0,"o":"m 396 1144 l 599 1389 l 688 1389 l 890 1144 l 778 1144 l 643 1301 l 508 1144 m 201 542 b 642 86 201 257 392 86 b 1082 542 892 86 1082 257 b 642 997 1082 826 892 997 b 201 542 392 997 201 826 m 1197 542 b 642 -17 1197 200 957 -17 b 86 542 326 -17 86 200 b 642 1100 86 883 326 1100 b 1197 542 957 1100 1197 883 "},"Ö":{"ha":1283,"x_min":0,"x_max":0,"o":"m 432 1267 b 504 1339 432 1307 464 1339 b 576 1267 544 1339 576 1307 b 504 1194 576 1226 544 1194 b 432 1267 464 1194 432 1226 m 710 1267 b 782 1339 710 1307 742 1339 b 854 1267 822 1339 854 1307 b 782 1194 854 1226 822 1194 b 710 1267 742 1194 710 1226 m 201 542 b 642 86 201 257 392 86 b 1082 542 892 86 1082 257 b 642 997 1082 826 892 997 b 201 542 392 997 201 826 m 1197 542 b 642 -17 1197 200 957 -17 b 86 542 326 -17 86 200 b 642 1100 86 883 326 1100 b 1197 542 957 1100 1197 883 "},"Ò":{"ha":1283,"x_min":0,"x_max":0,"o":"m 586 1389 l 697 1144 l 589 1144 l 475 1389 m 201 542 b 642 86 201 257 392 86 b 1082 542 892 86 1082 257 b 642 997 1082 826 892 997 b 201 542 392 997 201 826 m 1197 542 b 642 -17 1197 200 957 -17 b 86 542 326 -17 86 200 b 642 1100 86 883 326 1100 b 1197 542 957 1100 1197 883 "},"Ő":{"ha":1283,"x_min":0,"x_max":0,"o":"m 581 1144 l 472 1144 l 583 1389 l 694 1389 m 928 1389 l 814 1144 l 706 1144 l 817 1389 m 201 542 b 642 86 201 257 392 86 b 1082 542 892 86 1082 257 b 642 997 1082 826 892 997 b 201 542 392 997 201 826 m 1197 542 b 642 -17 1197 200 957 -17 b 86 542 326 -17 86 200 b 642 1100 86 883 326 1100 b 1197 542 957 1100 1197 883 "},"Ō":{"ha":1283,"x_min":0,"x_max":0,"o":"m 824 1315 l 824 1218 l 463 1218 l 463 1315 m 201 542 b 642 86 201 257 392 86 b 1082 542 892 86 1082 257 b 642 997 1082 826 892 997 b 201 542 392 997 201 826 m 1197 542 b 642 -17 1197 200 957 -17 b 86 542 326 -17 86 200 b 642 1100 86 883 326 1100 b 1197 542 957 1100 1197 883 "},"Ø":{"ha":1283,"x_min":0,"x_max":0,"o":"m 242 139 b 86 542 144 235 86 374 b 642 1100 86 883 326 1100 b 971 1004 767 1100 879 1067 l 1038 1083 l 1158 1083 l 1042 944 b 1197 542 1139 849 1197 710 b 642 -17 1197 200 957 -17 b 313 79 517 -17 403 17 l 246 0 l 125 0 m 201 542 b 313 222 201 408 242 300 l 901 921 b 642 997 829 971 740 997 b 201 542 392 997 201 826 m 1082 542 b 971 860 1082 675 1040 782 l 382 161 b 642 86 454 113 543 86 b 1082 542 892 86 1082 257 "},"Õ":{"ha":1283,"x_min":0,"x_max":0,"o":"m 532 1365 b 746 1263 656 1365 661 1263 b 814 1346 788 1263 814 1290 l 901 1346 b 754 1168 901 1235 844 1168 b 540 1271 631 1168 625 1271 b 472 1188 499 1271 472 1243 l 385 1188 b 532 1365 385 1299 442 1365 m 201 542 b 642 86 201 257 392 86 b 1082 542 892 86 1082 257 b 642 997 1082 826 892 997 b 201 542 392 997 201 826 m 1197 542 b 642 -17 1197 200 957 -17 b 86 542 326 -17 86 200 b 642 1100 86 883 326 1100 b 1197 542 957 1100 1197 883 "},"P":{"ha":922,"x_min":0,"x_max":0,"o":"m 540 542 b 758 761 653 542 758 607 b 540 981 758 915 653 981 l 239 981 l 239 542 m 239 0 l 128 0 l 128 1083 l 536 1083 b 871 761 715 1083 871 982 b 536 440 871 542 715 440 l 239 440 "},"Ṗ":{"ha":922,"x_min":0,"x_max":0,"o":"m 540 542 b 758 761 653 542 758 607 b 540 981 758 915 653 981 l 239 981 l 239 542 m 239 0 l 128 0 l 128 1083 l 536 1083 b 871 761 715 1083 871 982 b 536 440 871 542 715 440 l 239 440 m 400 1267 b 472 1339 400 1307 432 1339 b 544 1267 513 1339 544 1307 b 472 1194 544 1226 513 1194 b 400 1267 432 1194 400 1226 "},"Q":{"ha":1283,"x_min":0,"x_max":0,"o":"m 919 -139 l 807 4 b 642 -17 756 -8 700 -17 b 86 542 326 -17 86 200 b 642 1100 86 883 326 1100 b 1197 542 957 1100 1197 883 b 906 42 1197 304 1082 128 l 1046 -139 m 201 542 b 642 86 201 257 392 86 b 738 94 674 86 707 89 l 569 311 l 697 311 l 839 126 b 1082 542 985 193 1082 339 b 642 997 1082 826 892 997 b 201 542 392 997 201 826 "},"R":{"ha":989,"x_min":0,"x_max":0,"o":"m 239 0 l 128 0 l 128 1083 l 568 1083 b 892 769 731 1083 892 986 b 649 465 892 590 779 493 l 932 0 l 800 0 l 525 457 l 239 457 m 571 558 b 779 769 667 558 779 618 b 571 981 779 922 667 981 l 239 981 l 239 558 "},"Ŕ":{"ha":989,"x_min":0,"x_max":0,"o":"m 239 0 l 128 0 l 128 1083 l 568 1083 b 892 769 731 1083 892 986 b 649 465 892 590 779 493 l 932 0 l 800 0 l 525 457 l 239 457 m 571 558 b 779 769 667 558 779 618 b 571 981 779 922 667 981 l 239 981 l 239 558 m 653 1389 l 539 1144 l 431 1144 l 542 1389 "},"Ř":{"ha":989,"x_min":0,"x_max":0,"o":"m 239 0 l 128 0 l 128 1083 l 568 1083 b 892 769 731 1083 892 986 b 649 465 892 590 779 493 l 932 0 l 800 0 l 525 457 l 239 457 m 571 558 b 779 769 667 558 779 618 b 571 981 779 922 667 981 l 239 981 l 239 558 m 350 1389 l 485 1231 l 619 1389 l 732 1389 l 529 1144 l 440 1144 l 238 1389 "},"Ŗ":{"ha":989,"x_min":0,"x_max":0,"o":"m 239 0 l 128 0 l 128 1083 l 568 1083 b 892 769 731 1083 892 986 b 649 465 892 590 779 493 l 932 0 l 800 0 l 525 457 l 239 457 m 571 558 b 779 769 667 558 779 618 b 571 981 779 922 667 981 l 239 981 l 239 558 m 397 -233 b 493 -171 446 -224 485 -204 b 431 -107 457 -169 431 -140 b 494 -43 431 -72 458 -43 b 567 -129 532 -43 567 -74 b 397 -294 567 -207 517 -278 "},"S":{"ha":917,"x_min":0,"x_max":0,"o":"m 447 1004 b 218 811 314 1004 218 924 b 485 619 218 693 294 638 b 857 310 735 596 857 493 b 465 -17 857 119 694 -17 b 61 392 204 -17 47 142 l 169 392 b 465 79 160 193 267 79 b 746 304 635 79 746 168 b 446 514 746 436 664 493 b 107 803 226 535 107 638 b 447 1100 107 972 253 1100 b 811 736 672 1100 819 954 l 703 736 b 447 1004 711 907 619 1004 "},"Ś":{"ha":917,"x_min":0,"x_max":0,"o":"m 619 1389 l 506 1144 l 397 1144 l 508 1389 m 447 1004 b 218 811 314 1004 218 924 b 485 619 218 693 294 638 b 857 310 735 596 857 493 b 465 -17 857 119 694 -17 b 61 392 204 -17 47 142 l 169 392 b 465 79 160 193 267 79 b 746 304 635 79 746 168 b 446 514 746 436 664 493 b 107 803 226 535 107 638 b 447 1100 107 972 253 1100 b 811 736 672 1100 819 954 l 703 736 b 447 1004 711 907 619 1004 "},"Š":{"ha":917,"x_min":0,"x_max":0,"o":"m 317 1389 l 451 1231 l 586 1389 l 699 1389 l 496 1144 l 407 1144 l 204 1389 m 447 1004 b 218 811 314 1004 218 924 b 485 619 218 693 294 638 b 857 310 735 596 857 493 b 465 -17 857 119 694 -17 b 61 392 204 -17 47 142 l 169 392 b 465 79 160 193 267 79 b 746 304 635 79 746 168 b 446 514 746 436 664 493 b 107 803 226 535 107 638 b 447 1100 107 972 253 1100 b 811 736 672 1100 819 954 l 703 736 b 447 1004 711 907 619 1004 "},"Ş":{"ha":917,"x_min":0,"x_max":0,"o":"m 358 -187 b 457 -218 376 -200 414 -218 b 539 -167 506 -218 539 -200 b 417 -93 539 -121 476 -100 l 425 -15 b 61 392 188 0 47 154 l 169 392 b 465 79 160 193 267 79 b 746 304 635 79 746 168 b 446 514 746 436 664 493 b 107 803 226 535 107 638 b 447 1100 107 972 253 1100 b 811 736 672 1100 819 954 l 703 736 b 447 1004 711 907 619 1004 b 218 811 314 1004 218 924 b 485 619 218 693 294 638 b 857 310 735 596 857 493 b 497 -15 857 128 710 -3 l 494 -50 b 624 -178 564 -67 624 -104 b 465 -294 624 -242 567 -294 b 326 -251 396 -294 350 -268 "},"Ə":{"ha":1233,"x_min":0,"x_max":0,"o":"m 617 -17 b 86 542 310 -17 86 199 l 86 583 l 1031 583 b 601 997 1014 838 843 997 b 222 775 372 997 253 886 l 104 775 b 601 1100 139 944 301 1100 b 1147 540 929 1100 1147 882 b 617 -17 1147 201 924 -17 m 204 481 b 617 86 224 250 382 86 b 1029 481 851 86 1010 250 "},"Ŝ":{"ha":917,"x_min":0,"x_max":0,"o":"m 204 1144 l 407 1389 l 496 1389 l 699 1144 l 586 1144 l 451 1301 l 317 1144 m 447 1004 b 218 811 314 1004 218 924 b 485 619 218 693 294 638 b 857 310 735 596 857 493 b 465 -17 857 119 694 -17 b 61 392 204 -17 47 142 l 169 392 b 465 79 160 193 267 79 b 746 304 635 79 746 168 b 446 514 746 436 664 493 b 107 803 226 535 107 638 b 447 1100 107 972 253 1100 b 811 736 672 1100 819 954 l 703 736 b 447 1004 711 907 619 1004 "},"Ș":{"ha":917,"x_min":0,"x_max":0,"o":"m 368 -233 b 464 -171 417 -224 456 -204 b 401 -107 428 -169 401 -140 b 465 -43 401 -72 429 -43 b 538 -129 503 -43 538 -74 b 368 -294 538 -207 488 -278 m 447 1004 b 218 811 314 1004 218 924 b 485 619 218 693 294 638 b 857 310 735 596 857 493 b 465 -17 857 119 694 -17 b 61 392 204 -17 47 142 l 169 392 b 465 79 160 193 267 79 b 746 304 635 79 746 168 b 446 514 746 436 664 493 b 107 803 226 535 107 638 b 447 1100 107 972 253 1100 b 811 736 672 1100 819 954 l 703 736 b 447 1004 711 907 619 1004 "},"T":{"ha":883,"x_min":0,"x_max":0,"o":"m 497 0 l 386 0 l 386 981 l 32 981 l 32 1083 l 851 1083 l 851 981 l 497 981 "},"Ŧ":{"ha":883,"x_min":0,"x_max":0,"o":"m 497 506 l 497 0 l 386 0 l 386 506 l 163 506 l 163 606 l 386 606 l 386 981 l 32 981 l 32 1083 l 851 1083 l 851 981 l 497 981 l 497 606 l 721 606 l 721 506 "},"Ť":{"ha":883,"x_min":0,"x_max":0,"o":"m 497 0 l 386 0 l 386 981 l 32 981 l 32 1083 l 851 1083 l 851 981 l 497 981 m 307 1389 l 442 1231 l 576 1389 l 689 1389 l 486 1144 l 397 1144 l 194 1389 "},"Ț":{"ha":883,"x_min":0,"x_max":0,"o":"m 497 0 l 386 0 l 386 981 l 32 981 l 32 1083 l 851 1083 l 851 981 l 497 981 m 344 -233 b 440 -171 393 -224 432 -204 b 378 -107 404 -169 378 -140 b 442 -43 378 -72 406 -43 b 514 -129 479 -43 514 -74 b 344 -294 514 -207 464 -278 "},"Ṫ":{"ha":883,"x_min":0,"x_max":0,"o":"m 497 0 l 386 0 l 386 981 l 32 981 l 32 1083 l 851 1083 l 851 981 l 497 981 m 369 1267 b 442 1339 369 1307 401 1339 b 514 1267 482 1339 514 1307 b 442 1194 514 1226 482 1194 b 369 1267 401 1194 369 1226 "},"Þ":{"ha":938,"x_min":0,"x_max":0,"o":"m 239 864 l 536 864 b 871 542 715 864 871 763 b 536 219 871 321 715 219 l 239 219 l 239 0 l 128 0 l 128 1083 l 239 1083 m 540 322 b 758 542 653 322 758 388 b 540 761 758 696 653 761 l 239 761 l 239 322 "},"U":{"ha":1089,"x_min":0,"x_max":0,"o":"m 544 -17 b 110 421 261 -17 110 176 l 110 1083 l 222 1083 l 222 408 b 544 88 222 236 331 88 b 867 408 758 88 867 236 l 867 1083 l 979 1083 l 979 421 b 544 -17 979 176 828 -17 "},"Ú":{"ha":1089,"x_min":0,"x_max":0,"o":"m 544 -17 b 110 421 261 -17 110 176 l 110 1083 l 222 1083 l 222 408 b 544 88 222 236 331 88 b 867 408 758 88 867 236 l 867 1083 l 979 1083 l 979 421 b 544 -17 979 176 828 -17 m 713 1389 l 599 1144 l 490 1144 l 601 1389 "},"Ŭ":{"ha":1089,"x_min":0,"x_max":0,"o":"m 544 -17 b 110 421 261 -17 110 176 l 110 1083 l 222 1083 l 222 408 b 544 88 222 236 331 88 b 867 408 758 88 867 236 l 867 1083 l 979 1083 l 979 421 b 544 -17 979 176 828 -17 m 544 1128 b 300 1389 393 1128 300 1221 l 388 1389 b 544 1213 388 1271 450 1213 b 701 1389 639 1213 701 1271 l 789 1389 b 544 1128 789 1221 696 1128 "},"Û":{"ha":1089,"x_min":0,"x_max":0,"o":"m 544 -17 b 110 421 261 -17 110 176 l 110 1083 l 222 1083 l 222 408 b 544 88 222 236 331 88 b 867 408 758 88 867 236 l 867 1083 l 979 1083 l 979 421 b 544 -17 979 176 828 -17 m 297 1144 l 500 1389 l 589 1389 l 792 1144 l 679 1144 l 544 1301 l 410 1144 "},"Ü":{"ha":1089,"x_min":0,"x_max":0,"o":"m 544 -17 b 110 421 261 -17 110 176 l 110 1083 l 222 1083 l 222 408 b 544 88 222 236 331 88 b 867 408 758 88 867 236 l 867 1083 l 979 1083 l 979 421 b 544 -17 979 176 828 -17 m 333 1267 b 406 1339 333 1307 365 1339 b 478 1267 446 1339 478 1307 b 406 1194 478 1226 446 1194 b 333 1267 365 1194 333 1226 m 611 1267 b 683 1339 611 1307 643 1339 b 756 1267 724 1339 756 1307 b 683 1194 756 1226 724 1194 b 611 1267 643 1194 611 1226 "},"Ù":{"ha":1089,"x_min":0,"x_max":0,"o":"m 544 -17 b 110 421 261 -17 110 176 l 110 1083 l 222 1083 l 222 408 b 544 88 222 236 331 88 b 867 408 758 88 867 236 l 867 1083 l 979 1083 l 979 421 b 544 -17 979 176 828 -17 m 488 1389 l 599 1144 l 490 1144 l 376 1389 "},"Ű":{"ha":1089,"x_min":0,"x_max":0,"o":"m 544 -17 b 110 421 261 -17 110 176 l 110 1083 l 222 1083 l 222 408 b 544 88 222 236 331 88 b 867 408 758 88 867 236 l 867 1083 l 979 1083 l 979 421 b 544 -17 979 176 828 -17 m 829 1389 l 715 1144 l 607 1144 l 718 1389 m 482 1144 l 374 1144 l 485 1389 l 596 1389 "},"Ū":{"ha":1089,"x_min":0,"x_max":0,"o":"m 544 -17 b 110 421 261 -17 110 176 l 110 1083 l 222 1083 l 222 408 b 544 88 222 236 331 88 b 867 408 758 88 867 236 l 867 1083 l 979 1083 l 979 421 b 544 -17 979 176 828 -17 m 725 1315 l 725 1218 l 364 1218 l 364 1315 "},"Ų":{"ha":1089,"x_min":0,"x_max":0,"o":"m 781 -253 b 639 -294 757 -269 708 -294 b 472 -144 528 -294 472 -219 b 529 -15 472 -89 497 -47 b 110 421 256 -8 110 181 l 110 1083 l 222 1083 l 222 408 b 544 88 222 236 331 88 b 867 408 758 88 867 236 l 867 1083 l 979 1083 l 979 421 b 679 0 979 215 874 53 b 558 -131 619 -17 558 -64 b 653 -217 558 -183 600 -217 b 747 -187 699 -217 729 -200 "},"Ů":{"ha":1089,"x_min":0,"x_max":0,"o":"m 544 -17 b 110 421 261 -17 110 176 l 110 1083 l 222 1083 l 222 408 b 544 88 222 236 331 88 b 867 408 758 88 867 236 l 867 1083 l 979 1083 l 979 421 b 544 -17 979 176 828 -17 m 406 1267 b 544 1406 406 1343 468 1406 b 683 1267 621 1406 683 1343 b 544 1128 683 1190 621 1128 b 406 1267 468 1128 406 1190 m 465 1267 b 544 1188 465 1224 501 1188 b 624 1267 588 1188 624 1224 b 544 1346 624 1310 588 1346 b 465 1267 501 1346 465 1310 "},"Ũ":{"ha":1089,"x_min":0,"x_max":0,"o":"m 544 -17 b 110 421 261 -17 110 176 l 110 1083 l 222 1083 l 222 408 b 544 88 222 236 331 88 b 867 408 758 88 867 236 l 867 1083 l 979 1083 l 979 421 b 544 -17 979 176 828 -17 m 433 1365 b 647 1263 557 1365 563 1263 b 715 1346 689 1263 715 1290 l 803 1346 b 656 1168 803 1235 746 1168 b 442 1271 532 1168 526 1271 b 374 1188 400 1271 374 1243 l 286 1188 b 433 1365 286 1299 343 1365 "},"V":{"ha":1022,"x_min":0,"x_max":0,"o":"m 513 144 l 618 440 l 854 1083 l 976 1083 l 567 0 l 456 0 l 46 1083 l 171 1083 l 407 440 "},"W":{"ha":1556,"x_min":0,"x_max":0,"o":"m 1104 0 l 865 669 l 778 925 l 690 669 l 451 0 l 347 0 l 29 1083 l 143 1083 l 332 440 l 404 183 l 493 444 l 721 1083 l 836 1083 l 1064 444 l 1153 183 l 1225 440 l 1414 1083 l 1526 1083 l 1208 0 "},"Ẃ":{"ha":1556,"x_min":0,"x_max":0,"o":"m 1104 0 l 865 669 l 778 925 l 690 669 l 451 0 l 347 0 l 29 1083 l 143 1083 l 332 440 l 404 183 l 493 444 l 721 1083 l 836 1083 l 1064 444 l 1153 183 l 1225 440 l 1414 1083 l 1526 1083 l 1208 0 m 946 1389 l 832 1144 l 724 1144 l 835 1389 "},"Ŵ":{"ha":1556,"x_min":0,"x_max":0,"o":"m 1104 0 l 865 669 l 778 925 l 690 669 l 451 0 l 347 0 l 29 1083 l 143 1083 l 332 440 l 404 183 l 493 444 l 721 1083 l 836 1083 l 1064 444 l 1153 183 l 1225 440 l 1414 1083 l 1526 1083 l 1208 0 m 531 1144 l 733 1389 l 822 1389 l 1025 1144 l 913 1144 l 778 1301 l 643 1144 "},"Ẅ":{"ha":1556,"x_min":0,"x_max":0,"o":"m 1104 0 l 865 669 l 778 925 l 690 669 l 451 0 l 347 0 l 29 1083 l 143 1083 l 332 440 l 404 183 l 493 444 l 721 1083 l 836 1083 l 1064 444 l 1153 183 l 1225 440 l 1414 1083 l 1526 1083 l 1208 0 m 567 1267 b 639 1339 567 1307 599 1339 b 711 1267 679 1339 711 1307 b 639 1194 711 1226 679 1194 b 567 1267 599 1194 567 1226 m 844 1267 b 917 1339 844 1307 876 1339 b 989 1267 957 1339 989 1307 b 917 1194 989 1226 957 1194 b 844 1267 876 1194 844 1226 "},"Ẁ":{"ha":1556,"x_min":0,"x_max":0,"o":"m 1104 0 l 865 669 l 778 925 l 690 669 l 451 0 l 347 0 l 29 1083 l 143 1083 l 332 440 l 404 183 l 493 444 l 721 1083 l 836 1083 l 1064 444 l 1153 183 l 1225 440 l 1414 1083 l 1526 1083 l 1208 0 m 721 1389 l 832 1144 l 724 1144 l 610 1389 "},"X":{"ha":1014,"x_min":0,"x_max":0,"o":"m 442 563 l 88 1083 l 221 1083 l 418 788 l 507 656 l 596 788 l 793 1083 l 926 1083 l 572 563 l 957 0 l 821 0 l 606 324 l 507 469 l 408 324 l 193 0 l 57 0 "},"Y":{"ha":964,"x_min":0,"x_max":0,"o":"m 150 1083 l 364 738 l 483 542 l 603 738 l 817 1083 l 946 1083 l 538 438 l 538 0 l 426 0 l 426 438 l 18 1083 "},"Ý":{"ha":964,"x_min":0,"x_max":0,"o":"m 150 1083 l 364 738 l 483 542 l 603 738 l 817 1083 l 946 1083 l 538 438 l 538 0 l 426 0 l 426 438 l 18 1083 m 650 1389 l 536 1144 l 428 1144 l 539 1389 "},"Ŷ":{"ha":964,"x_min":0,"x_max":0,"o":"m 150 1083 l 364 738 l 483 542 l 603 738 l 817 1083 l 946 1083 l 538 438 l 538 0 l 426 0 l 426 438 l 18 1083 m 235 1144 l 438 1389 l 526 1389 l 729 1144 l 617 1144 l 482 1301 l 347 1144 "},"Ÿ":{"ha":964,"x_min":0,"x_max":0,"o":"m 150 1083 l 364 738 l 483 542 l 603 738 l 817 1083 l 946 1083 l 538 438 l 538 0 l 426 0 l 426 438 l 18 1083 m 271 1267 b 343 1339 271 1307 303 1339 b 415 1267 383 1339 415 1307 b 343 1194 415 1226 383 1194 b 271 1267 303 1194 271 1226 m 549 1267 b 621 1339 549 1307 581 1339 b 693 1267 661 1339 693 1307 b 621 1194 693 1226 661 1194 b 549 1267 581 1194 549 1226 "},"Ỳ":{"ha":964,"x_min":0,"x_max":0,"o":"m 150 1083 l 364 738 l 483 542 l 603 738 l 817 1083 l 946 1083 l 538 438 l 538 0 l 426 0 l 426 438 l 18 1083 m 425 1389 l 536 1144 l 428 1144 l 314 1389 "},"Ȳ":{"ha":964,"x_min":0,"x_max":0,"o":"m 150 1083 l 364 738 l 483 542 l 603 738 l 817 1083 l 946 1083 l 538 438 l 538 0 l 426 0 l 426 438 l 18 1083 m 663 1315 l 663 1218 l 301 1218 l 301 1315 "},"Z":{"ha":986,"x_min":0,"x_max":0,"o":"m 331 240 l 221 100 l 472 101 l 907 101 l 907 0 l 72 0 l 72 78 l 656 843 l 765 983 l 514 982 l 106 982 l 106 1083 l 914 1083 l 914 1006 "},"Ź":{"ha":986,"x_min":0,"x_max":0,"o":"m 331 240 l 221 100 l 472 101 l 907 101 l 907 0 l 72 0 l 72 78 l 656 843 l 765 983 l 514 982 l 106 982 l 106 1083 l 914 1083 l 914 1006 m 678 1389 l 564 1144 l 456 1144 l 567 1389 "},"Ž":{"ha":986,"x_min":0,"x_max":0,"o":"m 331 240 l 221 100 l 472 101 l 907 101 l 907 0 l 72 0 l 72 78 l 656 843 l 765 983 l 514 982 l 106 982 l 106 1083 l 914 1083 l 914 1006 m 375 1389 l 510 1231 l 644 1389 l 757 1389 l 554 1144 l 465 1144 l 263 1389 "},"Ż":{"ha":986,"x_min":0,"x_max":0,"o":"m 331 240 l 221 100 l 472 101 l 907 101 l 907 0 l 72 0 l 72 78 l 656 843 l 765 983 l 514 982 l 106 982 l 106 1083 l 914 1083 l 914 1006 m 438 1267 b 510 1339 438 1307 469 1339 b 582 1267 550 1339 582 1307 b 510 1194 582 1226 550 1194 b 438 1267 469 1194 438 1226 "},"a":{"ha":775,"x_min":0,"x_max":0,"o":"m 100 500 b 392 753 114 635 200 753 b 685 472 581 753 685 638 l 685 0 l 596 0 l 596 188 b 308 -17 564 72 460 -17 b 76 194 164 -17 76 75 b 319 425 76 328 144 394 l 578 469 l 578 483 b 390 658 578 585 515 658 b 196 500 265 658 206 592 m 189 201 b 332 78 189 126 247 78 b 578 325 496 78 578 213 l 578 385 l 342 344 b 189 201 228 325 189 279 "},"á":{"ha":775,"x_min":0,"x_max":0,"o":"m 554 1083 l 440 839 l 332 839 l 443 1083 m 100 500 b 392 753 114 635 200 753 b 685 472 581 753 685 638 l 685 0 l 596 0 l 596 188 b 308 -17 564 72 460 -17 b 76 194 164 -17 76 75 b 319 425 76 328 144 394 l 578 469 l 578 483 b 390 658 578 585 515 658 b 196 500 265 658 206 592 m 189 201 b 332 78 189 126 247 78 b 578 325 496 78 578 213 l 578 385 l 342 344 b 189 201 228 325 189 279 "},"ă":{"ha":775,"x_min":0,"x_max":0,"o":"m 386 822 b 142 1083 235 822 142 915 l 229 1083 b 386 907 229 965 292 907 b 543 1083 481 907 543 965 l 631 1083 b 386 822 631 915 538 822 m 100 500 b 392 753 114 635 200 753 b 685 472 581 753 685 638 l 685 0 l 596 0 l 596 188 b 308 -17 564 72 460 -17 b 76 194 164 -17 76 75 b 319 425 76 328 144 394 l 578 469 l 578 483 b 390 658 578 585 515 658 b 196 500 265 658 206 592 m 189 201 b 332 78 189 126 247 78 b 578 325 496 78 578 213 l 578 385 l 342 344 b 189 201 228 325 189 279 "},"â":{"ha":775,"x_min":0,"x_max":0,"o":"m 139 839 l 342 1083 l 431 1083 l 633 839 l 521 839 l 386 996 l 251 839 m 100 500 b 392 753 114 635 200 753 b 685 472 581 753 685 638 l 685 0 l 596 0 l 596 188 b 308 -17 564 72 460 -17 b 76 194 164 -17 76 75 b 319 425 76 328 144 394 l 578 469 l 578 483 b 390 658 578 585 515 658 b 196 500 265 658 206 592 m 189 201 b 332 78 189 126 247 78 b 578 325 496 78 578 213 l 578 385 l 342 344 b 189 201 228 325 189 279 "},"´":{"ha":678,"x_min":0,"x_max":0,"o":"m 507 1083 l 393 839 l 285 839 l 396 1083 "},"ä":{"ha":775,"x_min":0,"x_max":0,"o":"m 175 961 b 247 1033 175 1001 207 1033 b 319 961 288 1033 319 1001 b 247 889 319 921 288 889 b 175 961 207 889 175 921 m 453 961 b 525 1033 453 1001 485 1033 b 597 961 565 1033 597 1001 b 525 889 597 921 565 889 b 453 961 485 889 453 921 m 100 500 b 392 753 114 635 200 753 b 685 472 581 753 685 638 l 685 0 l 596 0 l 596 188 b 308 -17 564 72 460 -17 b 76 194 164 -17 76 75 b 319 425 76 328 144 394 l 578 469 l 578 483 b 390 658 578 585 515 658 b 196 500 265 658 206 592 m 189 201 b 332 78 189 126 247 78 b 578 325 496 78 578 213 l 578 385 l 342 344 b 189 201 228 325 189 279 "},"æ":{"ha":1342,"x_min":0,"x_max":0,"o":"m 100 500 b 392 753 114 635 200 753 b 651 589 532 753 617 689 b 929 753 708 690 808 753 b 1281 368 1124 753 1281 599 b 1278 331 1281 356 1279 338 l 685 331 b 942 78 692 176 789 78 b 1169 217 1081 78 1146 143 l 1271 217 b 942 -17 1243 93 1142 -17 b 610 183 792 -17 669 57 b 308 -17 557 57 453 -17 b 76 194 164 -17 76 75 b 339 415 76 328 161 415 l 578 415 l 578 483 b 390 658 578 585 515 658 b 196 500 265 658 206 592 m 1165 417 b 926 658 1157 563 1065 658 b 686 417 788 658 694 558 m 189 201 b 332 78 189 126 247 78 b 576 297 482 78 564 192 l 572 326 l 346 326 b 189 201 239 326 189 279 "},"à":{"ha":775,"x_min":0,"x_max":0,"o":"m 329 1083 l 440 839 l 332 839 l 218 1083 m 100 500 b 392 753 114 635 200 753 b 685 472 581 753 685 638 l 685 0 l 596 0 l 596 188 b 308 -17 564 72 460 -17 b 76 194 164 -17 76 75 b 319 425 76 328 144 394 l 578 469 l 578 483 b 390 658 578 585 515 658 b 196 500 265 658 206 592 m 189 201 b 332 78 189 126 247 78 b 578 325 496 78 578 213 l 578 385 l 342 344 b 189 201 228 325 189 279 "},"ā":{"ha":775,"x_min":0,"x_max":0,"o":"m 567 1010 l 567 913 l 206 913 l 206 1010 m 100 500 b 392 753 114 635 200 753 b 685 472 581 753 685 638 l 685 0 l 596 0 l 596 188 b 308 -17 564 72 460 -17 b 76 194 164 -17 76 75 b 319 425 76 328 144 394 l 578 469 l 578 483 b 390 658 578 585 515 658 b 196 500 265 658 206 592 m 189 201 b 332 78 189 126 247 78 b 578 325 496 78 578 213 l 578 385 l 342 344 b 189 201 228 325 189 279 "},"&":{"ha":1024,"x_min":0,"x_max":0,"o":"m 404 1100 b 679 843 576 1100 679 993 b 425 558 679 710 579 619 l 421 556 l 725 239 b 822 553 793 333 822 453 l 932 553 b 800 163 932 432 893 279 l 957 0 l 826 0 l 733 93 b 414 -17 656 26 550 -17 b 61 293 196 -17 61 111 b 256 583 61 429 128 514 b 129 843 183 660 129 738 b 404 1100 129 993 232 1100 m 414 83 b 660 168 517 83 599 117 l 325 511 b 171 293 231 460 171 397 b 414 83 171 158 275 83 m 239 843 b 351 628 239 768 279 704 l 365 635 b 569 843 508 693 569 756 b 404 1000 569 932 507 1000 b 239 843 300 1000 239 932 "},"〈":{"ha":500,"x_min":0,"x_max":0,"o":"m 457 -222 l 344 -222 l 63 472 l 344 1167 l 457 1167 l 175 472 "},"〉":{"ha":500,"x_min":0,"x_max":0,"o":"m 43 1167 l 156 1167 l 438 472 l 156 -222 l 43 -222 l 325 472 "},"ą":{"ha":775,"x_min":0,"x_max":0,"o":"m 788 -253 b 646 -294 764 -269 715 -294 b 479 -144 535 -294 479 -219 b 596 28 479 -58 540 -4 l 596 188 b 308 -17 564 72 460 -17 b 76 194 164 -17 76 75 b 319 425 76 328 144 394 l 578 469 l 578 483 b 390 658 578 585 515 658 b 196 500 265 658 206 592 l 100 500 b 392 753 114 635 200 753 b 685 472 581 753 685 638 l 685 0 b 565 -131 625 -24 565 -62 b 660 -217 565 -183 607 -217 b 754 -187 706 -217 736 -200 m 189 201 b 332 78 189 126 247 78 b 578 325 496 78 578 213 l 578 385 l 342 344 b 189 201 228 325 189 279 "},"≈":{"ha":903,"x_min":0,"x_max":0,"o":"m 825 817 b 622 588 825 679 736 588 b 288 738 469 588 393 738 b 183 614 225 738 183 692 l 78 614 b 281 843 78 751 167 843 b 615 693 433 843 510 693 b 719 817 678 693 719 739 m 825 469 b 622 240 825 332 736 240 b 288 390 469 240 393 390 b 183 267 225 390 183 344 l 78 267 b 281 496 78 404 167 496 b 615 346 433 496 510 346 b 719 469 678 346 719 392 "},"å":{"ha":775,"x_min":0,"x_max":0,"o":"m 247 961 b 386 1100 247 1038 310 1100 b 525 961 463 1100 525 1038 b 386 822 525 885 463 822 b 247 961 310 822 247 885 m 308 961 b 386 883 308 918 343 883 b 464 961 429 883 464 918 b 386 1039 464 1004 429 1039 b 308 961 343 1039 308 1004 m 100 500 b 392 753 114 635 200 753 b 685 472 581 753 685 638 l 685 0 l 596 0 l 596 188 b 308 -17 564 72 460 -17 b 76 194 164 -17 76 75 b 319 425 76 328 144 394 l 578 469 l 578 483 b 390 658 578 585 515 658 b 196 500 265 658 206 592 m 189 201 b 332 78 189 126 247 78 b 578 325 496 78 578 213 l 578 385 l 342 344 b 189 201 228 325 189 279 "},"^":{"ha":903,"x_min":0,"x_max":0,"o":"m 450 975 l 181 336 l 79 336 l 401 1083 l 500 1083 l 822 336 l 721 336 "},"~":{"ha":903,"x_min":0,"x_max":0,"o":"m 825 643 b 622 414 825 506 736 414 b 288 564 469 414 393 564 b 183 440 225 564 183 518 l 78 440 b 281 669 78 578 167 669 b 615 519 433 669 510 519 b 719 643 678 519 719 565 "},"*":{"ha":656,"x_min":0,"x_max":0,"o":"m 382 1083 l 364 857 l 575 943 l 608 840 l 389 786 l 535 613 l 447 549 l 328 743 l 208 549 l 121 613 l 267 786 l 47 840 l 81 943 l 290 857 l 274 1083 "},"@":{"ha":1435,"x_min":0,"x_max":0,"o":"m 731 -214 b 42 442 331 -214 42 76 b 729 1097 42 806 336 1097 b 1394 522 1110 1097 1394 894 b 1100 135 1394 250 1251 135 b 906 276 1004 135 925 182 b 664 133 857 188 782 133 b 369 442 503 133 369 254 b 663 750 369 629 503 750 b 889 613 786 750 861 686 l 889 736 l 974 736 l 974 350 b 1101 226 974 271 1025 226 b 1296 522 1201 226 1296 299 b 729 1010 1296 843 1057 1010 b 140 442 394 1010 140 756 b 731 -126 140 126 388 -126 b 1183 60 1019 -126 1143 -11 l 1301 60 b 731 -214 1244 -54 1093 -214 m 886 442 b 681 661 886 576 804 661 b 468 442 568 661 468 583 b 681 222 468 300 568 222 b 886 442 804 222 886 307 "},"ã":{"ha":775,"x_min":0,"x_max":0,"o":"m 275 1060 b 489 957 399 1060 404 957 b 557 1040 531 957 557 985 l 644 1040 b 497 863 644 929 588 863 b 283 965 374 863 368 965 b 215 882 242 965 215 938 l 128 882 b 275 1060 128 993 185 1060 m 100 500 b 392 753 114 635 200 753 b 685 472 581 753 685 638 l 685 0 l 596 0 l 596 188 b 308 -17 564 72 460 -17 b 76 194 164 -17 76 75 b 319 425 76 328 144 394 l 578 469 l 578 483 b 390 658 578 585 515 658 b 196 500 265 658 206 592 m 189 201 b 332 78 189 126 247 78 b 578 325 496 78 578 213 l 578 385 l 342 344 b 189 201 228 325 189 279 "},"b":{"ha":922,"x_min":0,"x_max":0,"o":"m 861 368 b 506 -17 861 132 694 -17 b 193 203 349 -17 226 86 l 193 0 l 103 0 l 103 1111 l 211 1111 l 211 564 b 506 753 246 656 349 753 b 861 368 690 753 861 604 m 211 368 b 482 85 211 183 342 85 b 751 368 614 85 751 174 b 482 651 751 563 614 651 b 211 368 342 651 211 553 "},"\\":{"ha":500,"x_min":0,"x_max":0,"o":"m 369 -222 l 51 1167 l 160 1167 l 478 -222 "},"|":{"ha":389,"x_min":0,"x_max":0,"o":"m 246 1167 l 246 -222 l 143 -222 l 143 1167 "},"ḃ":{"ha":922,"x_min":0,"x_max":0,"o":"m 85 1267 b 157 1339 85 1307 117 1339 b 229 1267 197 1339 229 1307 b 157 1194 229 1226 197 1194 b 85 1267 117 1194 85 1226 m 861 368 b 506 -17 861 132 694 -17 b 193 203 349 -17 226 86 l 193 0 l 103 0 l 103 1111 l 211 1111 l 211 564 b 506 753 246 656 349 753 b 861 368 690 753 861 604 m 211 368 b 482 85 211 183 342 85 b 751 368 614 85 751 174 b 482 651 751 563 614 651 b 211 368 342 651 211 553 "},"{":{"ha":522,"x_min":0,"x_max":0,"o":"m 99 524 b 238 654 178 524 238 568 b 189 953 238 769 189 828 b 417 1167 189 1078 281 1167 l 458 1167 l 458 1065 l 426 1065 b 292 926 349 1065 292 1011 b 339 629 292 804 339 753 b 218 472 339 538 282 483 b 339 315 282 461 339 407 b 292 18 339 192 292 140 b 426 -121 292 -67 349 -121 l 458 -121 l 458 -222 l 417 -222 b 189 -8 281 -222 189 -133 b 238 290 189 117 238 175 b 99 421 238 376 178 421 l 74 421 l 74 524 "},"}":{"ha":522,"x_min":0,"x_max":0,"o":"m 424 421 b 285 290 344 421 285 376 b 333 -8 285 175 333 117 b 106 -222 333 -133 242 -222 l 64 -222 l 64 -121 l 96 -121 b 231 18 174 -121 231 -67 b 183 315 231 140 183 192 b 304 472 183 407 240 461 b 183 629 240 483 183 538 b 231 926 183 753 231 804 b 96 1065 231 1011 174 1065 l 64 1065 l 64 1167 l 106 1167 b 333 953 242 1167 333 1078 b 285 654 333 828 285 769 b 424 524 285 568 344 524 l 449 524 l 449 421 "},"[":{"ha":522,"x_min":0,"x_max":0,"o":"m 458 1167 l 458 1065 l 222 1065 l 222 -121 l 458 -121 l 458 -222 l 119 -222 l 119 1167 "},"]":{"ha":522,"x_min":0,"x_max":0,"o":"m 403 1167 l 403 -222 l 64 -222 l 64 -121 l 300 -121 l 300 1065 l 64 1065 l 64 1167 "},"˘":{"ha":678,"x_min":0,"x_max":0,"o":"m 339 822 b 94 1083 188 822 94 915 l 182 1083 b 339 907 182 965 244 907 b 496 1083 433 907 496 965 l 583 1083 b 339 822 583 915 490 822 "},"¦":{"ha":389,"x_min":0,"x_max":0,"o":"m 246 403 l 246 -222 l 143 -222 l 143 403 m 246 1167 l 246 542 l 143 542 l 143 1167 "},"•":{"ha":653,"x_min":0,"x_max":0,"o":"m 76 467 b 326 717 76 604 189 717 b 576 467 464 717 576 604 b 326 217 576 329 464 217 b 76 467 189 217 76 329 "},"c":{"ha":861,"x_min":0,"x_max":0,"o":"m 61 368 b 444 753 61 604 233 753 b 807 450 683 753 789 600 l 697 450 b 444 651 682 543 611 651 b 171 368 292 651 171 542 b 444 85 171 194 292 85 b 697 286 611 85 682 193 l 807 286 b 444 -17 789 136 683 -17 b 61 368 233 -17 61 132 "},"ć":{"ha":861,"x_min":0,"x_max":0,"o":"m 610 1083 l 496 839 l 388 839 l 499 1083 m 61 368 b 444 753 61 604 233 753 b 807 450 683 753 789 600 l 697 450 b 444 651 682 543 611 651 b 171 368 292 651 171 542 b 444 85 171 194 292 85 b 697 286 611 85 682 193 l 807 286 b 444 -17 789 136 683 -17 b 61 368 233 -17 61 132 "},"ˇ":{"ha":678,"x_min":0,"x_max":0,"o":"m 204 1083 l 339 925 l 474 1083 l 586 1083 l 383 839 l 294 839 l 92 1083 "},"č":{"ha":861,"x_min":0,"x_max":0,"o":"m 307 1083 l 442 925 l 576 1083 l 689 1083 l 486 839 l 397 839 l 194 1083 m 61 368 b 444 753 61 604 233 753 b 807 450 683 753 789 600 l 697 450 b 444 651 682 543 611 651 b 171 368 292 651 171 542 b 444 85 171 194 292 85 b 697 286 611 85 682 193 l 807 286 b 444 -17 789 136 683 -17 b 61 368 233 -17 61 132 "},"ç":{"ha":861,"x_min":0,"x_max":0,"o":"m 339 -187 b 438 -218 357 -200 394 -218 b 519 -167 486 -218 519 -200 b 397 -93 519 -121 457 -100 l 406 -14 b 61 368 213 1 61 146 b 444 753 61 604 233 753 b 807 450 683 753 789 600 l 697 450 b 444 651 682 543 611 651 b 171 368 292 651 171 542 b 444 85 171 194 292 85 b 697 286 611 85 682 193 l 807 286 b 479 -15 789 143 693 -1 l 475 -50 b 604 -178 544 -67 604 -104 b 446 -294 604 -242 547 -294 b 307 -251 376 -294 331 -268 "},"ĉ":{"ha":861,"x_min":0,"x_max":0,"o":"m 194 839 l 397 1083 l 486 1083 l 689 839 l 576 839 l 442 996 l 307 839 m 61 368 b 444 753 61 604 233 753 b 807 450 683 753 789 600 l 697 450 b 444 651 682 543 611 651 b 171 368 292 651 171 542 b 444 85 171 194 292 85 b 697 286 611 85 682 193 l 807 286 b 444 -17 789 136 683 -17 b 61 368 233 -17 61 132 "},"ċ":{"ha":861,"x_min":0,"x_max":0,"o":"m 369 961 b 442 1033 369 1001 401 1033 b 514 961 482 1033 514 1001 b 442 889 514 921 482 889 b 369 961 401 889 369 921 m 61 368 b 444 753 61 604 233 753 b 807 450 683 753 789 600 l 697 450 b 444 651 682 543 611 651 b 171 368 292 651 171 542 b 444 85 171 194 292 85 b 697 286 611 85 682 193 l 807 286 b 444 -17 789 136 683 -17 b 61 368 233 -17 61 132 "},"¸":{"ha":676,"x_min":0,"x_max":0,"o":"m 236 -187 b 335 -218 254 -200 292 -218 b 417 -167 383 -218 417 -200 b 294 -93 417 -121 354 -100 l 306 0 l 378 0 l 372 -50 b 501 -178 442 -67 501 -104 b 343 -294 501 -242 444 -294 b 204 -251 274 -294 228 -268 "},"¢":{"ha":903,"x_min":0,"x_max":0,"o":"m 507 958 b 831 692 699 947 814 833 l 719 692 b 507 858 707 779 626 847 l 507 225 b 719 392 626 236 707 304 l 831 392 b 507 124 814 250 699 136 l 507 0 l 418 0 l 418 126 b 67 542 210 150 67 306 b 418 956 67 776 210 932 l 418 1083 l 507 1083 m 176 542 b 418 228 176 369 274 251 l 418 856 b 176 542 274 832 176 713 "},"ˆ":{"ha":678,"x_min":0,"x_max":0,"o":"m 92 839 l 294 1083 l 383 1083 l 586 839 l 474 839 l 339 996 l 204 839 "},":":{"ha":353,"x_min":0,"x_max":0,"o":"m 104 63 b 176 135 104 103 136 135 b 249 63 217 135 249 103 b 176 -10 249 24 217 -10 b 104 63 136 -10 104 24 m 104 568 b 176 640 104 608 136 640 b 249 568 217 640 249 608 b 176 496 249 528 217 496 b 104 568 136 496 104 528 "},",":{"ha":353,"x_min":0,"x_max":0,"o":"m 60 -118 b 176 -10 129 -97 169 -62 b 104 63 136 -10 104 24 b 176 135 104 103 136 135 b 256 36 217 135 256 101 b 60 -185 256 -67 183 -161 "},"©":{"ha":903,"x_min":0,"x_max":0,"o":"m 122 542 b 611 53 122 253 347 53 b 1100 542 875 53 1100 253 b 611 1031 1100 831 875 1031 b 122 542 347 1031 122 831 m 1167 542 b 611 -14 1167 217 917 -14 b 56 542 306 -14 56 217 b 611 1097 56 867 306 1097 b 1167 542 917 1097 1167 867 m 268 542 b 611 885 268 749 421 885 b 933 647 807 885 913 771 l 817 647 b 611 783 800 718 739 783 b 378 542 479 783 378 690 b 611 300 378 393 479 300 b 817 436 739 300 800 365 l 933 436 b 611 199 913 313 807 199 b 268 542 421 199 268 335 "},"d":{"ha":922,"x_min":0,"x_max":0,"o":"m 61 368 b 417 753 61 604 232 753 b 711 564 574 753 676 656 l 711 1111 l 819 1111 l 819 0 l 729 0 l 729 203 b 417 -17 696 86 574 -17 b 61 368 228 -17 61 132 m 711 368 b 440 651 711 553 581 651 b 171 368 308 651 171 563 b 440 85 171 174 308 85 b 711 368 581 85 711 183 "},"†":{"ha":656,"x_min":0,"x_max":0,"o":"m 292 769 l 50 751 l 50 860 l 292 842 l 274 1083 l 382 1083 l 364 842 l 606 860 l 606 751 l 364 769 l 382 528 l 361 250 l 294 250 l 274 528 "},"‡":{"ha":656,"x_min":0,"x_max":0,"o":"m 374 681 l 364 592 l 606 610 l 606 501 l 364 519 l 382 278 l 361 0 l 294 0 l 274 278 l 292 519 l 50 501 l 50 610 l 290 592 l 282 681 m 50 860 l 292 842 l 274 1083 l 382 1083 l 364 842 l 606 860 l 606 751 l 364 769 l 374 681 l 282 681 l 290 769 l 50 751 "},"ď":{"ha":922,"x_min":0,"x_max":0,"o":"m 1028 1111 l 994 850 l 911 850 l 940 1111 m 61 368 b 417 753 61 604 232 753 b 711 564 574 753 676 656 l 711 1111 l 819 1111 l 819 0 l 729 0 l 729 203 b 417 -17 696 86 574 -17 b 61 368 228 -17 61 132 m 711 368 b 440 651 711 553 581 651 b 171 368 308 651 171 563 b 440 85 171 174 308 85 b 711 368 581 85 711 183 "},"đ":{"ha":922,"x_min":0,"x_max":0,"o":"m 61 368 b 417 753 61 604 232 753 b 711 564 574 753 676 656 l 711 874 l 471 874 l 471 971 l 711 971 l 711 1111 l 819 1111 l 819 971 l 958 971 l 958 874 l 819 874 l 819 0 l 729 0 l 729 203 b 417 -17 696 86 574 -17 b 61 368 228 -17 61 132 m 711 368 b 440 651 711 553 581 651 b 171 368 308 651 171 563 b 440 85 171 174 308 85 b 711 368 581 85 711 183 "},"ḋ":{"ha":922,"x_min":0,"x_max":0,"o":"m 693 1267 b 765 1339 693 1307 725 1339 b 838 1267 806 1339 838 1307 b 765 1194 838 1226 806 1194 b 693 1267 725 1194 693 1226 m 61 368 b 417 753 61 604 232 753 b 711 564 574 753 676 656 l 711 1111 l 819 1111 l 819 0 l 729 0 l 729 203 b 417 -17 696 86 574 -17 b 61 368 228 -17 61 132 m 711 368 b 440 651 711 553 581 651 b 171 368 308 651 171 563 b 440 85 171 174 308 85 b 711 368 581 85 711 183 "},"°":{"ha":625,"x_min":0,"x_max":0,"o":"m 44 832 b 313 1100 44 979 165 1100 b 581 832 460 1100 581 979 b 313 564 581 685 460 564 b 44 832 165 564 44 685 m 136 832 b 313 656 136 735 215 656 b 489 832 410 656 489 735 b 313 1008 489 929 410 1008 b 136 832 215 1008 136 929 "},"¨":{"ha":678,"x_min":0,"x_max":0,"o":"m 128 961 b 200 1033 128 1001 160 1033 b 272 961 240 1033 272 1001 b 200 889 272 921 240 889 b 128 961 160 889 128 921 m 406 961 b 478 1033 406 1001 438 1033 b 550 961 518 1033 550 1001 b 478 889 550 921 518 889 b 406 961 438 889 406 921 "},"÷":{"ha":903,"x_min":0,"x_max":0,"o":"m 78 492 l 78 592 l 825 592 l 825 492 m 379 224 b 451 296 379 264 411 296 b 524 224 492 296 524 264 b 451 151 524 183 492 151 b 379 224 411 151 379 183 m 379 860 b 451 932 379 900 411 932 b 524 860 492 932 524 900 b 451 788 524 821 492 788 b 379 860 411 788 379 821 "},"$":{"ha":903,"x_min":0,"x_max":0,"o":"m 497 -194 l 408 -194 l 408 -14 b 74 314 179 1 79 140 l 182 314 b 408 86 183 203 251 101 l 408 522 b 114 807 226 561 114 635 b 408 1097 114 976 229 1083 l 408 1278 l 497 1278 l 497 1097 b 793 799 722 1079 790 928 l 686 799 b 497 997 682 890 633 981 l 497 608 b 829 297 729 567 829 483 b 497 -15 829 121 694 0 m 719 297 b 497 506 719 406 667 468 l 497 85 b 719 297 636 100 719 183 m 224 811 b 408 625 224 724 268 661 l 408 997 b 224 811 311 985 224 926 "},"˙":{"ha":678,"x_min":0,"x_max":0,"o":"m 267 961 b 339 1033 267 1001 299 1033 b 411 961 379 1033 411 1001 b 339 889 411 921 379 889 b 267 961 299 889 267 921 "},"ı":{"ha":353,"x_min":0,"x_max":0,"o":"m 122 736 l 231 736 l 231 0 l 122 0 "},"ȷ":{"ha":353,"x_min":0,"x_max":0,"o":"m 231 -124 b 46 -294 231 -221 160 -294 b -129 -136 -71 -294 -125 -215 l -28 -136 b 47 -200 -25 -168 -1 -200 b 122 -124 94 -200 122 -167 l 122 736 l 231 736 "},"‖":{"ha":600,"x_min":0,"x_max":0,"o":"m 246 1167 l 246 -222 l 143 -222 l 143 1167 m 457 1167 l 457 -222 l 354 -222 l 354 1167 "},"e":{"ha":832,"x_min":0,"x_max":0,"o":"m 432 -17 b 61 368 219 -17 61 133 b 419 753 61 596 226 753 b 771 368 614 753 771 599 b 768 331 771 356 769 338 l 175 331 b 432 78 182 176 279 78 b 660 217 571 78 636 143 l 761 217 b 432 -17 733 93 632 -17 m 656 417 b 417 658 647 563 556 658 b 176 417 278 658 185 558 "},"é":{"ha":832,"x_min":0,"x_max":0,"o":"m 585 1083 l 471 839 l 363 839 l 474 1083 m 432 -17 b 61 368 219 -17 61 133 b 419 753 61 596 226 753 b 771 368 614 753 771 599 b 768 331 771 356 769 338 l 175 331 b 432 78 182 176 279 78 b 660 217 571 78 636 143 l 761 217 b 432 -17 733 93 632 -17 m 656 417 b 417 658 647 563 556 658 b 176 417 278 658 185 558 "},"ĕ":{"ha":832,"x_min":0,"x_max":0,"o":"m 419 822 b 175 1083 268 822 175 915 l 263 1083 b 419 907 263 965 325 907 b 576 1083 514 907 576 965 l 664 1083 b 419 822 664 915 571 822 m 656 417 b 417 658 647 563 556 658 b 176 417 278 658 185 558 m 432 -17 b 61 368 219 -17 61 133 b 419 753 61 596 226 753 b 771 368 614 753 771 599 b 768 331 771 356 769 338 l 175 331 b 432 78 182 176 279 78 b 660 217 571 78 636 143 l 761 217 b 432 -17 733 93 632 -17 "},"ě":{"ha":832,"x_min":0,"x_max":0,"o":"m 285 1083 l 419 925 l 554 1083 l 667 1083 l 464 839 l 375 839 l 172 1083 m 656 417 b 417 658 647 563 556 658 b 176 417 278 658 185 558 m 432 -17 b 61 368 219 -17 61 133 b 419 753 61 596 226 753 b 771 368 614 753 771 599 b 768 331 771 356 769 338 l 175 331 b 432 78 182 176 279 78 b 660 217 571 78 636 143 l 761 217 b 432 -17 733 93 632 -17 "},"ê":{"ha":832,"x_min":0,"x_max":0,"o":"m 172 839 l 375 1083 l 464 1083 l 667 839 l 554 839 l 419 996 l 285 839 m 656 417 b 417 658 647 563 556 658 b 176 417 278 658 185 558 m 432 -17 b 61 368 219 -17 61 133 b 419 753 61 596 226 753 b 771 368 614 753 771 599 b 768 331 771 356 769 338 l 175 331 b 432 78 182 176 279 78 b 660 217 571 78 636 143 l 761 217 b 432 -17 733 93 632 -17 "},"ë":{"ha":832,"x_min":0,"x_max":0,"o":"m 208 961 b 281 1033 208 1001 240 1033 b 353 961 321 1033 353 1001 b 281 889 353 921 321 889 b 208 961 240 889 208 921 m 486 961 b 558 1033 486 1001 518 1033 b 631 961 599 1033 631 1001 b 558 889 631 921 599 889 b 486 961 518 889 486 921 m 656 417 b 417 658 647 563 556 658 b 176 417 278 658 185 558 m 432 -17 b 61 368 219 -17 61 133 b 419 753 61 596 226 753 b 771 368 614 753 771 599 b 768 331 771 356 769 338 l 175 331 b 432 78 182 176 279 78 b 660 217 571 78 636 143 l 761 217 b 432 -17 733 93 632 -17 "},"ė":{"ha":832,"x_min":0,"x_max":0,"o":"m 347 961 b 419 1033 347 1001 379 1033 b 492 961 460 1033 492 1001 b 419 889 492 921 460 889 b 347 961 379 889 347 921 m 656 417 b 417 658 647 563 556 658 b 176 417 278 658 185 558 m 432 -17 b 61 368 219 -17 61 133 b 419 753 61 596 226 753 b 771 368 614 753 771 599 b 768 331 771 356 769 338 l 175 331 b 432 78 182 176 279 78 b 660 217 571 78 636 143 l 761 217 b 432 -17 733 93 632 -17 "},"è":{"ha":832,"x_min":0,"x_max":0,"o":"m 363 1083 l 474 839 l 365 839 l 251 1083 m 656 417 b 417 658 647 563 556 658 b 176 417 278 658 185 558 m 432 -17 b 61 368 219 -17 61 133 b 419 753 61 596 226 753 b 771 368 614 753 771 599 b 768 331 771 356 769 338 l 175 331 b 432 78 182 176 279 78 b 660 217 571 78 636 143 l 761 217 b 432 -17 733 93 632 -17 "},"…":{"ha":1306,"x_min":0,"x_max":0,"o":"m 163 63 b 235 135 163 103 194 135 b 307 63 275 135 307 103 b 235 -10 307 24 275 -10 b 163 63 194 -10 163 24 m 579 63 b 651 135 579 103 611 135 b 724 63 692 135 724 103 b 651 -10 724 24 692 -10 b 579 63 611 -10 579 24 m 996 63 b 1068 135 996 103 1028 135 b 1140 63 1108 135 1140 103 b 1068 -10 1140 24 1108 -10 b 996 63 1028 -10 996 24 "},"ē":{"ha":832,"x_min":0,"x_max":0,"o":"m 600 1010 l 600 913 l 239 913 l 239 1010 m 656 417 b 417 658 647 563 556 658 b 176 417 278 658 185 558 m 432 -17 b 61 368 219 -17 61 133 b 419 753 61 596 226 753 b 771 368 614 753 771 599 b 768 331 771 356 769 338 l 175 331 b 432 78 182 176 279 78 b 660 217 571 78 636 143 l 761 217 b 432 -17 733 93 632 -17 "},"—":{"ha":1306,"x_min":0,"x_max":0,"o":"m 67 417 l 67 515 l 1239 515 l 1239 417 "},"–":{"ha":653,"x_min":0,"x_max":0,"o":"m 67 417 l 67 515 l 586 515 l 586 417 "},"ŋ":{"ha":847,"x_min":0,"x_max":0,"o":"m 193 556 b 475 753 226 671 326 753 b 757 479 650 753 757 625 l 757 -124 b 572 -294 757 -221 685 -294 b 397 -136 456 -294 401 -215 l 499 -136 b 572 -200 501 -168 525 -200 b 649 -124 621 -200 649 -167 l 649 447 b 444 651 649 565 571 651 b 211 425 301 651 211 551 l 211 0 l 103 0 l 103 736 l 193 736 "},"ę":{"ha":832,"x_min":0,"x_max":0,"o":"m 658 -253 b 517 -294 635 -269 586 -294 b 350 -144 406 -294 350 -219 b 407 -15 350 -89 375 -47 b 61 368 207 -4 61 142 b 419 753 61 596 226 753 b 771 368 614 753 771 599 b 768 331 771 356 769 338 l 175 331 b 432 78 182 176 279 78 b 660 217 571 78 636 143 l 761 217 b 551 -1 739 121 674 33 b 436 -131 493 -25 436 -64 b 531 -217 436 -183 478 -217 b 625 -187 576 -217 607 -200 m 656 417 b 417 658 647 563 556 658 b 176 417 278 658 185 558 "},"=":{"ha":903,"x_min":0,"x_max":0,"o":"m 78 339 l 78 438 l 825 438 l 825 339 m 78 646 l 78 744 l 825 744 l 825 646 "},"ð":{"ha":881,"x_min":0,"x_max":0,"o":"m 819 378 b 440 -17 819 131 656 -17 b 61 368 225 -17 61 133 b 429 753 61 603 229 753 b 631 692 506 753 575 731 b 385 924 569 793 481 869 l 153 790 l 108 865 l 292 971 b 90 1029 222 1000 151 1019 l 117 1128 b 399 1032 200 1114 300 1083 l 565 1128 l 608 1053 l 485 982 b 819 378 667 861 819 665 m 440 85 b 710 368 590 85 710 192 b 440 651 710 544 590 651 b 171 368 289 651 171 544 b 440 85 171 192 289 85 "},"!":{"ha":353,"x_min":0,"x_max":0,"o":"m 107 1083 l 244 1083 l 214 307 l 138 307 m 104 63 b 176 135 104 103 136 135 b 249 63 217 135 249 103 b 176 -10 249 24 217 -10 b 104 63 136 -10 104 24 "},"¡":{"ha":353,"x_min":0,"x_max":0,"o":"m 217 436 l 244 -278 l 107 -278 l 135 436 m 249 681 b 176 608 249 640 217 608 b 104 681 136 608 104 640 b 176 753 104 719 136 753 b 249 681 217 753 249 719 "},"f":{"ha":558,"x_min":0,"x_max":0,"o":"m 286 639 l 286 0 l 178 0 l 178 639 l 43 639 l 43 736 l 178 736 l 178 924 b 390 1126 178 1046 265 1126 b 590 940 524 1126 583 1033 l 494 940 b 392 1033 490 990 457 1033 b 286 924 326 1033 286 989 l 286 736 l 506 736 l 506 639 "},"ḟ":{"ha":558,"x_min":0,"x_max":0,"o":"m 286 639 l 286 0 l 178 0 l 178 639 l 43 639 l 43 736 l 178 736 l 178 924 b 390 1126 178 1046 265 1126 b 590 940 524 1126 583 1033 l 494 940 b 392 1033 490 990 457 1033 b 286 924 326 1033 286 989 l 286 736 l 506 736 l 506 639 m 289 1294 b 361 1367 289 1335 321 1367 b 433 1294 401 1367 433 1335 b 361 1222 433 1254 401 1222 b 289 1294 321 1222 289 1254 "},"‒":{"ha":903,"x_min":0,"x_max":0,"o":"m 67 417 l 67 515 l 836 515 l 836 417 "},"ƒ":{"ha":903,"x_min":0,"x_max":0,"o":"m 742 796 b 547 999 739 913 683 999 b 357 797 421 999 357 904 b 414 592 357 725 381 658 l 721 592 l 721 492 l 471 492 b 679 11 564 343 679 194 b 376 -296 679 -160 564 -296 b 74 8 167 -296 76 -169 l 183 8 b 376 -194 186 -108 242 -194 b 567 7 504 -194 567 -100 b 340 492 567 179 435 326 l 121 492 l 121 592 l 290 592 b 246 793 263 654 246 721 b 547 1100 246 964 361 1100 b 851 796 757 1100 847 974 "},"₣":{"ha":903,"x_min":0,"x_max":0,"o":"m 211 686 l 211 1083 l 835 1083 l 835 983 l 321 983 l 321 686 l 733 686 l 733 601 l 321 601 l 321 482 l 733 482 l 733 397 l 321 397 l 321 0 l 211 0 l 211 397 l 50 397 l 50 482 l 211 482 l 211 601 l 50 601 l 50 686 "},"g":{"ha":907,"x_min":0,"x_max":0,"o":"m 696 382 b 433 650 696 564 568 650 b 171 382 301 650 171 558 b 433 114 171 206 301 114 b 696 382 568 114 696 200 m 696 172 b 418 13 653 85 553 13 b 61 382 226 13 61 163 b 418 751 61 601 226 751 b 708 569 560 751 668 672 l 708 736 l 804 736 l 804 22 b 436 -294 804 -172 658 -294 b 82 -54 214 -294 96 -175 l 189 -54 b 436 -200 203 -119 268 -200 b 696 15 604 -200 696 -112 "},"ğ":{"ha":907,"x_min":0,"x_max":0,"o":"m 440 822 b 196 1083 289 822 196 915 l 283 1083 b 440 907 283 965 346 907 b 597 1083 535 907 597 965 l 685 1083 b 440 822 685 915 592 822 m 696 382 b 433 650 696 564 568 650 b 171 382 301 650 171 558 b 433 114 171 206 301 114 b 696 382 568 114 696 200 m 696 172 b 418 13 653 85 553 13 b 61 382 226 13 61 163 b 418 751 61 601 226 751 b 708 569 560 751 668 672 l 708 736 l 804 736 l 804 22 b 436 -294 804 -172 658 -294 b 82 -54 214 -294 96 -175 l 189 -54 b 436 -200 203 -119 268 -200 b 696 15 604 -200 696 -112 "},"ĝ":{"ha":907,"x_min":0,"x_max":0,"o":"m 193 839 l 396 1083 l 485 1083 l 688 839 l 575 839 l 440 996 l 306 839 m 696 382 b 433 650 696 564 568 650 b 171 382 301 650 171 558 b 433 114 171 206 301 114 b 696 382 568 114 696 200 m 696 172 b 418 13 653 85 553 13 b 61 382 226 13 61 163 b 418 751 61 601 226 751 b 708 569 560 751 668 672 l 708 736 l 804 736 l 804 22 b 436 -294 804 -172 658 -294 b 82 -54 214 -294 96 -175 l 189 -54 b 436 -200 203 -119 268 -200 b 696 15 604 -200 696 -112 "},"ģ":{"ha":907,"x_min":0,"x_max":0,"o":"m 528 1025 b 432 963 479 1015 440 996 b 494 899 468 961 494 932 b 431 835 494 864 467 835 b 358 921 393 835 358 865 b 528 1086 358 999 408 1069 m 696 382 b 433 650 696 564 568 650 b 171 382 301 650 171 558 b 433 114 171 206 301 114 b 696 382 568 114 696 200 m 696 172 b 418 13 653 85 553 13 b 61 382 226 13 61 163 b 418 751 61 601 226 751 b 708 569 560 751 668 672 l 708 736 l 804 736 l 804 22 b 436 -294 804 -172 658 -294 b 82 -54 214 -294 96 -175 l 189 -54 b 436 -200 203 -119 268 -200 b 696 15 604 -200 696 -112 "},"ġ":{"ha":907,"x_min":0,"x_max":0,"o":"m 368 961 b 440 1033 368 1001 400 1033 b 513 961 481 1033 513 1001 b 440 889 513 921 481 889 b 368 961 400 889 368 921 m 696 382 b 433 650 696 564 568 650 b 171 382 301 650 171 558 b 433 114 171 206 301 114 b 696 382 568 114 696 200 m 696 172 b 418 13 653 85 553 13 b 61 382 226 13 61 163 b 418 751 61 601 226 751 b 708 569 560 751 668 672 l 708 736 l 804 736 l 804 22 b 436 -294 804 -172 658 -294 b 82 -54 214 -294 96 -175 l 189 -54 b 436 -200 203 -119 268 -200 b 696 15 604 -200 696 -112 "},"ß":{"ha":814,"x_min":0,"x_max":0,"o":"m 674 888 b 557 693 674 781 615 731 b 451 561 500 654 451 626 b 574 439 451 490 508 465 b 768 200 696 392 768 333 b 535 -17 768 92 688 -17 b 310 233 372 -17 297 94 l 407 233 b 533 75 403 147 440 75 b 660 199 622 75 660 136 b 529 346 660 274 619 308 b 343 551 419 389 343 433 b 461 735 343 649 399 694 b 565 879 515 771 565 808 b 390 1033 565 960 510 1033 b 213 856 271 1033 213 953 l 213 0 l 104 0 l 104 864 b 390 1128 104 1008 214 1128 b 674 888 565 1128 674 1031 "},"`":{"ha":678,"x_min":0,"x_max":0,"o":"m 282 1083 l 393 839 l 285 839 l 171 1083 "},">":{"ha":903,"x_min":0,"x_max":0,"o":"m 717 547 l 78 817 l 78 918 l 825 597 l 825 497 l 78 176 l 78 278 "},"≥":{"ha":903,"x_min":0,"x_max":0,"o":"m 78 351 l 78 451 l 694 664 l 78 876 l 78 978 l 825 714 l 825 614 m 78 218 l 825 482 l 825 381 l 78 118 "},"«":{"ha":611,"x_min":0,"x_max":0,"o":"m 331 197 l 218 197 l 46 467 l 218 736 l 331 736 l 158 467 m 567 197 l 454 197 l 282 467 l 454 736 l 567 736 l 394 467 "},"»":{"ha":611,"x_min":0,"x_max":0,"o":"m 453 467 l 281 736 l 393 736 l 565 467 l 393 197 l 281 197 m 217 467 l 44 736 l 157 736 l 329 467 l 157 197 l 44 197 "},"‹":{"ha":375,"x_min":0,"x_max":0,"o":"m 331 197 l 218 197 l 46 467 l 218 736 l 331 736 l 158 467 "},"›":{"ha":375,"x_min":0,"x_max":0,"o":"m 44 736 l 157 736 l 329 467 l 157 197 l 44 197 l 217 467 "},"h":{"ha":847,"x_min":0,"x_max":0,"o":"m 211 601 b 475 753 256 692 347 753 b 757 479 650 753 757 625 l 757 0 l 649 0 l 649 447 b 444 651 649 565 571 651 b 211 425 301 651 211 551 l 211 0 l 103 0 l 103 1111 l 211 1111 "},"ħ":{"ha":847,"x_min":0,"x_max":0,"o":"m 211 971 l 453 971 l 453 874 l 211 874 l 211 601 b 475 753 256 692 347 753 b 757 479 650 753 757 625 l 757 0 l 649 0 l 649 447 b 444 651 649 565 571 651 b 211 425 301 651 211 551 l 211 0 l 103 0 l 103 874 l -35 874 l -35 971 l 103 971 l 103 1111 l 211 1111 "},"ĥ":{"ha":847,"x_min":0,"x_max":0,"o":"m 211 601 b 475 753 256 692 347 753 b 757 479 650 753 757 625 l 757 0 l 649 0 l 649 447 b 444 651 649 565 571 651 b 211 425 301 651 211 551 l 211 0 l 103 0 l 103 1111 l 211 1111 m -90 1144 l 113 1389 l 201 1389 l 404 1144 l 292 1144 l 157 1301 l 22 1144 "},"˝":{"ha":678,"x_min":0,"x_max":0,"o":"m 276 839 l 168 839 l 279 1083 l 390 1083 m 624 1083 l 510 839 l 401 839 l 513 1083 "},"-":{"ha":500,"x_min":0,"x_max":0,"o":"m 67 417 l 67 515 l 433 515 l 433 417 "},"i":{"ha":353,"x_min":0,"x_max":0,"o":"m 104 961 b 176 1033 104 1001 136 1033 b 249 961 217 1033 249 1001 b 176 889 249 921 217 889 b 104 961 136 889 104 921 m 122 736 l 231 736 l 231 0 l 122 0 "},"í":{"ha":353,"x_min":0,"x_max":0,"o":"m 122 736 l 231 736 l 231 0 l 122 0 m 344 1083 l 231 839 l 122 839 l 233 1083 "},"ĭ":{"ha":353,"x_min":0,"x_max":0,"o":"m 122 736 l 231 736 l 231 0 l 122 0 m 176 822 b -68 1083 25 822 -68 915 l 19 1083 b 176 907 19 965 82 907 b 333 1083 271 907 333 965 l 421 1083 b 176 822 421 915 328 822 "},"î":{"ha":353,"x_min":0,"x_max":0,"o":"m 122 736 l 231 736 l 231 0 l 122 0 m -71 839 l 132 1083 l 221 1083 l 424 839 l 311 839 l 176 996 l 42 839 "},"ï":{"ha":353,"x_min":0,"x_max":0,"o":"m 122 736 l 231 736 l 231 0 l 122 0 m -35 961 b 38 1033 -35 1001 -3 1033 b 110 961 78 1033 110 1001 b 38 889 110 921 78 889 b -35 961 -3 889 -35 921 m 243 961 b 315 1033 243 1001 275 1033 b 388 961 356 1033 388 1001 b 315 889 388 921 356 889 b 243 961 275 889 243 921 "},"ì":{"ha":353,"x_min":0,"x_max":0,"o":"m 122 736 l 231 736 l 231 0 l 122 0 m 119 1083 l 231 839 l 122 839 l 8 1083 "},"ĳ":{"ha":631,"x_min":0,"x_max":0,"o":"m 104 961 b 176 1033 104 1001 136 1033 b 249 961 217 1033 249 1001 b 176 889 249 921 217 889 b 104 961 136 889 104 921 m 122 736 l 231 736 l 231 0 l 122 0 m 508 -124 b 324 -294 508 -221 438 -294 b 149 -136 207 -294 153 -215 l 250 -136 b 325 -200 253 -168 276 -200 b 400 -124 372 -200 400 -167 l 400 736 l 508 736 m 382 961 b 454 1033 382 1001 414 1033 b 526 961 494 1033 526 1001 b 454 889 526 921 494 889 b 382 961 414 889 382 921 "},"ī":{"ha":353,"x_min":0,"x_max":0,"o":"m 122 736 l 231 736 l 231 0 l 122 0 m 357 1010 l 357 913 l -4 913 l -4 1010 "},"‽":{"ha":822,"x_min":0,"x_max":0,"o":"m 333 63 b 406 135 333 103 365 135 b 478 63 446 135 478 103 b 406 -10 478 24 446 -10 b 333 63 365 -10 333 24 m 47 1018 l 178 1061 l 372 308 l 300 285 m 732 788 b 421 301 732 551 576 399 l 393 403 b 622 783 499 478 622 597 b 419 1000 622 921 531 1000 b 260 931 349 1000 293 971 l 229 1039 b 419 1100 275 1075 340 1100 b 732 788 618 1100 732 961 "},"į":{"ha":353,"x_min":0,"x_max":0,"o":"m 333 -253 b 192 -294 310 -269 261 -294 b 25 -144 81 -294 25 -219 b 122 15 25 -68 72 -17 l 122 736 l 231 736 l 231 0 b 111 -131 171 -24 111 -62 b 206 -217 111 -183 153 -217 b 300 -187 251 -217 282 -200 m 104 961 b 176 1033 104 1001 136 1033 b 249 961 217 1033 249 1001 b 176 889 249 921 217 889 b 104 961 136 889 104 921 "},"ĩ":{"ha":353,"x_min":0,"x_max":0,"o":"m 122 736 l 231 736 l 231 0 l 122 0 m 65 1060 b 279 957 189 1060 194 957 b 347 1040 321 957 347 985 l 435 1040 b 288 863 435 929 378 863 b 74 965 164 863 158 965 b 6 882 32 965 6 938 l -82 882 b 65 1060 -82 993 -25 1060 "},"j":{"ha":353,"x_min":0,"x_max":0,"o":"m 104 961 b 176 1033 103 1001 136 1033 b 249 961 217 1033 249 1001 b 176 889 249 921 217 889 b 104 961 136 889 104 921 m 231 -124 b 46 -294 231 -224 158 -294 b -126 -136 -69 -294 -121 -218 l -28 -136 b 46 -201 -25 -168 -1 -201 b 122 -125 94 -201 122 -168 l 122 736 l 231 736 "},"ĵ":{"ha":353,"x_min":0,"x_max":0,"o":"m 231 -124 b 46 -294 231 -221 160 -294 b -129 -136 -71 -294 -125 -215 l -28 -136 b 47 -200 -25 -168 -1 -200 b 122 -124 94 -200 122 -167 l 122 736 l 231 736 m -71 839 l 132 1083 l 221 1083 l 424 839 l 311 839 l 176 996 l 42 839 "},"k":{"ha":779,"x_min":0,"x_max":0,"o":"m 103 0 l 103 1111 l 210 1111 l 210 383 l 560 736 l 714 736 l 390 422 l 761 0 l 615 0 l 317 351 l 210 247 l 210 0 "},"ķ":{"ha":776,"x_min":0,"x_max":0,"o":"m 100 0 l 100 1111 l 207 1111 l 207 383 l 557 736 l 711 736 l 388 422 l 758 0 l 613 0 l 314 351 l 207 247 l 207 0 m 297 -233 b 393 -171 346 -224 385 -204 b 331 -107 357 -169 331 -140 b 394 -43 331 -72 358 -43 b 467 -129 432 -43 467 -74 b 297 -294 467 -207 417 -278 "},"ĸ":{"ha":776,"x_min":0,"x_max":0,"o":"m 100 0 l 100 736 l 207 736 l 207 383 l 557 736 l 711 736 l 388 422 l 758 0 l 613 0 l 314 351 l 207 247 l 207 0 "},"l":{"ha":353,"x_min":0,"x_max":0,"o":"m 122 1111 l 231 1111 l 231 0 l 122 0 "},"ĺ":{"ha":353,"x_min":0,"x_max":0,"o":"m 122 1111 l 231 1111 l 231 0 l 122 0 m 344 1389 l 231 1144 l 122 1144 l 233 1389 "},"ľ":{"ha":381,"x_min":0,"x_max":0,"o":"m 122 1111 l 231 1111 l 231 0 l 122 0 m 439 1111 l 406 850 l 322 850 l 351 1111 "},"ļ":{"ha":353,"x_min":0,"x_max":0,"o":"m 122 1111 l 231 1111 l 231 0 l 122 0 m 79 -233 b 175 -171 128 -224 167 -204 b 113 -107 139 -169 113 -140 b 176 -43 113 -72 140 -43 b 249 -129 214 -43 249 -74 b 79 -294 249 -207 199 -278 "},"ŀ":{"ha":517,"x_min":0,"x_max":0,"o":"m 122 1111 l 231 1111 l 231 0 l 122 0 m 363 467 b 435 539 363 507 394 539 b 507 467 475 539 507 507 b 435 394 507 426 475 394 b 363 467 394 394 363 426 "},"<":{"ha":903,"x_min":0,"x_max":0,"o":"m 186 547 l 825 278 l 825 176 l 78 497 l 78 597 l 825 918 l 825 817 "},"≤":{"ha":903,"x_min":0,"x_max":0,"o":"m 207 664 l 825 451 l 825 351 l 78 614 l 78 714 l 825 978 l 825 876 m 825 118 l 78 381 l 78 482 l 825 218 "},"₤":{"ha":903,"x_min":0,"x_max":0,"o":"m 161 686 b 146 806 151 725 146 764 b 468 1100 146 988 276 1100 b 796 772 690 1100 794 960 l 686 772 b 468 1000 683 903 619 1000 b 256 797 338 1000 256 919 b 269 686 256 760 261 722 l 642 686 l 642 601 l 294 601 b 329 482 307 563 319 522 l 642 482 l 642 397 l 344 397 b 347 347 346 381 347 364 b 211 100 347 240 288 146 l 835 100 l 835 0 l 68 0 l 68 75 b 243 344 197 151 243 242 b 239 397 243 363 242 379 l 50 397 l 50 482 l 224 482 b 186 601 213 522 199 561 l 50 601 l 50 686 "},"¬":{"ha":903,"x_min":0,"x_max":0,"o":"m 726 664 l 78 664 l 78 763 l 825 763 l 825 321 l 726 321 "},"ł":{"ha":542,"x_min":0,"x_max":0,"o":"m 57 496 l 203 583 l 203 1111 l 311 1111 l 311 649 l 485 753 l 485 644 l 311 540 l 311 0 l 203 0 l 203 475 l 57 388 "},"m":{"ha":1267,"x_min":0,"x_max":0,"o":"m 103 0 l 103 736 l 193 736 l 193 579 b 440 753 232 694 331 753 b 676 589 557 753 643 692 b 921 753 711 692 807 753 b 1172 504 1079 753 1172 636 l 1172 0 l 1064 0 l 1064 476 b 890 651 1064 581 999 651 b 692 460 768 651 692 565 l 692 0 l 583 0 l 583 476 b 410 651 583 581 518 651 b 211 460 288 651 211 565 l 211 0 "},"¯":{"ha":678,"x_min":0,"x_max":0,"o":"m 519 1010 l 519 913 l 158 913 l 158 1010 "},"ṁ":{"ha":1267,"x_min":0,"x_max":0,"o":"m 565 961 b 638 1033 565 1001 597 1033 b 710 961 678 1033 710 1001 b 638 889 710 921 678 889 b 565 961 597 889 565 921 m 103 0 l 103 736 l 193 736 l 193 579 b 440 753 232 694 331 753 b 676 589 557 753 643 692 b 921 753 711 692 807 753 b 1172 504 1079 753 1172 636 l 1172 0 l 1064 0 l 1064 476 b 890 651 1064 581 999 651 b 692 460 768 651 692 565 l 692 0 l 583 0 l 583 476 b 410 651 583 581 518 651 b 211 460 288 651 211 565 l 211 0 "},"−":{"ha":903,"x_min":0,"x_max":0,"o":"m 78 492 l 78 592 l 825 592 l 825 492 "},"×":{"ha":903,"x_min":0,"x_max":0,"o":"m 451 472 l 164 185 l 94 254 l 382 542 l 94 829 l 164 899 l 451 611 l 739 899 l 808 829 l 521 542 l 808 254 l 739 185 "},"n":{"ha":847,"x_min":0,"x_max":0,"o":"m 193 556 b 475 753 226 671 326 753 b 757 479 650 753 757 625 l 757 0 l 649 0 l 649 447 b 444 651 649 565 571 651 b 211 425 301 651 211 551 l 211 0 l 103 0 l 103 736 l 193 736 "},"ń":{"ha":847,"x_min":0,"x_max":0,"o":"m 599 1083 l 485 839 l 376 839 l 488 1083 m 193 556 b 475 753 226 671 326 753 b 757 479 650 753 757 625 l 757 0 l 649 0 l 649 447 b 444 651 649 565 571 651 b 211 425 301 651 211 551 l 211 0 l 103 0 l 103 736 l 193 736 "},"ň":{"ha":847,"x_min":0,"x_max":0,"o":"m 296 1083 l 431 925 l 565 1083 l 678 1083 l 475 839 l 386 839 l 183 1083 m 193 556 b 475 753 226 671 326 753 b 757 479 650 753 757 625 l 757 0 l 649 0 l 649 447 b 444 651 649 565 571 651 b 211 425 301 651 211 551 l 211 0 l 103 0 l 103 736 l 193 736 "},"ņ":{"ha":847,"x_min":0,"x_max":0,"o":"m 333 -233 b 429 -171 382 -224 421 -204 b 367 -107 393 -169 367 -140 b 431 -43 367 -72 394 -43 b 503 -129 468 -43 503 -74 b 333 -294 503 -207 453 -278 m 193 556 b 475 753 226 671 326 753 b 757 479 650 753 757 625 l 757 0 l 649 0 l 649 447 b 444 651 649 565 571 651 b 211 425 301 651 211 551 l 211 0 l 103 0 l 103 736 l 193 736 "},"≠":{"ha":903,"x_min":0,"x_max":0,"o":"m 574 646 l 439 438 l 825 438 l 825 339 l 375 339 l 249 143 l 138 143 l 264 339 l 78 339 l 78 438 l 328 438 l 463 646 l 78 646 l 78 744 l 526 744 l 654 940 l 765 940 l 638 744 l 825 744 l 825 646 "},"ñ":{"ha":847,"x_min":0,"x_max":0,"o":"m 319 1060 b 533 957 443 1060 449 957 b 601 1040 575 957 601 985 l 689 1040 b 542 863 689 929 632 863 b 328 965 418 863 413 965 b 260 882 286 965 260 938 l 172 882 b 319 1060 172 993 229 1060 m 193 556 b 475 753 226 671 326 753 b 757 479 650 753 757 625 l 757 0 l 649 0 l 649 447 b 444 651 649 565 571 651 b 211 425 301 651 211 551 l 211 0 l 103 0 l 103 736 l 193 736 "},"#":{"ha":903,"x_min":0,"x_max":0,"o":"m 861 669 l 696 669 l 643 414 l 790 414 l 790 314 l 622 314 l 558 0 l 449 0 l 513 314 l 296 314 l 232 0 l 122 0 l 186 314 l 42 314 l 42 414 l 207 414 l 260 669 l 113 669 l 113 769 l 279 769 l 344 1083 l 454 1083 l 389 769 l 606 769 l 671 1083 l 781 1083 l 715 769 l 861 769 m 317 414 l 533 414 l 586 669 l 369 669 "},"o":{"ha":892,"x_min":0,"x_max":0,"o":"m 171 368 b 446 85 171 192 299 85 b 721 368 593 85 721 192 b 446 651 721 544 593 651 b 171 368 299 651 171 544 m 831 368 b 446 -17 831 139 656 -17 b 61 368 238 -17 61 139 b 446 753 61 597 238 753 b 831 368 656 753 831 597 "},"ó":{"ha":892,"x_min":0,"x_max":0,"o":"m 614 1083 l 500 839 l 392 839 l 503 1083 m 171 368 b 446 85 171 192 299 85 b 721 368 593 85 721 192 b 446 651 721 544 593 651 b 171 368 299 651 171 544 m 831 368 b 446 -17 831 139 656 -17 b 61 368 238 -17 61 139 b 446 753 61 597 238 753 b 831 368 656 753 831 597 "},"ŏ":{"ha":892,"x_min":0,"x_max":0,"o":"m 446 822 b 201 1083 294 822 201 915 l 289 1083 b 446 907 289 965 351 907 b 603 1083 540 907 603 965 l 690 1083 b 446 822 690 915 597 822 m 171 368 b 446 85 171 192 299 85 b 721 368 593 85 721 192 b 446 651 721 544 593 651 b 171 368 299 651 171 544 m 831 368 b 446 -17 831 139 656 -17 b 61 368 238 -17 61 139 b 446 753 61 597 238 753 b 831 368 656 753 831 597 "},"ô":{"ha":892,"x_min":0,"x_max":0,"o":"m 199 839 l 401 1083 l 490 1083 l 693 839 l 581 839 l 446 996 l 311 839 m 171 368 b 446 85 171 192 299 85 b 721 368 593 85 721 192 b 446 651 721 544 593 651 b 171 368 299 651 171 544 m 831 368 b 446 -17 831 139 656 -17 b 61 368 238 -17 61 139 b 446 753 61 597 238 753 b 831 368 656 753 831 597 "},"ö":{"ha":892,"x_min":0,"x_max":0,"o":"m 235 961 b 307 1033 235 1001 267 1033 b 379 961 347 1033 379 1001 b 307 889 379 921 347 889 b 235 961 267 889 235 921 m 513 961 b 585 1033 513 1001 544 1033 b 657 961 625 1033 657 1001 b 585 889 657 921 625 889 b 513 961 544 889 513 921 m 171 368 b 446 85 171 192 299 85 b 721 368 593 85 721 192 b 446 651 721 544 593 651 b 171 368 299 651 171 544 m 831 368 b 446 -17 831 139 656 -17 b 61 368 238 -17 61 139 b 446 753 61 597 238 753 b 831 368 656 753 831 597 "},"œ":{"ha":1492,"x_min":0,"x_max":0,"o":"m 1092 -17 b 772 169 947 -17 832 51 b 446 -17 708 53 586 -17 b 61 368 238 -17 61 139 b 446 753 61 597 238 753 b 774 564 588 753 710 681 b 1079 753 835 681 949 753 b 1431 368 1274 753 1431 599 b 1428 331 1431 356 1429 338 l 835 331 b 1092 78 842 176 939 78 b 1319 217 1231 78 1296 143 l 1421 217 b 1092 -17 1393 93 1292 -17 m 171 368 b 446 85 171 192 299 85 b 721 368 593 85 721 192 b 446 651 721 544 593 651 b 171 368 299 651 171 544 m 1315 417 b 1076 658 1307 563 1215 658 b 836 417 938 658 844 558 "},"˛":{"ha":678,"x_min":0,"x_max":0,"o":"m 442 -253 b 300 -294 418 -269 369 -294 b 133 -144 189 -294 133 -219 b 293 49 133 -35 232 22 l 339 0 b 219 -131 279 -24 219 -62 b 314 -217 219 -183 261 -217 b 408 -187 360 -217 390 -200 "},"ò":{"ha":892,"x_min":0,"x_max":0,"o":"m 389 1083 l 500 839 l 392 839 l 278 1083 m 171 368 b 446 85 171 192 299 85 b 721 368 593 85 721 192 b 446 651 721 544 593 651 b 171 368 299 651 171 544 m 831 368 b 446 -17 831 139 656 -17 b 61 368 238 -17 61 139 b 446 753 61 597 238 753 b 831 368 656 753 831 597 "},"ő":{"ha":892,"x_min":0,"x_max":0,"o":"m 383 839 l 275 839 l 386 1083 l 497 1083 m 731 1083 l 617 839 l 508 839 l 619 1083 m 171 368 b 446 85 171 192 299 85 b 721 368 593 85 721 192 b 446 651 721 544 593 651 b 171 368 299 651 171 544 m 831 368 b 446 -17 831 139 656 -17 b 61 368 238 -17 61 139 b 446 753 61 597 238 753 b 831 368 656 753 831 597 "},"ō":{"ha":892,"x_min":0,"x_max":0,"o":"m 626 1010 l 626 913 l 265 913 l 265 1010 m 171 368 b 446 85 171 192 299 85 b 721 368 593 85 721 192 b 446 651 721 544 593 651 b 171 368 299 651 171 544 m 831 368 b 446 -17 831 139 656 -17 b 61 368 238 -17 61 139 b 446 753 61 597 238 753 b 831 368 656 753 831 597 "},"ø":{"ha":892,"x_min":0,"x_max":0,"o":"m 831 368 b 446 -17 831 139 656 -17 b 224 50 364 -17 288 7 l 181 0 l 71 0 l 161 104 b 61 368 99 171 61 261 b 446 753 61 597 238 753 b 667 686 528 753 604 729 l 711 736 l 821 736 l 731 632 b 831 368 792 565 831 475 m 721 368 b 660 551 721 442 697 504 l 292 128 b 446 85 336 100 390 85 b 721 368 593 85 721 192 m 171 368 b 231 185 171 293 193 231 l 599 607 b 446 651 554 636 501 651 b 171 368 299 651 171 544 "},"õ":{"ha":892,"x_min":0,"x_max":0,"o":"m 335 1060 b 549 957 458 1060 464 957 b 617 1040 590 957 617 985 l 704 1040 b 557 863 704 929 647 863 b 343 965 433 863 428 965 b 275 882 301 965 275 938 l 188 882 b 335 1060 188 993 244 1060 m 171 368 b 446 85 171 192 299 85 b 721 368 593 85 721 192 b 446 651 721 544 593 651 b 171 368 299 651 171 544 m 831 368 b 446 -17 831 139 656 -17 b 61 368 238 -17 61 139 b 446 753 61 597 238 753 b 831 368 656 753 831 597 "},"p":{"ha":922,"x_min":0,"x_max":0,"o":"m 861 368 b 506 -17 861 132 690 -17 b 211 172 349 -17 246 81 l 211 -278 l 103 -278 l 103 736 l 193 736 l 193 533 b 506 753 226 650 349 753 b 861 368 694 753 861 604 m 211 368 b 482 85 211 183 342 85 b 751 368 614 85 751 174 b 482 651 751 563 614 651 b 211 368 342 651 211 553 "},"¶":{"ha":874,"x_min":0,"x_max":0,"o":"m 635 440 l 386 440 b 51 761 206 440 51 542 b 386 1083 51 982 206 1083 l 746 1083 l 746 0 l 635 0 "},"(":{"ha":500,"x_min":0,"x_max":0,"o":"m 189 472 b 447 -172 189 101 382 -112 l 378 -242 b 81 472 306 -179 81 43 b 378 1186 81 901 306 1124 l 447 1117 b 189 472 382 1057 189 843 "},")":{"ha":500,"x_min":0,"x_max":0,"o":"m 311 472 b 53 1117 311 843 118 1057 l 122 1186 b 419 472 194 1124 419 901 b 122 -242 419 43 194 -179 l 53 -172 b 311 472 118 -112 311 101 "},"ṗ":{"ha":922,"x_min":0,"x_max":0,"o":"m 408 961 b 481 1033 408 1001 440 1033 b 553 961 521 1033 553 1001 b 481 889 553 921 521 889 b 408 961 440 889 408 921 m 861 368 b 506 -17 861 132 690 -17 b 211 172 349 -17 246 81 l 211 -278 l 103 -278 l 103 736 l 193 736 l 193 533 b 506 753 226 650 349 753 b 861 368 694 753 861 604 m 211 368 b 482 85 211 183 342 85 b 751 368 614 85 751 174 b 482 651 751 563 614 651 b 211 368 342 651 211 553 "},"%":{"ha":1319,"x_min":0,"x_max":0,"o":"m 251 0 l 957 1083 l 1068 1083 l 363 0 m 44 832 b 313 1100 44 979 165 1100 b 581 832 460 1100 581 979 b 313 564 581 685 460 564 b 44 832 165 564 44 685 m 136 832 b 313 656 136 735 215 656 b 489 832 410 656 489 735 b 313 1008 489 929 410 1008 b 136 832 215 1008 136 929 m 1275 251 b 1007 -17 1275 104 1154 -17 b 739 251 860 -17 739 104 b 1007 519 739 399 860 519 b 1275 251 1154 519 1275 399 m 1183 251 b 1007 428 1183 349 1104 428 b 831 251 910 428 831 349 b 1007 75 831 154 910 75 b 1183 251 1104 75 1183 154 "},".":{"ha":353,"x_min":0,"x_max":0,"o":"m 104 63 b 176 135 104 103 136 135 b 249 63 217 135 249 103 b 176 -10 249 24 217 -10 b 104 63 136 -10 104 24 "},"·":{"ha":353,"x_min":0,"x_max":0,"o":"m 104 467 b 176 539 104 507 136 539 b 249 467 217 539 249 507 b 176 394 249 428 217 394 b 104 467 136 394 104 428 "},"‰":{"ha":1944,"x_min":0,"x_max":0,"o":"m 251 0 l 957 1083 l 1068 1083 l 363 0 m 44 832 b 313 1100 44 979 165 1100 b 581 832 460 1100 581 979 b 313 564 581 685 460 564 b 44 832 165 564 44 685 m 136 832 b 313 656 136 735 215 656 b 489 832 410 656 489 735 b 313 1008 489 929 410 1008 b 136 832 215 1008 136 929 m 1275 251 b 1007 -17 1275 104 1154 -17 b 739 251 860 -17 739 104 b 1007 519 739 399 860 519 b 1275 251 1154 519 1275 399 m 1183 251 b 1007 428 1183 349 1104 428 b 831 251 910 428 831 349 b 1007 75 831 154 910 75 b 1183 251 1104 75 1183 154 m 1900 251 b 1632 -17 1900 104 1779 -17 b 1364 251 1485 -17 1364 104 b 1632 519 1364 399 1485 519 b 1900 251 1779 519 1900 399 m 1808 251 b 1632 428 1808 349 1729 428 b 1456 251 1535 428 1456 349 b 1632 75 1456 154 1535 75 b 1808 251 1729 75 1808 154 "},"+":{"ha":903,"x_min":0,"x_max":0,"o":"m 401 492 l 78 492 l 78 592 l 401 592 l 401 915 l 501 915 l 501 592 l 825 592 l 825 492 l 501 492 l 501 168 l 401 168 "},"±":{"ha":903,"x_min":0,"x_max":0,"o":"m 401 631 l 78 631 l 78 729 l 401 729 l 401 968 l 501 968 l 501 729 l 825 729 l 825 631 l 501 631 l 501 392 l 401 392 m 78 142 l 78 240 l 825 240 l 825 142 "},"q":{"ha":922,"x_min":0,"x_max":0,"o":"m 61 368 b 417 753 61 604 228 753 b 729 533 574 753 696 650 l 729 736 l 819 736 l 819 -278 l 711 -278 l 711 172 b 417 -17 676 81 574 -17 b 61 368 232 -17 61 132 m 711 368 b 440 651 711 553 581 651 b 171 368 308 651 171 563 b 440 85 171 174 308 85 b 711 368 581 85 711 183 "},"?":{"ha":792,"x_min":0,"x_max":0,"o":"m 304 63 b 376 135 304 103 336 135 b 449 63 417 135 449 103 b 376 -10 449 24 417 -10 b 304 63 336 -10 304 24 m 701 788 b 365 290 701 539 529 383 l 336 385 b 593 783 451 460 593 582 b 389 1000 593 921 500 1000 b 185 772 263 1000 188 908 l 74 772 b 389 1100 76 960 182 1100 b 701 788 588 1100 701 961 "},"¿":{"ha":792,"x_min":0,"x_max":0,"o":"m 489 681 b 417 608 489 640 457 608 b 344 681 376 608 344 640 b 417 753 344 719 376 753 b 489 681 457 753 489 719 m 90 14 b 426 453 90 254 261 386 l 457 358 b 200 18 339 307 200 211 b 403 -194 200 -119 292 -194 b 608 33 529 -194 604 -103 l 718 33 b 403 -294 715 -154 610 -294 b 90 14 204 -294 90 -160 "},"\"":{"ha":496,"x_min":0,"x_max":0,"o":"m 219 1083 l 172 736 l 65 736 l 113 1083 m 431 1083 l 383 736 l 276 736 l 324 1083 "},"„":{"ha":536,"x_min":0,"x_max":0,"o":"m 43 -118 b 160 -10 113 -97 153 -62 b 88 63 119 -10 88 24 b 160 135 88 103 119 135 b 239 36 200 135 239 101 b 43 -185 239 -67 167 -161 m 260 -118 b 376 -10 329 -97 369 -62 b 304 63 336 -10 304 24 b 376 135 304 103 336 135 b 456 36 417 135 456 101 b 260 -185 456 -67 383 -161 "},"“":{"ha":536,"x_min":0,"x_max":0,"o":"m 493 1057 b 376 949 424 1036 383 1001 b 449 876 417 949 449 915 b 376 804 449 836 417 804 b 297 903 336 804 297 838 b 493 1124 297 1006 369 1100 m 276 1057 b 160 949 207 1036 167 1001 b 232 876 200 949 232 915 b 160 804 232 836 200 804 b 81 903 119 804 81 838 b 276 1124 81 1006 153 1100 "},"”":{"ha":536,"x_min":0,"x_max":0,"o":"m 43 871 b 160 979 113 892 153 926 b 88 1051 119 979 88 1013 b 160 1124 88 1092 119 1124 b 239 1025 200 1124 239 1090 b 43 804 239 922 167 828 m 260 871 b 376 979 329 892 369 926 b 304 1051 336 979 304 1013 b 376 1124 304 1092 336 1124 b 456 1025 417 1124 456 1090 b 260 804 456 922 383 828 "},"‘":{"ha":319,"x_min":0,"x_max":0,"o":"m 276 1057 b 160 949 207 1036 167 1001 b 232 876 200 949 232 915 b 160 804 232 836 200 804 b 81 903 119 804 81 838 b 276 1124 81 1006 153 1100 "},"’":{"ha":319,"x_min":0,"x_max":0,"o":"m 43 871 b 160 979 113 892 153 926 b 88 1051 119 979 88 1013 b 160 1124 88 1092 119 1124 b 239 1025 200 1124 239 1090 b 43 804 239 922 167 828 "},"‚":{"ha":319,"x_min":0,"x_max":0,"o":"m 43 -118 b 160 -10 113 -97 153 -62 b 88 63 119 -10 88 24 b 160 135 88 103 119 135 b 239 36 200 135 239 101 b 43 -185 239 -67 167 -161 "},"'":{"ha":283,"x_min":0,"x_max":0,"o":"m 219 1083 l 172 736 l 65 736 l 113 1083 "},"r":{"ha":633,"x_min":0,"x_max":0,"o":"m 506 500 b 374 658 506 592 458 658 b 211 479 281 658 211 583 l 211 0 l 103 0 l 103 736 l 193 736 l 193 583 b 408 753 224 696 307 753 b 608 500 524 753 617 657 "},"ŕ":{"ha":633,"x_min":0,"x_max":0,"o":"m 525 1083 l 411 839 l 303 839 l 414 1083 m 506 500 b 374 658 506 592 458 658 b 211 479 281 658 211 583 l 211 0 l 103 0 l 103 736 l 193 736 l 193 583 b 408 753 224 696 307 753 b 608 500 524 753 617 657 "},"ř":{"ha":633,"x_min":0,"x_max":0,"o":"m 222 1083 l 357 925 l 492 1083 l 604 1083 l 401 839 l 313 839 l 110 1083 m 506 500 b 374 658 506 592 458 658 b 211 479 281 658 211 583 l 211 0 l 103 0 l 103 736 l 193 736 l 193 583 b 408 753 224 696 307 753 b 608 500 524 753 617 657 "},"ŗ":{"ha":633,"x_min":0,"x_max":0,"o":"m 60 -233 b 156 -171 108 -224 147 -204 b 93 -107 119 -169 93 -140 b 157 -43 93 -72 121 -43 b 229 -129 194 -43 229 -74 b 60 -294 229 -207 179 -278 m 506 500 b 374 658 506 592 458 658 b 211 479 281 658 211 583 l 211 0 l 103 0 l 103 736 l 193 736 l 193 583 b 408 753 224 696 307 753 b 608 500 524 753 617 657 "},"‟":{"ha":536,"x_min":0,"x_max":0,"o":"m 493 804 b 297 1025 369 828 297 922 b 376 1124 297 1090 336 1124 b 449 1051 417 1124 449 1092 b 376 979 449 1013 417 979 b 493 871 383 926 424 892 m 276 804 b 81 1025 153 828 81 922 b 160 1124 81 1090 119 1124 b 232 1051 200 1124 232 1092 b 160 979 232 1013 200 979 b 276 871 167 926 207 892 "},"‛":{"ha":319,"x_min":0,"x_max":0,"o":"m 276 804 b 81 1025 153 828 81 922 b 160 1124 81 1090 119 1124 b 232 1051 200 1124 232 1092 b 160 979 232 1013 200 979 b 276 871 167 926 207 892 "},"˚":{"ha":678,"x_min":0,"x_max":0,"o":"m 200 961 b 339 1100 200 1038 263 1100 b 478 961 415 1100 478 1038 b 339 822 478 885 415 822 b 200 961 263 822 200 885 m 260 961 b 339 882 260 918 296 882 b 418 961 382 882 418 918 b 339 1040 418 1004 382 1040 b 260 961 296 1040 260 1004 "},"s":{"ha":678,"x_min":0,"x_max":0,"o":"m 340 664 b 192 547 239 664 192 615 b 361 431 192 483 244 439 b 624 215 538 417 624 344 b 340 -17 624 79 506 -17 b 54 283 156 -17 40 100 l 151 283 b 340 72 143 146 210 72 b 519 208 443 72 519 129 b 335 331 519 282 478 319 b 88 538 172 343 88 422 b 340 753 88 654 186 753 b 589 503 492 753 600 656 l 492 503 b 340 664 497 600 443 664 "},"ś":{"ha":678,"x_min":0,"x_max":0,"o":"m 507 1083 l 393 839 l 285 839 l 396 1083 m 340 664 b 192 547 239 664 192 615 b 361 431 192 483 244 439 b 624 215 538 417 624 344 b 340 -17 624 79 506 -17 b 54 283 156 -17 40 100 l 151 283 b 340 72 143 146 210 72 b 519 208 443 72 519 129 b 335 331 519 282 478 319 b 88 538 172 343 88 422 b 340 753 88 654 186 753 b 589 503 492 753 600 656 l 492 503 b 340 664 497 600 443 664 "},"š":{"ha":678,"x_min":0,"x_max":0,"o":"m 204 1083 l 339 925 l 474 1083 l 586 1083 l 383 839 l 294 839 l 92 1083 m 340 664 b 192 547 239 664 192 615 b 361 431 192 483 244 439 b 624 215 538 417 624 344 b 340 -17 624 79 506 -17 b 54 283 156 -17 40 100 l 151 283 b 340 72 143 146 210 72 b 519 208 443 72 519 129 b 335 331 519 282 478 319 b 88 538 172 343 88 422 b 340 753 88 654 186 753 b 589 503 492 753 600 656 l 492 503 b 340 664 497 600 443 664 "},"ş":{"ha":678,"x_min":0,"x_max":0,"o":"m 340 664 b 192 547 239 664 192 615 b 361 431 192 483 244 439 b 624 215 538 417 624 344 b 375 -15 624 89 521 -3 l 371 -50 b 500 -178 440 -67 500 -104 b 342 -294 500 -242 443 -294 b 203 -251 272 -294 226 -268 l 235 -187 b 333 -218 253 -200 290 -218 b 415 -167 382 -218 415 -200 b 293 -93 415 -121 353 -100 l 301 -14 b 54 283 140 0 40 113 l 151 283 b 340 72 143 146 210 72 b 519 208 443 72 519 129 b 335 331 519 282 478 319 b 88 538 172 343 88 422 b 340 753 88 654 186 753 b 589 503 492 753 600 656 l 492 503 b 340 664 497 600 443 664 "},"ə":{"ha":832,"x_min":0,"x_max":0,"o":"m 400 753 b 771 368 613 753 771 603 b 413 -17 771 140 606 -17 b 61 368 218 -17 61 138 b 64 406 61 381 63 399 l 657 406 b 400 658 650 560 553 658 b 172 519 261 658 196 593 l 71 519 b 400 753 99 643 200 753 m 176 319 b 415 78 185 174 276 78 b 656 319 554 78 647 178 "},"ŝ":{"ha":678,"x_min":0,"x_max":0,"o":"m 92 839 l 294 1083 l 383 1083 l 586 839 l 474 839 l 339 996 l 204 839 m 340 664 b 192 547 239 664 192 615 b 361 431 192 483 244 439 b 624 215 538 417 624 344 b 340 -17 624 79 506 -17 b 54 283 156 -17 40 100 l 151 283 b 340 72 143 146 210 72 b 519 208 443 72 519 129 b 335 331 519 282 478 319 b 88 538 172 343 88 422 b 340 753 88 654 186 753 b 589 503 492 753 600 656 l 492 503 b 340 664 497 600 443 664 "},"ș":{"ha":678,"x_min":0,"x_max":0,"o":"m 243 -233 b 339 -171 292 -224 331 -204 b 276 -107 303 -169 276 -140 b 340 -43 276 -72 304 -43 b 413 -129 378 -43 413 -74 b 243 -294 413 -207 363 -278 m 340 664 b 192 547 239 664 192 615 b 361 431 192 483 244 439 b 624 215 538 417 624 344 b 340 -17 624 79 506 -17 b 54 283 156 -17 40 100 l 151 283 b 340 72 143 146 210 72 b 519 208 443 72 519 129 b 335 331 519 282 478 319 b 88 538 172 343 88 422 b 340 753 88 654 186 753 b 589 503 492 753 600 656 l 492 503 b 340 664 497 600 443 664 "},"§":{"ha":843,"x_min":0,"x_max":0,"o":"m 425 -189 b 628 -28 550 -189 628 -128 b 399 132 628 65 568 108 b 83 406 188 161 83 232 b 240 626 83 513 144 588 b 104 839 151 665 104 729 b 418 1100 104 1001 236 1100 b 739 828 650 1100 731 971 l 626 828 b 418 1001 619 919 572 1001 b 217 840 294 1001 217 940 b 444 681 217 747 276 704 b 760 408 656 651 760 581 b 601 186 760 299 697 225 b 739 -26 690 147 739 83 b 425 -287 739 -189 607 -287 b 106 -14 193 -287 114 -157 l 218 -14 b 425 -189 224 -107 272 -189 m 647 406 b 643 453 647 422 646 438 b 419 576 624 536 547 576 b 196 408 285 576 196 508 l 196 399 b 424 236 199 288 276 236 b 647 406 558 236 647 306 "},";":{"ha":353,"x_min":0,"x_max":0,"o":"m 104 568 b 176 640 104 608 136 640 b 249 568 217 640 249 608 b 176 496 249 528 217 496 b 104 568 136 496 104 528 m 60 -118 b 176 -10 129 -97 169 -62 b 104 63 136 -10 104 24 b 176 135 104 103 136 135 b 256 36 217 135 256 101 b 60 -185 256 -67 183 -161 "},"/":{"ha":500,"x_min":0,"x_max":0,"o":"m 22 -222 l 340 1167 l 449 1167 l 131 -222 "}," ":{"ha":325,"x_min":0,"x_max":0,"o":""},"£":{"ha":903,"x_min":0,"x_max":0,"o":"m 189 592 b 146 806 167 661 146 731 b 468 1100 146 988 276 1100 b 796 772 690 1100 794 960 l 686 772 b 468 1000 683 903 619 1000 b 256 797 338 1000 256 919 b 297 592 256 728 275 660 l 642 592 l 642 492 l 326 492 b 347 347 339 444 347 397 b 211 100 347 240 288 146 l 835 100 l 835 0 l 68 0 l 68 75 b 243 344 197 151 243 242 b 221 492 243 396 233 444 l 50 492 l 50 592 "},"t":{"ha":558,"x_min":0,"x_max":0,"o":"m 286 639 l 286 185 b 382 78 286 115 315 78 b 490 111 426 78 472 97 l 508 18 b 369 -17 486 3 440 -17 b 178 165 250 -17 178 51 l 178 639 l 43 639 l 43 736 l 178 736 l 178 924 l 286 924 l 286 736 l 506 736 l 506 639 "},"ŧ":{"ha":558,"x_min":0,"x_max":0,"o":"m 508 18 b 369 -17 486 3 440 -17 b 178 165 250 -17 178 51 l 178 325 l 51 325 l 51 422 l 178 422 l 178 639 l 43 639 l 43 736 l 178 736 l 178 924 l 286 924 l 286 736 l 506 736 l 506 639 l 286 639 l 286 422 l 457 422 l 457 325 l 286 325 l 286 185 b 382 78 286 115 315 78 b 490 111 426 78 472 97 "},"ť":{"ha":558,"x_min":0,"x_max":0,"o":"m 286 639 l 286 185 b 382 78 286 115 315 78 b 490 111 426 78 472 97 l 508 18 b 369 -17 486 3 440 -17 b 178 165 250 -17 178 51 l 178 639 l 43 639 l 43 736 l 178 736 l 178 924 l 286 924 l 286 736 l 506 736 l 506 639 m 494 1111 l 461 850 l 378 850 l 407 1111 "},"ț":{"ha":558,"x_min":0,"x_max":0,"o":"m 286 639 l 286 185 b 382 78 286 115 315 78 b 490 111 426 78 472 97 l 508 18 b 369 -17 486 3 440 -17 b 178 165 250 -17 178 51 l 178 639 l 43 639 l 43 736 l 178 736 l 178 924 l 286 924 l 286 736 l 506 736 l 506 639 m 243 -233 b 339 -171 292 -224 331 -204 b 276 -107 303 -169 276 -140 b 340 -43 276 -72 304 -43 b 413 -129 378 -43 413 -74 b 243 -294 413 -207 363 -278 "},"ṫ":{"ha":558,"x_min":0,"x_max":0,"o":"m 286 639 l 286 185 b 382 78 286 115 315 78 b 490 111 426 78 472 97 l 508 18 b 369 -17 486 3 440 -17 b 178 165 250 -17 178 51 l 178 639 l 43 639 l 43 736 l 178 736 l 178 924 l 286 924 l 286 736 l 506 736 l 506 639 m 160 1079 b 232 1151 160 1119 192 1151 b 304 1079 272 1151 304 1119 b 232 1007 304 1039 272 1007 b 160 1079 192 1007 160 1039 "},"þ":{"ha":922,"x_min":0,"x_max":0,"o":"m 103 1111 l 211 1111 l 211 564 b 506 753 246 656 349 753 b 861 368 690 753 861 604 b 506 -17 861 132 690 -17 b 211 172 349 -17 246 81 l 211 -278 l 103 -278 m 211 368 b 482 85 211 183 342 85 b 751 368 614 85 751 174 b 482 651 751 563 614 651 b 211 368 342 651 211 553 "},"˜":{"ha":678,"x_min":0,"x_max":0,"o":"m 228 1060 b 442 957 351 1060 357 957 b 510 1040 483 957 510 985 l 597 1040 b 450 863 597 929 540 863 b 236 965 326 863 321 965 b 168 882 194 965 168 938 l 81 882 b 228 1060 81 993 138 1060 "},"‴":{"ha":707,"x_min":0,"x_max":0,"o":"m 219 1083 l 172 736 l 65 736 l 113 1083 m 431 1083 l 383 736 l 276 736 l 324 1083 m 642 1083 l 594 736 l 488 736 l 535 1083 "},"u":{"ha":847,"x_min":0,"x_max":0,"o":"m 654 0 l 654 181 b 372 -17 621 65 521 -17 b 90 257 197 -17 90 111 l 90 736 l 199 736 l 199 289 b 403 85 199 171 276 85 b 636 311 546 85 636 185 l 636 736 l 744 736 l 744 0 "},"ú":{"ha":847,"x_min":0,"x_max":0,"o":"m 586 1083 l 472 839 l 364 839 l 475 1083 m 654 0 l 654 181 b 372 -17 621 65 521 -17 b 90 257 197 -17 90 111 l 90 736 l 199 736 l 199 289 b 403 85 199 171 276 85 b 636 311 546 85 636 185 l 636 736 l 744 736 l 744 0 "},"ŭ":{"ha":847,"x_min":0,"x_max":0,"o":"m 418 822 b 174 1083 267 822 174 915 l 261 1083 b 418 907 261 965 324 907 b 575 1083 513 907 575 965 l 663 1083 b 418 822 663 915 569 822 m 654 0 l 654 181 b 372 -17 621 65 521 -17 b 90 257 197 -17 90 111 l 90 736 l 199 736 l 199 289 b 403 85 199 171 276 85 b 636 311 546 85 636 185 l 636 736 l 744 736 l 744 0 "},"û":{"ha":847,"x_min":0,"x_max":0,"o":"m 171 839 l 374 1083 l 463 1083 l 665 839 l 553 839 l 418 996 l 283 839 m 654 0 l 654 181 b 372 -17 621 65 521 -17 b 90 257 197 -17 90 111 l 90 736 l 199 736 l 199 289 b 403 85 199 171 276 85 b 636 311 546 85 636 185 l 636 736 l 744 736 l 744 0 "},"ü":{"ha":847,"x_min":0,"x_max":0,"o":"m 207 961 b 279 1033 207 1001 239 1033 b 351 961 319 1033 351 1001 b 279 889 351 921 319 889 b 207 961 239 889 207 921 m 485 961 b 557 1033 485 1001 517 1033 b 629 961 597 1033 629 1001 b 557 889 629 921 597 889 b 485 961 517 889 485 921 m 654 0 l 654 181 b 372 -17 621 65 521 -17 b 90 257 197 -17 90 111 l 90 736 l 199 736 l 199 289 b 403 85 199 171 276 85 b 636 311 546 85 636 185 l 636 736 l 744 736 l 744 0 "},"ù":{"ha":847,"x_min":0,"x_max":0,"o":"m 361 1083 l 472 839 l 364 839 l 250 1083 m 654 0 l 654 181 b 372 -17 621 65 521 -17 b 90 257 197 -17 90 111 l 90 736 l 199 736 l 199 289 b 403 85 199 171 276 85 b 636 311 546 85 636 185 l 636 736 l 744 736 l 744 0 "},"ű":{"ha":847,"x_min":0,"x_max":0,"o":"m 703 1083 l 589 839 l 481 839 l 592 1083 m 356 839 l 247 839 l 358 1083 l 469 1083 m 654 0 l 654 181 b 372 -17 621 65 521 -17 b 90 257 197 -17 90 111 l 90 736 l 199 736 l 199 289 b 403 85 199 171 276 85 b 636 311 546 85 636 185 l 636 736 l 744 736 l 744 0 "},"ū":{"ha":847,"x_min":0,"x_max":0,"o":"m 599 1010 l 599 913 l 238 913 l 238 1010 m 654 0 l 654 181 b 372 -17 621 65 521 -17 b 90 257 197 -17 90 111 l 90 736 l 199 736 l 199 289 b 403 85 199 171 276 85 b 636 311 546 85 636 185 l 636 736 l 744 736 l 744 0 "},"_":{"ha":500,"x_min":0,"x_max":0,"o":"m 67 -278 l 67 -178 l 433 -178 l 433 -278 "},"­":{"ha":500,"x_min":0,"x_max":0,"o":"m 67 417 l 67 515 l 433 515 l 433 417 "},"―":{"ha":1806,"x_min":0,"x_max":0,"o":"m 67 417 l 67 515 l 1739 515 l 1739 417 "},"ų":{"ha":847,"x_min":0,"x_max":0,"o":"m 847 -253 b 706 -294 824 -269 775 -294 b 539 -144 594 -294 539 -219 b 654 26 539 -58 599 -6 l 654 181 b 372 -17 621 65 521 -17 b 90 257 197 -17 90 111 l 90 736 l 199 736 l 199 289 b 403 85 199 171 276 85 b 636 311 546 85 636 185 l 636 736 l 744 736 l 744 0 b 625 -131 685 -24 625 -62 b 719 -217 625 -183 667 -217 b 814 -187 765 -217 796 -200 "},"ů":{"ha":847,"x_min":0,"x_max":0,"o":"m 279 961 b 418 1100 279 1038 342 1100 b 557 961 494 1100 557 1038 b 418 822 557 885 494 822 b 279 961 342 822 279 885 m 339 961 b 418 882 339 918 375 882 b 497 961 461 882 497 918 b 418 1040 497 1004 461 1040 b 339 961 375 1040 339 1004 m 654 0 l 654 181 b 372 -17 621 65 521 -17 b 90 257 197 -17 90 111 l 90 736 l 199 736 l 199 289 b 403 85 199 171 276 85 b 636 311 546 85 636 185 l 636 736 l 744 736 l 744 0 "},"ũ":{"ha":847,"x_min":0,"x_max":0,"o":"m 307 1060 b 521 957 431 1060 436 957 b 589 1040 563 957 589 985 l 676 1040 b 529 863 676 929 619 863 b 315 965 406 863 400 965 b 247 882 274 965 247 938 l 160 882 b 307 1060 160 993 217 1060 m 654 0 l 654 181 b 372 -17 621 65 521 -17 b 90 257 197 -17 90 111 l 90 736 l 199 736 l 199 289 b 403 85 199 171 276 85 b 636 311 546 85 636 185 l 636 736 l 744 736 l 744 0 "},"v":{"ha":756,"x_min":0,"x_max":0,"o":"m 439 -8 l 318 -8 l 32 736 l 151 736 l 378 117 l 604 736 l 725 736 "},"w":{"ha":1125,"x_min":0,"x_max":0,"o":"m 826 146 l 986 736 l 1100 736 l 889 -8 l 771 -8 l 563 604 l 356 -8 l 236 -8 l 25 736 l 140 736 l 299 146 l 499 736 l 628 736 "},"ẃ":{"ha":1125,"x_min":0,"x_max":0,"o":"m 826 146 l 986 736 l 1100 736 l 889 -8 l 771 -8 l 563 604 l 356 -8 l 236 -8 l 25 736 l 140 736 l 299 146 l 499 736 l 628 736 m 731 1083 l 617 839 l 508 839 l 619 1083 "},"ŵ":{"ha":1125,"x_min":0,"x_max":0,"o":"m 826 146 l 986 736 l 1100 736 l 889 -8 l 771 -8 l 563 604 l 356 -8 l 236 -8 l 25 736 l 140 736 l 299 146 l 499 736 l 628 736 m 315 839 l 518 1083 l 607 1083 l 810 839 l 697 839 l 563 996 l 428 839 "},"ẅ":{"ha":1125,"x_min":0,"x_max":0,"o":"m 826 146 l 986 736 l 1100 736 l 889 -8 l 771 -8 l 563 604 l 356 -8 l 236 -8 l 25 736 l 140 736 l 299 146 l 499 736 l 628 736 m 629 961 b 701 1033 629 1001 661 1033 b 774 961 742 1033 774 1001 b 701 889 774 921 742 889 b 629 961 661 889 629 921 m 351 961 b 424 1033 351 1001 383 1033 b 496 961 464 1033 496 1001 b 424 889 496 921 464 889 b 351 961 383 889 351 921 "},"ẁ":{"ha":1125,"x_min":0,"x_max":0,"o":"m 826 146 l 986 736 l 1100 736 l 889 -8 l 771 -8 l 563 604 l 356 -8 l 236 -8 l 25 736 l 140 736 l 299 146 l 499 736 l 628 736 m 506 1083 l 617 839 l 508 839 l 394 1083 "},"x":{"ha":778,"x_min":0,"x_max":0,"o":"m 389 300 l 174 0 l 39 0 l 321 382 l 57 736 l 190 736 l 389 454 l 586 736 l 721 736 l 456 382 l 739 0 l 603 0 "},"y":{"ha":760,"x_min":0,"x_max":0,"o":"m 450 65 l 313 -278 l 189 -278 l 321 39 l 31 736 l 151 736 l 381 157 l 610 736 l 729 736 "},"ý":{"ha":760,"x_min":0,"x_max":0,"o":"m 450 65 l 313 -278 l 189 -278 l 321 39 l 31 736 l 151 736 l 381 157 l 610 736 l 729 736 m 549 1083 l 435 839 l 326 839 l 438 1083 "},"ŷ":{"ha":760,"x_min":0,"x_max":0,"o":"m 450 65 l 313 -278 l 189 -278 l 321 39 l 31 736 l 151 736 l 381 157 l 610 736 l 729 736 m 133 839 l 336 1083 l 425 1083 l 628 839 l 515 839 l 381 996 l 246 839 "},"ÿ":{"ha":760,"x_min":0,"x_max":0,"o":"m 450 65 l 313 -278 l 189 -278 l 321 39 l 31 736 l 151 736 l 381 157 l 610 736 l 729 736 m 169 961 b 242 1033 169 1001 201 1033 b 314 961 282 1033 314 1001 b 242 889 314 921 282 889 b 169 961 201 889 169 921 m 447 961 b 519 1033 447 1001 479 1033 b 592 961 560 1033 592 1001 b 519 889 592 921 560 889 b 447 961 479 889 447 921 "},"¥":{"ha":903,"x_min":0,"x_max":0,"o":"m 396 379 l 396 467 l 376 500 l 86 500 l 86 583 l 329 583 l 44 1083 l 172 1083 l 453 586 l 733 1083 l 858 1083 l 572 583 l 817 583 l 817 500 l 525 500 l 507 467 l 507 379 l 817 379 l 817 294 l 507 294 l 507 0 l 396 0 l 396 294 l 86 294 l 86 379 "},"ỳ":{"ha":760,"x_min":0,"x_max":0,"o":"m 450 65 l 313 -278 l 189 -278 l 321 39 l 31 736 l 151 736 l 381 157 l 610 736 l 729 736 m 324 1083 l 435 839 l 326 839 l 213 1083 "},"ȳ":{"ha":760,"x_min":0,"x_max":0,"o":"m 450 65 l 313 -278 l 189 -278 l 321 39 l 31 736 l 151 736 l 381 157 l 610 736 l 729 736 m 561 1010 l 561 913 l 200 913 l 200 1010 "},"z":{"ha":754,"x_min":0,"x_max":0,"o":"m 67 79 l 525 640 l 338 639 l 81 639 l 81 736 l 674 736 l 674 657 l 215 96 l 404 97 l 688 97 l 688 0 l 67 0 "},"ź":{"ha":754,"x_min":0,"x_max":0,"o":"m 67 79 l 525 640 l 338 639 l 81 639 l 81 736 l 674 736 l 674 657 l 215 96 l 404 97 l 688 97 l 688 0 l 67 0 m 546 1083 l 432 839 l 324 839 l 435 1083 "},"ž":{"ha":754,"x_min":0,"x_max":0,"o":"m 67 79 l 525 640 l 338 639 l 81 639 l 81 736 l 674 736 l 674 657 l 215 96 l 404 97 l 688 97 l 688 0 l 67 0 m 243 1083 l 378 925 l 513 1083 l 625 1083 l 422 839 l 333 839 l 131 1083 "},"ż":{"ha":754,"x_min":0,"x_max":0,"o":"m 67 79 l 525 640 l 338 639 l 81 639 l 81 736 l 674 736 l 674 657 l 215 96 l 404 97 l 688 97 l 688 0 l 67 0 m 306 961 b 378 1033 306 1001 338 1033 b 450 961 418 1033 450 1001 b 378 889 450 921 418 889 b 306 961 338 889 306 921 "},"ª":{"ha":549,"x_min":0,"x_max":0,"o":"m 479 299 l 74 299 l 74 393 l 479 393 m 68 936 b 274 1111 76 1026 139 1111 b 479 918 404 1111 479 1035 l 479 596 l 401 596 l 401 715 b 214 585 378 638 314 585 b 53 733 113 585 53 653 b 222 893 53 828 107 875 l 388 922 l 388 929 b 275 1032 388 989 349 1032 b 156 936 201 1032 160 993 m 151 740 b 236 667 151 693 185 667 b 388 821 340 667 388 754 l 388 849 l 239 824 b 151 740 176 814 151 785 "},"º":{"ha":600,"x_min":0,"x_max":0,"o":"m 300 1011 b 139 842 208 1011 139 947 b 300 674 139 739 208 674 b 461 843 392 674 461 738 b 300 1011 461 946 392 1011 m 526 299 l 74 299 l 74 393 l 526 393 m 300 585 b 43 842 154 585 43 686 b 300 1100 43 999 154 1100 b 557 843 446 1100 557 999 b 300 585 557 686 446 585 "},"®":{"ha":514,"x_min":0,"x_max":0,"o":"m 56 924 b 257 1125 56 1035 146 1125 b 458 924 368 1125 458 1035 b 257 722 458 813 368 722 b 56 924 146 722 56 813 m 86 924 b 257 753 86 829 163 753 b 428 924 351 753 428 829 b 257 1094 428 1018 351 1094 b 86 924 163 1094 86 1018 m 213 800 l 169 800 l 169 1047 l 278 1047 b 353 972 321 1047 353 1017 b 297 899 353 935 331 907 l 358 800 l 310 800 l 253 897 l 213 897 m 274 936 b 310 972 294 936 310 949 b 274 1008 310 996 294 1008 l 213 1008 l 213 936 "},"™":{"ha":833,"x_min":0,"x_max":0,"o":"m 208 736 l 150 736 l 150 1057 l 32 1057 l 32 1111 l 326 1111 l 326 1057 l 208 1057 m 479 938 l 456 1003 l 457 907 l 457 736 l 400 736 l 400 1111 l 475 1111 l 553 908 l 583 822 l 615 908 l 694 1111 l 768 1111 l 768 736 l 711 736 l 711 907 l 713 1003 l 689 938 l 611 736 l 557 736 "},"℠":{"ha":833,"x_min":0,"x_max":0,"o":"m 185 1063 b 124 1013 151 1063 124 1047 b 196 957 124 985 138 967 b 321 843 285 940 321 910 b 186 729 321 769 261 729 b 50 849 97 729 53 775 l 110 849 b 186 783 113 814 136 783 b 260 842 233 783 260 810 b 182 904 260 875 244 893 b 64 1011 114 917 64 940 b 185 1117 64 1079 113 1117 b 310 1007 279 1117 307 1063 l 250 1007 b 185 1063 247 1036 236 1063 m 479 938 l 456 1003 l 457 907 l 457 736 l 400 736 l 400 1111 l 475 1111 l 553 908 l 583 822 l 615 908 l 694 1111 l 768 1111 l 768 736 l 711 736 l 711 907 l 713 1003 l 689 938 l 611 736 l 557 736 "}," ":{"ha":325,"x_min":0,"x_max":0,"o":""}," ":{"ha":653,"x_min":0,"x_max":0,"o":""}," ":{"ha":1306,"x_min":0,"x_max":0,"o":""}," ":{"ha":435,"x_min":0,"x_max":0,"o":""}," ":{"ha":326,"x_min":0,"x_max":0,"o":""}," ":{"ha":217,"x_min":0,"x_max":0,"o":""}," ":{"ha":903,"x_min":0,"x_max":0,"o":""}," ":{"ha":317,"x_min":0,"x_max":0,"o":""}," ":{"ha":158,"x_min":0,"x_max":0,"o":""}," ":{"ha":79,"x_min":0,"x_max":0,"o":""},"​":{"ha":0,"x_min":0,"x_max":0,"o":""},"₡":{"ha":903,"x_min":0,"x_max":0,"o":"m 672 915 b 831 692 764 868 819 786 l 719 692 b 644 810 713 739 686 781 l 494 224 b 719 392 621 231 706 300 l 831 392 b 474 124 814 242 685 124 l 469 124 l 438 0 l 361 0 l 394 129 b 321 149 368 133 344 140 l 283 0 l 207 0 l 253 181 b 67 542 138 249 67 375 b 453 960 67 789 226 950 l 485 1083 l 561 1083 l 528 957 b 603 943 554 954 579 950 l 639 1083 l 715 1083 m 176 542 b 281 289 176 432 215 344 l 426 857 b 176 542 278 836 176 717 m 578 843 b 503 858 554 851 531 856 l 347 249 b 419 228 369 239 393 232 l 578 843 "},"₢":{"ha":903,"x_min":0,"x_max":0,"o":"m 503 1000 b 182 542 317 1000 182 844 b 406 99 182 294 271 146 l 406 667 l 496 667 l 496 538 b 674 683 522 638 599 683 b 850 457 806 683 844 578 l 749 457 b 644 589 743 539 721 589 b 514 414 575 589 514 518 l 514 83 b 742 300 636 86 735 161 l 850 300 b 503 -17 843 110 710 -17 b 72 542 243 -17 72 190 b 503 1100 72 893 243 1100 b 850 783 710 1100 843 974 l 742 783 b 503 1000 735 925 629 1000 "},"₦":{"ha":903,"x_min":0,"x_max":0,"o":"m 178 482 l 178 601 l 50 601 l 50 686 l 178 686 l 178 1083 l 296 1083 l 450 686 l 618 686 l 618 1083 l 725 1083 l 725 686 l 853 686 l 853 601 l 725 601 l 725 482 l 853 482 l 853 397 l 725 397 l 725 0 l 607 0 l 451 397 l 285 397 l 285 0 l 178 0 l 178 397 l 50 397 l 50 482 m 531 482 l 618 482 l 618 601 l 483 601 m 285 482 l 418 482 l 372 601 l 283 601 l 285 529 m 619 397 l 563 397 l 621 250 m 283 686 l 339 686 l 282 833 "},"₪":{"ha":903,"x_min":0,"x_max":0,"o":"m 200 0 l 106 0 l 106 1083 l 292 1083 b 607 801 492 1083 607 999 l 607 229 l 513 229 l 513 810 b 307 992 513 943 440 992 l 200 992 m 397 92 l 504 92 b 710 274 638 92 710 140 l 710 1083 l 804 1083 l 804 282 b 489 0 804 85 689 0 l 303 0 l 303 854 l 397 854 "},"⁰":{"ha":417,"x_min":0,"x_max":0,"o":"m 110 840 b 208 656 110 719 142 656 b 308 840 276 656 308 719 b 208 1024 308 960 276 1024 b 110 840 142 1024 110 960 m 382 840 b 208 588 382 685 328 588 b 36 840 90 588 36 685 b 208 1092 36 994 90 1092 b 382 840 328 1092 382 994 "},"¹":{"ha":417,"x_min":0,"x_max":0,"o":"m 368 596 l 44 596 l 44 663 l 174 663 l 174 983 b 38 911 174 983 121 931 l 38 979 b 193 1092 129 1004 193 1092 l 247 1092 l 247 663 l 368 663 "},"²":{"ha":417,"x_min":0,"x_max":0,"o":"m 31 646 b 231 786 47 654 158 715 b 304 932 278 833 304 882 b 207 1024 304 989 267 1024 b 111 931 150 1024 113 994 l 39 931 b 207 1092 43 1026 94 1092 b 378 936 310 1092 378 1031 b 281 754 378 863 342 811 b 150 663 229 706 163 667 l 388 663 l 388 596 l 31 596 "},"³":{"ha":417,"x_min":0,"x_max":0,"o":"m 211 588 b 36 749 99 588 42 649 l 108 749 b 211 656 111 683 151 656 b 306 735 272 656 306 688 b 213 815 306 786 272 815 l 140 815 l 140 879 l 213 879 b 293 953 265 879 293 910 b 208 1024 293 996 258 1024 b 118 931 156 1024 119 1000 l 46 931 b 208 1092 50 1029 104 1092 b 367 958 303 1092 367 1038 b 289 850 367 904 333 861 b 379 728 346 833 379 792 b 211 588 379 649 319 588 "},"⁴":{"ha":417,"x_min":0,"x_max":0,"o":"m 332 928 l 332 767 l 390 767 l 390 699 l 332 699 l 332 596 l 258 596 l 258 699 l 26 699 l 26 747 b 189 1083 128 844 176 968 l 260 1083 b 115 764 249 968 200 833 l 258 767 l 258 915 "},"⁵":{"ha":417,"x_min":0,"x_max":0,"o":"m 208 588 b 35 749 97 588 40 651 l 107 749 b 208 656 110 682 151 656 b 310 756 271 656 310 696 b 211 857 310 814 271 857 b 111 804 164 857 133 836 l 47 828 l 61 1083 l 361 1083 l 365 1017 l 129 1017 l 122 881 b 226 922 144 904 179 922 b 383 754 322 922 383 846 b 208 588 383 663 321 588 "},"⁶":{"ha":417,"x_min":0,"x_max":0,"o":"m 310 749 b 215 842 310 806 274 842 b 119 749 156 842 119 806 b 215 656 119 692 156 656 b 310 749 274 656 310 692 m 221 1092 b 381 931 325 1092 381 1025 l 308 931 b 219 1024 308 999 274 1024 b 110 835 150 1024 110 974 b 229 908 128 881 172 908 b 385 749 321 908 385 843 b 217 588 385 657 322 588 b 36 839 93 588 36 686 b 221 1092 36 1004 106 1092 "},"⁷":{"ha":417,"x_min":0,"x_max":0,"o":"m 140 596 b 293 1017 140 765 218 946 l 97 1017 l 97 931 l 29 931 l 29 1083 l 393 1083 l 393 1035 b 214 596 272 925 214 753 "},"⁸":{"ha":417,"x_min":0,"x_max":0,"o":"m 208 879 b 290 951 261 879 290 910 b 208 1024 290 996 258 1024 b 128 951 160 1024 128 996 b 208 879 128 910 156 879 m 208 656 b 303 735 265 656 303 688 b 208 815 303 783 268 815 b 114 735 150 815 114 783 b 208 656 114 688 151 656 m 208 588 b 40 729 100 588 40 647 b 125 850 40 793 79 835 b 54 958 86 863 54 901 b 208 1092 54 1038 115 1092 b 364 958 303 1092 364 1038 b 292 850 364 901 331 863 b 376 729 339 835 376 793 b 208 588 376 647 318 588 "},"⁹":{"ha":417,"x_min":0,"x_max":0,"o":"m 111 931 b 207 838 111 874 149 838 b 301 931 265 838 301 874 b 207 1024 301 988 265 1024 b 111 931 149 1024 111 988 m 199 588 b 33 749 93 588 33 651 l 106 749 b 199 656 106 679 146 656 b 313 844 269 656 311 706 b 193 771 293 799 250 771 b 38 931 100 771 38 836 b 206 1092 38 1022 100 1092 b 386 839 329 1092 386 993 b 199 588 386 675 314 588 "},"⁺":{"ha":417,"x_min":0,"x_max":0,"o":"m 175 806 l 38 806 l 38 874 l 175 874 l 175 1011 l 243 1011 l 243 874 l 379 874 l 379 806 l 243 806 l 243 668 l 175 668 "},"⁻":{"ha":417,"x_min":0,"x_max":0,"o":"m 38 806 l 38 874 l 379 874 l 379 806 "},"⁼":{"ha":417,"x_min":0,"x_max":0,"o":"m 38 731 l 38 799 l 379 799 l 379 731 m 38 881 l 38 949 l 379 949 l 379 881 "},"⁽":{"ha":243,"x_min":0,"x_max":0,"o":"m 35 839 b 163 1139 35 1026 132 1117 l 210 1090 b 111 839 186 1069 111 990 b 210 589 111 689 186 610 l 163 540 b 35 839 132 563 35 653 "},"⁾":{"ha":243,"x_min":0,"x_max":0,"o":"m 208 839 b 81 540 208 653 111 563 l 33 589 b 132 839 57 610 132 689 b 33 1090 132 990 57 1069 l 81 1139 b 208 839 111 1117 208 1026 "},"₀":{"ha":417,"x_min":0,"x_max":0,"o":"m 110 244 b 208 60 110 124 142 60 b 308 244 276 60 308 124 b 208 428 308 364 276 428 b 110 244 142 428 110 364 m 382 244 b 208 -8 382 89 328 -8 b 36 244 90 -8 36 89 b 208 496 36 399 90 496 b 382 244 328 496 382 399 "},"₁":{"ha":417,"x_min":0,"x_max":0,"o":"m 368 0 l 44 0 l 44 67 l 174 67 l 174 388 b 38 315 174 388 121 335 l 38 383 b 193 496 129 408 193 496 l 247 496 l 247 67 l 368 67 "},"₂":{"ha":417,"x_min":0,"x_max":0,"o":"m 31 50 b 231 190 47 58 158 119 b 304 336 278 238 304 286 b 207 428 304 393 267 428 b 111 335 150 428 113 399 l 39 335 b 207 496 43 431 94 496 b 378 340 310 496 378 435 b 281 158 378 267 342 215 b 150 67 229 110 163 71 l 388 67 l 388 0 l 31 0 "},"₃":{"ha":417,"x_min":0,"x_max":0,"o":"m 211 -8 b 36 153 99 -8 42 53 l 108 153 b 211 60 111 88 151 60 b 306 139 272 60 306 92 b 213 219 306 190 272 219 l 140 219 l 140 283 l 213 283 b 293 357 265 283 293 314 b 208 428 293 400 258 428 b 118 335 156 428 119 404 l 46 335 b 208 496 50 433 104 496 b 367 363 303 496 367 442 b 289 254 367 308 333 265 b 379 132 346 238 379 196 b 211 -8 379 53 319 -8 "},"₄":{"ha":417,"x_min":0,"x_max":0,"o":"m 332 332 l 332 171 l 390 171 l 390 103 l 332 103 l 332 0 l 258 0 l 258 103 l 26 103 l 26 151 b 189 488 128 249 176 372 l 260 488 b 115 168 249 372 200 238 l 258 171 l 258 319 "},"₅":{"ha":417,"x_min":0,"x_max":0,"o":"m 208 -8 b 35 153 97 -8 40 56 l 107 153 b 208 60 110 86 151 60 b 310 160 271 60 310 100 b 211 261 310 218 271 261 b 111 208 164 261 133 240 l 47 232 l 61 488 l 361 488 l 365 421 l 129 421 l 122 285 b 226 326 144 308 179 326 b 383 158 322 326 383 250 b 208 -8 383 67 321 -8 "},"₆":{"ha":417,"x_min":0,"x_max":0,"o":"m 310 153 b 215 246 310 210 274 246 b 119 153 156 246 119 210 b 215 60 119 96 156 60 b 310 153 274 60 310 96 m 221 496 b 381 335 325 496 381 429 l 308 335 b 219 428 308 403 274 428 b 110 239 150 428 110 378 b 229 313 128 285 172 313 b 385 153 321 313 385 247 b 217 -8 385 61 322 -8 b 36 244 93 -8 36 90 b 221 496 36 408 106 496 "},"₇":{"ha":417,"x_min":0,"x_max":0,"o":"m 140 0 b 293 421 140 169 218 350 l 97 421 l 97 335 l 29 335 l 29 488 l 393 488 l 393 439 b 214 0 272 329 214 157 "},"₈":{"ha":417,"x_min":0,"x_max":0,"o":"m 208 283 b 290 356 261 283 290 314 b 208 428 290 400 258 428 b 128 356 160 428 128 400 b 208 283 128 314 156 283 m 208 60 b 303 139 265 60 303 92 b 208 219 303 188 268 219 b 114 139 150 219 114 188 b 208 60 114 92 151 60 m 208 -8 b 40 133 100 -8 40 51 b 125 254 40 197 79 239 b 54 363 86 267 54 307 b 208 496 54 442 115 496 b 364 363 303 496 364 442 b 292 254 364 307 331 267 b 376 133 339 239 376 197 b 208 -8 376 51 318 -8 "},"₉":{"ha":417,"x_min":0,"x_max":0,"o":"m 111 335 b 207 242 111 278 149 242 b 301 335 265 242 301 278 b 207 428 301 392 265 428 b 111 335 149 428 111 392 m 199 -8 b 33 153 93 -8 33 57 l 106 153 b 199 60 106 83 146 60 b 313 249 269 60 311 110 b 193 175 293 203 250 175 b 38 335 100 175 38 240 b 206 496 38 426 100 496 b 386 244 329 496 386 397 b 199 -8 386 79 314 -8 "},"₊":{"ha":417,"x_min":0,"x_max":0,"o":"m 175 210 l 38 210 l 38 278 l 175 278 l 175 415 l 243 415 l 243 278 l 379 278 l 379 210 l 243 210 l 243 72 l 175 72 "},"₋":{"ha":417,"x_min":0,"x_max":0,"o":"m 38 210 l 38 278 l 379 278 l 379 210 "},"₌":{"ha":417,"x_min":0,"x_max":0,"o":"m 38 135 l 38 203 l 379 203 l 379 135 m 38 285 l 38 353 l 379 353 l 379 285 "},"₍":{"ha":243,"x_min":0,"x_max":0,"o":"m 35 243 b 163 543 35 431 132 521 l 210 494 b 111 243 186 474 111 394 b 210 -7 111 93 186 14 l 163 -56 b 35 243 132 -33 35 57 "},"₎":{"ha":243,"x_min":0,"x_max":0,"o":"m 208 243 b 81 -56 208 57 111 -33 l 33 -7 b 132 243 57 14 132 93 b 33 494 132 394 57 474 l 81 543 b 208 243 111 521 208 431 "},"⁄":{"ha":253,"x_min":0,"x_max":0,"o":"m -258 0 l 421 1083 l 511 1083 l -169 0 "},"Ţ":{"ha":883,"x_min":0,"x_max":0,"o":"m 497 0 l 386 0 l 386 981 l 32 981 l 32 1083 l 851 1083 l 851 981 l 497 981 m 331 -187 b 429 -218 349 -200 386 -218 b 511 -162 481 -218 511 -197 b 399 -83 511 -117 456 -94 l 426 -31 b 596 -174 510 -47 596 -85 b 438 -294 596 -240 540 -294 b 299 -251 368 -294 322 -268 "},"∆":{"ha":1042,"x_min":0,"x_max":0,"o":"m 994 61 l 994 0 l 47 0 l 47 61 l 468 1086 l 574 1086 m 186 101 l 856 101 l 521 926 "},"ţ":{"ha":558,"x_min":0,"x_max":0,"o":"m 286 639 l 286 185 b 382 78 286 115 315 78 b 490 111 426 78 472 97 l 508 18 b 369 -17 486 3 440 -17 b 178 165 250 -17 178 51 l 178 639 l 43 639 l 43 736 l 178 736 l 178 924 l 286 924 l 286 736 l 506 736 l 506 639 m 214 -187 b 313 -218 232 -200 269 -218 b 394 -162 364 -218 394 -197 b 282 -83 394 -117 339 -94 l 310 -31 b 479 -174 393 -47 479 -85 b 321 -294 479 -240 424 -294 b 182 -251 251 -294 206 -268 "},"←":{"ha":1194,"x_min":0,"x_max":0,"o":"m 232 592 l 1139 592 l 1139 492 l 232 492 l 668 57 l 597 -14 l 42 542 l 597 1097 l 668 1026 "},"→":{"ha":1194,"x_min":0,"x_max":0,"o":"m 526 57 l 963 492 l 56 492 l 56 592 l 963 592 l 526 1026 l 597 1097 l 1153 542 l 597 -14 "},"↑":{"ha":1194,"x_min":0,"x_max":0,"o":"m 647 907 l 647 0 l 547 0 l 547 907 l 113 471 l 42 542 l 597 1097 l 1153 542 l 1082 471 "},"↓":{"ha":1194,"x_min":0,"x_max":0,"o":"m 113 613 l 547 176 l 547 1083 l 647 1083 l 647 176 l 1082 613 l 1153 542 l 597 -14 l 42 542 "},"↖":{"ha":1194,"x_min":0,"x_max":0,"o":"m 156 911 l 156 0 l 56 0 l 56 1083 l 1139 1083 l 1139 983 l 228 983 l 1153 57 l 1082 -14 "},"↗":{"ha":1194,"x_min":0,"x_max":0,"o":"m 1039 0 l 1039 911 l 113 -14 l 42 57 l 967 983 l 56 983 l 56 1083 l 1139 1083 l 1139 0 "},"↘":{"ha":1194,"x_min":0,"x_max":0,"o":"m 156 172 l 1082 1097 l 1153 1026 l 228 100 l 1139 100 l 1139 0 l 56 0 l 56 1083 l 156 1083 "},"↙":{"ha":1194,"x_min":0,"x_max":0,"o":"m 1039 172 l 1039 1083 l 1139 1083 l 1139 0 l 56 0 l 56 100 l 967 100 l 42 1026 l 113 1097 "},"○":{"ha":1361,"x_min":0,"x_max":0,"o":"m 122 542 b 681 1100 122 850 372 1100 b 1239 542 989 1100 1239 850 b 681 -17 1239 233 989 -17 b 122 542 372 -17 122 233 m 222 542 b 681 83 222 289 428 83 b 1139 542 933 83 1139 289 b 681 1000 1139 794 933 1000 b 222 542 428 1000 222 794 "},"◯":{"ha":1361,"x_min":0,"x_max":0,"o":"m 122 542 b 681 -17 122 233 372 -17 b 1239 542 989 -17 1239 233 b 681 1100 1239 850 989 1100 b 122 542 372 1100 122 850 m 222 542 b 681 1000 222 794 428 1000 b 1139 542 933 1000 1139 794 b 681 83 1139 289 933 83 b 222 542 428 83 222 289 "},"●":{"ha":1361,"x_min":0,"x_max":0,"o":"m 122 542 b 681 1100 122 850 372 1100 b 1239 542 989 1100 1239 850 b 681 -17 1239 233 989 -17 b 122 542 372 -17 122 233 "},"⚪":{"ha":1014,"x_min":0,"x_max":0,"o":"m 507 -17 b 122 368 294 -17 122 156 b 507 753 122 581 294 753 b 892 368 719 753 892 581 b 507 -17 892 156 719 -17 m 222 368 b 507 83 222 211 350 83 b 792 368 664 83 792 211 b 507 653 792 525 664 653 b 222 368 350 653 222 525 "},"⚫":{"ha":1014,"x_min":0,"x_max":0,"o":"m 122 368 b 507 753 122 581 294 753 b 892 368 719 753 892 581 b 507 -17 892 156 719 -17 b 122 368 294 -17 122 156 "},"■":{"ha":1361,"x_min":0,"x_max":0,"o":"m 1222 0 l 139 0 l 139 1083 l 1222 1083 "},"□":{"ha":1361,"x_min":0,"x_max":0,"o":"m 139 1083 l 1222 1083 l 1222 0 l 139 0 m 239 983 l 239 100 l 1122 100 l 1122 983 "},"⊠":{"ha":1361,"x_min":0,"x_max":0,"o":"m 139 1083 l 1222 1083 l 1222 0 l 139 0 m 239 983 l 239 100 l 1122 100 l 1122 983 m 681 471 l 383 175 l 314 244 l 610 542 l 314 839 l 383 908 l 681 613 l 978 908 l 1047 839 l 751 542 l 1047 244 l 978 175 "},"▪":{"ha":1014,"x_min":0,"x_max":0,"o":"m 875 0 l 139 0 l 139 736 l 875 736 "},"▫":{"ha":1014,"x_min":0,"x_max":0,"o":"m 139 736 l 875 736 l 875 0 l 139 0 m 239 636 l 239 100 l 775 100 l 775 636 "},"☒":{"ha":1014,"x_min":0,"x_max":0,"o":"m 139 736 l 875 736 l 875 0 l 139 0 m 239 636 l 239 100 l 775 100 l 775 636 m 353 144 l 283 214 l 436 368 l 283 522 l 353 592 l 507 439 l 661 592 l 731 522 l 578 368 l 731 214 l 661 144 l 507 297 "},"▲":{"ha":1194,"x_min":0,"x_max":0,"o":"m 597 988 l 1167 0 l 28 0 "},"▼":{"ha":1194,"x_min":0,"x_max":0,"o":"m 28 1083 l 1167 1083 l 597 96 "},"◄":{"ha":1194,"x_min":0,"x_max":0,"o":"m 1056 1111 l 1056 -28 l 69 542 "},"►":{"ha":1194,"x_min":0,"x_max":0,"o":"m 1125 542 l 139 -28 l 139 1111 "},"◤":{"ha":1194,"x_min":0,"x_max":0,"o":"m 28 1101 l 1128 806 l 322 0 "},"◥":{"ha":1194,"x_min":0,"x_max":0,"o":"m 833 0 l 28 806 l 1128 1101 "},"◢":{"ha":1194,"x_min":0,"x_max":0,"o":"m 1128 -14 l 28 282 l 833 1088 "},"◣":{"ha":1194,"x_min":0,"x_max":0,"o":"m 322 1088 l 1128 282 l 28 -14 "},"★":{"ha":1361,"x_min":0,"x_max":0,"o":"m 319 -14 l 457 413 l 96 675 l 543 675 l 681 1100 l 818 675 l 1265 675 l 904 413 l 1042 -14 l 681 250 "},"☼":{"ha":1361,"x_min":0,"x_max":0,"o":"m 1008 499 l 1229 394 l 986 415 l 1174 258 l 943 340 l 1081 139 l 882 278 l 964 49 l 807 235 l 826 -8 l 724 213 l 681 -28 l 638 213 l 535 -8 l 554 235 l 397 49 l 479 278 l 281 139 l 418 340 l 188 258 l 375 415 l 132 394 l 353 499 l 113 542 l 353 585 l 132 689 l 375 668 l 188 825 l 418 743 l 281 944 l 479 806 l 397 1035 l 554 849 l 535 1092 l 638 871 l 681 1111 l 724 871 l 826 1092 l 807 849 l 964 1035 l 882 806 l 1081 944 l 943 743 l 1174 825 l 986 668 l 1229 689 l 1008 585 l 1249 542 "},"☾":{"ha":1361,"x_min":0,"x_max":0,"o":"m 431 542 b 881 72 431 282 632 72 b 1014 93 942 72 982 81 b 681 -14 919 26 803 -14 b 125 542 374 -14 125 235 b 681 1097 125 849 374 1097 b 1014 990 803 1097 919 1057 b 881 1011 982 1003 942 1011 b 431 542 632 1011 431 801 "},"♻":{"ha":1361,"x_min":0,"x_max":0,"o":"m 269 172 l 135 406 b 106 482 118 435 106 457 b 126 551 106 510 113 526 l 167 621 l 107 654 l 349 696 l 435 465 l 375 499 l 275 325 b 257 250 263 303 257 276 b 271 172 257 207 271 172 m 381 993 b 510 1058 400 1026 449 1058 b 658 990 575 1058 638 1025 l 499 713 l 288 831 m 439 57 b 290 236 342 57 290 167 b 304 297 290 261 296 282 l 626 297 l 626 57 m 1207 369 l 1072 136 b 950 56 1044 88 1018 56 l 871 56 l 871 -12 l 714 176 l 871 365 l 871 297 l 1072 297 b 1206 371 1150 297 1206 371 m 1221 575 b 1235 511 1229 563 1235 538 b 1079 338 1235 413 1138 338 l 919 614 l 1126 738 m 565 1083 l 833 1083 b 964 1018 889 1083 931 1076 l 1004 949 l 1064 983 l 979 753 l 736 794 l 796 829 l 696 1003 b 565 1082 657 1071 565 1082 "},"♼":{"ha":1361,"x_min":0,"x_max":0,"o":"m 1236 540 b 682 -14 1236 233 989 -14 b 125 540 374 -14 125 233 b 682 1097 125 849 374 1097 b 1236 540 989 1097 1236 849 m 364 256 b 353 315 364 256 353 282 b 367 374 353 336 357 357 l 444 508 l 490 482 l 424 661 l 236 629 l 282 603 l 251 549 b 235 496 240 529 235 517 b 258 436 235 476 244 458 l 363 256 m 376 765 l 540 674 l 664 889 b 549 942 647 917 599 942 b 449 892 501 942 464 917 m 639 167 l 639 353 l 389 353 b 378 304 383 340 378 324 b 493 167 378 251 418 167 m 1088 410 b 985 353 1088 410 1044 353 l 828 353 l 828 406 l 707 258 l 828 113 l 828 165 l 890 165 b 985 228 943 165 963 190 l 1089 408 m 1026 693 l 867 597 l 990 383 b 1110 518 1035 383 1110 442 b 1100 568 1110 539 1106 558 m 592 960 b 693 899 592 960 663 951 l 771 764 l 724 738 l 913 706 l 978 883 l 932 857 l 900 911 b 799 961 875 956 842 961 l 592 961 "},"♽":{"ha":1361,"x_min":0,"x_max":0,"o":"m 153 542 b 681 14 153 250 389 14 b 1208 542 972 14 1208 250 b 681 1069 1208 833 972 1069 b 153 542 389 1069 153 833 m 1236 540 b 682 -14 1236 233 989 -14 b 125 540 374 -14 125 233 b 682 1097 125 849 374 1097 b 1236 540 989 1097 1236 849 m 363 256 l 258 436 b 235 496 244 458 235 476 b 251 549 235 517 240 529 l 282 603 l 236 629 l 424 661 l 490 482 l 444 508 l 367 374 b 353 315 357 357 353 336 b 364 256 353 282 364 256 m 449 892 b 549 942 464 917 501 942 b 664 889 599 942 647 917 l 540 674 l 376 765 m 493 167 b 378 304 418 167 378 251 b 389 353 378 324 383 340 l 639 353 l 639 167 m 1089 408 l 985 228 b 890 165 963 190 943 165 l 828 165 l 828 113 l 707 258 l 828 406 l 828 353 l 985 353 b 1088 410 1044 353 1088 410 m 1100 568 b 1110 518 1106 558 1110 539 b 990 383 1110 442 1035 383 l 867 597 l 1026 693 m 592 961 l 799 961 b 900 911 842 961 875 956 l 932 857 l 978 883 l 913 706 l 724 738 l 771 764 l 693 899 b 592 960 663 951 592 960 "},"⌂":{"ha":1361,"x_min":0,"x_max":0,"o":"m 139 0 l 139 706 l 681 1100 l 1222 706 l 1222 0 "},"♠":{"ha":1250,"x_min":0,"x_max":0,"o":"m 626 1097 b 950 778 672 1028 803 874 b 1178 464 1071 699 1178 608 b 933 222 1178 328 1069 222 b 656 446 796 222 703 331 l 651 444 b 765 0 667 257 696 139 l 485 0 b 599 444 554 139 583 257 l 594 446 b 317 222 547 331 454 222 b 72 464 181 222 72 328 b 300 778 72 608 179 699 b 624 1097 447 874 578 1028 l 626 1097 "},"♣":{"ha":1250,"x_min":0,"x_max":0,"o":"m 485 0 b 599 444 554 139 583 257 l 594 446 b 317 222 547 331 454 222 b 72 464 181 222 72 328 b 314 714 72 608 169 714 b 431 682 361 714 399 699 l 433 685 b 381 847 403 731 381 786 b 625 1097 381 985 485 1097 b 869 847 765 1097 869 985 b 817 685 869 786 847 731 l 819 682 b 936 714 851 699 889 714 b 1178 464 1081 714 1178 608 b 933 222 1178 328 1069 222 b 656 446 796 222 703 331 l 651 444 b 765 0 667 257 696 139 l 485 0 "},"♥":{"ha":1250,"x_min":0,"x_max":0,"o":"m 624 -14 b 300 393 578 56 447 226 b 72 811 204 501 72 667 b 338 1097 72 975 174 1097 b 622 879 510 1097 582 994 l 628 879 b 913 1097 668 994 740 1097 b 1178 811 1076 1097 1178 975 b 950 393 1178 667 1046 501 b 626 -14 803 226 672 56 "},"♦":{"ha":1250,"x_min":0,"x_max":0,"o":"m 1135 542 b 626 -14 938 388 750 182 l 624 -14 b 115 542 500 182 313 388 b 624 1097 313 696 500 901 l 626 1097 b 1135 542 750 901 938 696 "},"≡":{"ha":903,"x_min":0,"x_max":0,"o":"m 78 493 l 78 592 l 825 592 l 825 493 m 78 785 l 78 883 l 825 883 l 825 785 m 78 200 l 78 299 l 825 299 l 825 200 "},"′":{"ha":283,"x_min":0,"x_max":0,"o":"m 219 1083 l 172 736 l 65 736 l 113 1083 "},"″":{"ha":496,"x_min":0,"x_max":0,"o":"m 219 1083 l 172 736 l 65 736 l 113 1083 m 431 1083 l 383 736 l 276 736 l 324 1083 "},"∞":{"ha":1135,"x_min":0,"x_max":0,"o":"m 282 307 b 47 542 153 307 47 411 b 282 775 47 671 153 775 b 567 606 400 775 472 701 b 853 775 661 701 732 775 b 1086 542 982 775 1086 671 b 853 307 1086 411 982 307 b 567 475 732 307 661 379 b 282 307 471 381 400 307 m 282 683 b 139 542 203 683 139 619 b 282 399 139 463 203 399 b 501 540 361 399 425 463 b 282 683 424 619 361 683 m 853 399 b 994 542 931 399 994 463 b 853 683 994 619 931 683 b 632 540 772 683 708 619 b 853 399 708 463 772 399 "},"∂":{"ha":881,"x_min":0,"x_max":0,"o":"m 819 378 b 440 -17 819 131 656 -17 b 61 368 225 -17 61 133 b 429 753 61 603 228 753 b 633 678 510 753 581 725 b 90 1028 525 864 321 981 l 117 1128 b 819 378 485 1057 819 804 m 440 86 b 708 368 590 86 708 192 b 440 650 708 544 590 650 b 172 368 290 650 172 544 b 440 86 172 192 290 86 "},"∫":{"ha":358,"x_min":0,"x_max":0,"o":"m 233 -124 b 49 -294 233 -221 163 -294 b -126 -135 -68 -294 -122 -215 l -25 -135 b 49 -199 -22 -167 1 -199 b 125 -124 97 -199 125 -167 l 125 957 b 310 1128 125 1054 196 1128 b 485 968 426 1128 481 1049 l 383 968 b 308 1032 379 1000 357 1032 b 233 957 261 1032 233 1000 "},"√":{"ha":943,"x_min":0,"x_max":0,"o":"m 369 -8 l 246 -8 l 53 736 l 174 736 l 322 118 l 800 1083 l 922 1083 "},"∏":{"ha":1042,"x_min":0,"x_max":0,"o":"m 831 0 l 721 0 l 721 982 l 322 982 l 322 0 l 211 0 l 211 982 l 50 982 l 50 1083 l 992 1083 l 992 982 l 831 982 "},"∑":{"ha":972,"x_min":0,"x_max":0,"o":"m 867 1083 l 867 982 l 276 982 l 704 590 l 704 506 l 264 101 l 879 101 l 879 0 l 93 0 l 93 86 l 597 547 l 106 997 l 106 1083 "},"◊":{"ha":1042,"x_min":0,"x_max":0,"o":"m 868 542 l 521 956 l 174 542 l 521 128 m 50 542 l 521 1103 l 992 542 l 521 -19 "},"₩":{"ha":1319,"x_min":0,"x_max":0,"o":"m 50 686 l 132 686 l 50 1083 l 164 1083 l 243 686 l 488 686 l 593 1083 l 726 1083 l 833 686 l 1078 686 l 1156 1083 l 1269 1083 l 1189 686 l 1269 686 l 1269 601 l 1171 601 l 1147 482 l 1269 482 l 1269 397 l 1129 397 l 1049 0 l 910 0 l 804 397 l 517 397 l 413 0 l 274 0 l 192 397 l 50 397 l 50 482 l 174 482 l 149 601 l 50 601 m 539 482 l 781 482 l 749 601 l 569 601 m 889 482 l 1038 482 l 1061 601 l 857 601 m 285 482 l 432 482 l 464 601 l 260 601 m 592 686 l 726 686 l 660 940 m 975 164 l 1021 397 l 911 397 m 349 164 l 410 397 l 301 397 "},"฿":{"ha":903,"x_min":0,"x_max":0,"o":"m 408 140 l 108 140 l 108 943 l 408 943 l 408 1083 l 494 1083 l 494 943 l 546 943 b 793 728 692 943 793 874 b 676 560 793 629 732 582 b 821 371 753 539 821 489 b 557 140 821 219 726 140 l 494 140 l 494 0 l 408 0 m 408 243 l 408 503 l 219 503 l 219 243 m 494 503 l 494 243 l 561 243 b 708 375 640 243 708 276 b 561 503 708 474 624 503 m 219 604 l 408 604 l 408 840 l 219 840 m 494 840 l 494 604 l 546 604 b 679 722 619 604 679 642 b 553 840 679 803 624 840 "},"₫":{"ha":903,"x_min":0,"x_max":0,"o":"m 344 807 b 571 674 468 807 540 733 l 571 883 l 351 883 l 351 954 l 571 954 l 571 1083 l 668 1083 l 668 954 l 843 954 l 843 883 l 668 883 l 668 207 l 583 207 l 583 356 b 344 194 561 282 482 194 b 61 501 197 194 61 310 b 344 807 61 692 197 807 m 843 71 l 843 0 l 60 0 l 60 71 m 571 501 b 367 721 571 638 478 721 b 160 501 256 721 160 633 b 367 281 160 368 256 281 b 571 501 478 281 571 364 "},"₭":{"ha":903,"x_min":0,"x_max":0,"o":"m 289 585 l 328 585 l 681 1083 l 808 1083 l 450 585 l 853 585 l 853 499 l 461 499 l 819 0 l 690 0 l 338 499 l 289 499 l 289 0 l 178 0 l 178 499 l 50 499 l 50 585 l 178 585 l 178 1083 l 289 1083 "},"₱":{"ha":903,"x_min":0,"x_max":0,"o":"m 289 0 l 178 0 l 178 576 l 50 576 l 50 661 l 178 661 l 178 781 l 50 781 l 50 867 l 178 867 l 178 1083 l 407 1083 b 739 867 561 1083 692 1018 l 853 867 l 853 781 l 756 781 b 760 721 758 763 760 742 b 756 661 760 699 758 679 l 853 661 l 853 576 l 739 576 b 407 358 692 424 561 358 l 289 358 m 647 721 b 642 781 647 742 644 763 l 289 781 l 289 661 l 642 661 b 647 721 644 679 647 699 m 289 867 l 618 867 b 404 981 581 951 499 981 l 289 981 m 404 461 b 618 576 499 461 581 490 l 289 576 l 289 461 "},"₲":{"ha":903,"x_min":0,"x_max":0,"o":"m 507 1278 l 507 1100 b 835 783 715 1092 831 957 l 725 783 b 507 997 718 908 635 989 l 507 85 b 721 165 611 90 686 129 l 721 389 l 604 389 l 604 492 l 833 492 l 833 117 b 507 -15 771 51 663 -11 l 507 -194 l 418 -194 l 418 -11 b 67 542 194 19 67 215 b 418 1094 67 867 200 1061 l 418 1278 m 178 542 b 418 92 178 274 267 124 l 418 990 b 178 542 272 957 178 808 "},"₴":{"ha":903,"x_min":0,"x_max":0,"o":"m 454 994 b 278 843 318 994 286 919 l 165 843 b 454 1097 172 965 233 1097 b 732 829 618 1097 732 1004 b 688 686 732 771 715 725 l 853 686 l 853 601 l 601 601 b 406 482 542 556 469 521 l 853 482 l 853 397 l 299 397 b 249 271 267 363 249 322 b 449 88 249 156 325 88 b 653 261 590 88 647 168 l 767 261 b 449 -15 758 100 667 -15 b 136 271 269 -15 136 88 b 168 397 136 319 147 361 l 50 397 l 50 482 l 239 482 b 424 601 293 528 360 564 l 50 601 l 50 686 l 547 686 b 619 832 590 725 619 771 b 454 994 619 950 535 994 "},"₵":{"ha":903,"x_min":0,"x_max":0,"o":"m 525 1278 l 525 1099 b 850 783 717 1089 849 965 l 740 783 b 525 997 739 913 640 986 l 525 86 b 740 300 640 96 739 169 l 850 300 b 525 -15 849 118 717 -6 l 525 -194 l 436 -194 l 436 -12 b 71 542 211 18 71 219 b 436 1096 71 864 211 1065 l 436 1278 m 182 542 b 436 90 182 274 285 122 l 436 992 b 182 542 285 961 182 810 "},"₨":{"ha":903,"x_min":0,"x_max":0,"o":"m 853 1083 l 853 999 l 601 999 b 713 793 661 953 703 885 l 853 793 l 853 707 l 713 707 b 449 432 696 546 582 457 l 739 0 l 610 0 l 299 468 l 299 518 l 367 518 b 600 707 475 518 581 576 l 50 707 l 50 793 l 600 793 b 367 981 581 922 475 981 l 50 981 l 50 1083 "},"₼":{"ha":903,"x_min":0,"x_max":0,"o":"m 519 0 l 410 0 l 410 846 b 190 582 275 831 190 733 l 190 0 l 81 0 l 81 582 b 410 950 81 804 206 931 l 410 1083 l 519 1083 l 519 950 b 849 582 724 931 849 804 l 849 0 l 739 0 l 739 582 b 519 846 739 733 653 831 "},"¤":{"ha":903,"x_min":0,"x_max":0,"o":"m 660 265 b 451 196 601 221 529 196 b 243 265 374 196 300 221 l 121 143 l 54 211 l 175 332 b 106 542 131 390 106 463 b 175 750 106 619 131 692 l 54 872 l 121 940 l 243 818 b 451 888 300 861 374 888 b 660 818 529 888 601 861 l 782 940 l 849 872 l 726 750 b 797 542 771 692 797 619 b 726 332 797 463 771 390 l 849 211 l 782 143 m 197 542 b 451 288 197 401 311 288 b 706 542 592 288 706 401 b 451 796 706 682 592 796 b 197 542 311 796 197 682 "},"℮":{"ha":1181,"x_min":0,"x_max":0,"o":"m 222 517 b 631 35 229 274 335 35 b 1057 368 849 35 1040 147 l 1114 368 b 613 -17 1094 131 892 -17 b 46 542 271 -17 46 203 b 590 1100 46 881 271 1100 b 1135 542 910 1100 1135 881 l 1135 517 m 590 1049 b 222 568 343 1049 229 874 l 958 568 b 590 1049 951 874 836 1049 "},"♩":{"ha":667,"x_min":0,"x_max":0,"o":"m 514 186 b 256 -14 514 78 375 -14 b 111 114 163 -14 111 35 b 356 314 111 222 236 314 b 461 281 401 314 436 303 l 461 1167 l 514 1167 "},"♭":{"ha":667,"x_min":0,"x_max":0,"o":"m 111 1167 l 164 1167 l 164 589 b 368 750 204 694 288 750 b 585 518 508 750 585 644 b 111 -28 585 238 340 85 m 164 63 b 456 510 326 144 456 293 b 335 651 456 589 414 651 b 164 413 238 651 164 542 "},"♮":{"ha":667,"x_min":0,"x_max":0,"o":"m 556 -222 l 503 -222 l 503 250 l 111 97 l 111 1167 l 164 1167 l 164 694 l 556 847 m 164 264 l 503 396 l 503 681 l 164 549 "},"♯":{"ha":667,"x_min":0,"x_max":0,"o":"m 181 -222 l 181 124 l 83 86 l 83 233 l 181 271 l 181 554 l 83 517 l 83 664 l 181 701 l 181 1083 l 233 1083 l 233 722 l 433 800 l 433 1167 l 486 1167 l 486 821 l 583 858 l 583 711 l 486 674 l 486 390 l 583 428 l 583 281 l 486 243 l 486 -139 l 433 -139 l 433 222 l 233 144 l 233 -222 m 233 292 l 433 369 l 433 653 l 233 575 "},"№":{"ha":1683,"x_min":0,"x_max":0,"o":"m 853 179 l 849 514 l 849 1083 l 956 1083 l 956 0 l 844 0 l 231 904 l 235 569 l 235 0 l 128 0 l 128 1083 l 239 1083 m 1383 1011 b 1222 842 1292 1011 1222 947 b 1383 674 1222 739 1292 674 b 1544 843 1475 674 1544 738 b 1383 1011 1544 946 1475 1011 m 1610 299 l 1157 299 l 1157 393 l 1610 393 m 1383 585 b 1126 842 1238 585 1126 686 b 1383 1100 1126 999 1238 1100 b 1640 843 1529 1100 1640 999 b 1383 585 1640 686 1529 585 "},"ℓ":{"ha":561,"x_min":0,"x_max":0,"o":"m 153 253 b 29 161 114 222 72 190 l 29 279 b 153 378 74 311 114 344 l 153 929 b 339 1100 153 1026 225 1100 b 524 892 454 1100 524 1024 b 261 349 524 686 425 508 l 261 154 b 338 78 261 111 289 78 b 411 142 385 78 408 110 l 513 142 b 339 -17 508 63 454 -17 b 153 154 225 -17 153 57 m 261 490 b 417 892 360 608 417 738 b 338 1006 417 971 385 1006 b 261 929 289 1006 261 972 "},"⚜":{"ha":972,"x_min":0,"x_max":0,"o":"m 486 -14 b 435 90 449 11 435 54 b 365 160 396 90 365 121 b 451 250 407 160 451 194 l 264 250 l 264 319 l 340 319 b 257 444 340 401 304 444 b 188 375 218 444 188 414 b 215 319 188 343 206 326 b 63 472 131 319 63 386 b 215 625 63 557 131 625 b 403 319 350 625 403 481 l 451 319 b 333 813 451 590 333 665 b 486 1100 333 928 396 1014 b 639 813 576 1014 639 928 b 521 319 639 665 521 590 l 569 319 b 757 625 569 481 622 625 b 910 472 842 625 910 557 b 757 319 910 386 842 319 b 785 375 767 326 785 343 b 715 444 785 414 754 444 b 632 319 668 444 632 401 l 708 319 l 708 250 l 521 250 b 607 160 521 194 565 160 b 538 90 607 121 576 90 b 486 -14 538 54 524 11 "},"ﬁ":{"ha":911,"x_min":0,"x_max":0,"o":"m 286 639 l 286 0 l 178 0 l 178 639 l 43 639 l 43 736 l 178 736 l 178 924 b 390 1126 178 1046 265 1126 b 590 940 524 1126 583 1033 l 494 940 b 392 1033 490 990 457 1033 b 286 924 326 1033 286 989 l 286 736 l 506 736 l 506 639 m 681 736 l 789 736 l 789 0 l 681 0 m 663 961 b 735 1033 663 1001 694 1033 b 807 961 775 1033 807 1001 b 735 889 807 921 775 889 b 663 961 694 889 663 921 "},"ﬂ":{"ha":911,"x_min":0,"x_max":0,"o":"m 286 639 l 286 0 l 178 0 l 178 639 l 43 639 l 43 736 l 178 736 l 178 924 b 390 1126 178 1046 265 1126 b 590 940 524 1126 583 1033 l 494 940 b 392 1033 490 990 457 1033 b 286 924 326 1033 286 989 l 286 736 l 506 736 l 506 639 m 681 1111 l 789 1111 l 789 0 l 681 0 "},"⅟":{"ha":669,"x_min":0,"x_max":0,"o":"m 368 596 l 44 596 l 44 663 l 174 663 l 174 983 b 38 911 174 983 121 931 l 38 979 b 193 1092 129 1004 193 1092 l 247 1092 l 247 663 l 368 663 m 158 0 l 838 1083 l 928 1083 l 247 0 "},"½":{"ha":1086,"x_min":0,"x_max":0,"o":"m 158 0 l 838 1083 l 928 1083 l 247 0 m 700 50 b 900 190 717 58 828 119 b 974 336 947 238 974 286 b 876 428 974 393 936 428 b 781 335 819 428 782 399 l 708 335 b 876 496 713 431 764 496 b 1047 340 979 496 1047 435 b 950 158 1047 267 1011 215 b 819 67 899 110 832 71 l 1057 67 l 1057 0 l 700 0 m 368 596 l 44 596 l 44 663 l 174 663 l 174 983 b 38 911 174 983 121 931 l 38 979 b 193 1092 129 1004 193 1092 l 247 1092 l 247 663 l 368 663 "},"⅓":{"ha":1086,"x_min":0,"x_max":0,"o":"m 368 596 l 44 596 l 44 663 l 174 663 l 174 983 b 38 911 174 983 121 931 l 38 979 b 193 1092 129 1004 193 1092 l 247 1092 l 247 663 l 368 663 m 158 0 l 838 1083 l 928 1083 l 247 0 m 881 -8 b 706 153 768 -8 711 53 l 778 153 b 881 60 781 88 821 60 b 975 139 942 60 975 92 b 882 219 975 190 942 219 l 810 219 l 810 283 l 882 283 b 963 357 935 283 963 314 b 878 428 963 400 928 428 b 788 335 825 428 789 404 l 715 335 b 878 496 719 433 774 496 b 1036 363 972 496 1036 442 b 958 254 1036 308 1003 265 b 1049 132 1015 238 1049 196 b 881 -8 1049 53 989 -8 "},"⅔":{"ha":1086,"x_min":0,"x_max":0,"o":"m 158 0 l 838 1083 l 928 1083 l 247 0 m 881 -8 b 706 153 768 -8 711 53 l 778 153 b 881 60 781 88 821 60 b 975 139 942 60 975 92 b 882 219 975 190 942 219 l 810 219 l 810 283 l 882 283 b 963 357 935 283 963 314 b 878 428 963 400 928 428 b 788 335 825 428 789 404 l 715 335 b 878 496 719 433 774 496 b 1036 363 972 496 1036 442 b 958 254 1036 308 1003 265 b 1049 132 1015 238 1049 196 b 881 -8 1049 53 989 -8 m 31 646 b 231 786 47 654 158 715 b 304 932 278 833 304 882 b 207 1024 304 989 267 1024 b 111 931 150 1024 113 994 l 39 931 b 207 1092 43 1026 94 1092 b 378 936 310 1092 378 1031 b 281 754 378 863 342 811 b 150 663 229 706 163 667 l 388 663 l 388 596 l 31 596 "},"¼":{"ha":1086,"x_min":0,"x_max":0,"o":"m 368 596 l 44 596 l 44 663 l 174 663 l 174 983 b 38 911 174 983 121 931 l 38 979 b 193 1092 129 1004 193 1092 l 247 1092 l 247 663 l 368 663 m 158 0 l 838 1083 l 928 1083 l 247 0 m 1001 332 l 1001 171 l 1060 171 l 1060 103 l 1001 103 l 1001 0 l 928 0 l 928 103 l 696 103 l 696 151 b 858 488 797 249 846 372 l 929 488 b 785 168 918 372 869 238 l 928 171 l 928 319 "},"¾":{"ha":1086,"x_min":0,"x_max":0,"o":"m 211 588 b 36 749 99 588 42 649 l 108 749 b 211 656 111 683 151 656 b 306 735 272 656 306 688 b 213 815 306 786 272 815 l 140 815 l 140 879 l 213 879 b 293 953 265 879 293 910 b 208 1024 293 996 258 1024 b 118 931 156 1024 119 1000 l 46 931 b 208 1092 50 1029 104 1092 b 367 958 303 1092 367 1038 b 289 850 367 904 333 861 b 379 728 346 833 379 792 b 211 588 379 649 319 588 m 158 0 l 838 1083 l 928 1083 l 247 0 m 1001 332 l 1001 171 l 1060 171 l 1060 103 l 1001 103 l 1001 0 l 928 0 l 928 103 l 696 103 l 696 151 b 858 488 797 249 846 372 l 929 488 b 785 168 918 372 869 238 l 928 171 l 928 319 "},"⅕":{"ha":1086,"x_min":0,"x_max":0,"o":"m 368 596 l 44 596 l 44 663 l 174 663 l 174 983 b 38 911 174 983 121 931 l 38 979 b 193 1092 129 1004 193 1092 l 247 1092 l 247 663 l 368 663 m 158 0 l 838 1083 l 928 1083 l 247 0 m 878 -8 b 704 153 767 -8 710 56 l 776 153 b 878 60 779 86 821 60 b 979 160 940 60 979 100 b 881 261 979 218 940 261 b 781 208 833 261 803 240 l 717 232 l 731 488 l 1031 488 l 1035 421 l 799 421 l 792 285 b 896 326 814 308 849 326 b 1053 158 992 326 1053 250 b 878 -8 1053 67 990 -8 "},"⅖":{"ha":1086,"x_min":0,"x_max":0,"o":"m 158 0 l 838 1083 l 928 1083 l 247 0 m 878 -8 b 704 153 767 -8 710 56 l 776 153 b 878 60 779 86 821 60 b 979 160 940 60 979 100 b 881 261 979 218 940 261 b 781 208 833 261 803 240 l 717 232 l 731 488 l 1031 488 l 1035 421 l 799 421 l 792 285 b 896 326 814 308 849 326 b 1053 158 992 326 1053 250 b 878 -8 1053 67 990 -8 m 31 646 b 231 786 47 654 158 715 b 304 932 278 833 304 882 b 207 1024 304 989 267 1024 b 111 931 150 1024 113 994 l 39 931 b 207 1092 43 1026 94 1092 b 378 936 310 1092 378 1031 b 281 754 378 863 342 811 b 150 663 229 706 163 667 l 388 663 l 388 596 l 31 596 "},"⅗":{"ha":1086,"x_min":0,"x_max":0,"o":"m 211 588 b 36 749 99 588 42 649 l 108 749 b 211 656 111 683 151 656 b 306 735 272 656 306 688 b 213 815 306 786 272 815 l 140 815 l 140 879 l 213 879 b 293 953 265 879 293 910 b 208 1024 293 996 258 1024 b 118 931 156 1024 119 1000 l 46 931 b 208 1092 50 1029 104 1092 b 367 958 303 1092 367 1038 b 289 850 367 904 333 861 b 379 728 346 833 379 792 b 211 588 379 649 319 588 m 158 0 l 838 1083 l 928 1083 l 247 0 m 878 -8 b 704 153 767 -8 710 56 l 776 153 b 878 60 779 86 821 60 b 979 160 940 60 979 100 b 881 261 979 218 940 261 b 781 208 833 261 803 240 l 717 232 l 731 488 l 1031 488 l 1035 421 l 799 421 l 792 285 b 896 326 814 308 849 326 b 1053 158 992 326 1053 250 b 878 -8 1053 67 990 -8 "},"⅘":{"ha":1086,"x_min":0,"x_max":0,"o":"m 332 928 l 332 767 l 390 767 l 390 699 l 332 699 l 332 596 l 258 596 l 258 699 l 26 699 l 26 747 b 189 1083 128 844 176 968 l 260 1083 b 115 764 249 968 200 833 l 258 767 l 258 915 m 158 0 l 838 1083 l 928 1083 l 247 0 m 878 -8 b 704 153 767 -8 710 56 l 776 153 b 878 60 779 86 821 60 b 979 160 940 60 979 100 b 881 261 979 218 940 261 b 781 208 833 261 803 240 l 717 232 l 731 488 l 1031 488 l 1035 421 l 799 421 l 792 285 b 896 326 814 308 849 326 b 1053 158 992 326 1053 250 b 878 -8 1053 67 990 -8 "},"⅙":{"ha":1086,"x_min":0,"x_max":0,"o":"m 368 596 l 44 596 l 44 663 l 174 663 l 174 983 b 38 911 174 983 121 931 l 38 979 b 193 1092 129 1004 193 1092 l 247 1092 l 247 663 l 368 663 m 158 0 l 838 1083 l 928 1083 l 247 0 m 979 153 b 885 246 979 210 943 246 b 789 153 825 246 789 210 b 885 60 789 96 825 60 b 979 153 943 60 979 96 m 890 496 b 1050 335 994 496 1050 429 l 978 335 b 889 428 978 403 943 428 b 779 239 819 428 779 378 b 899 313 797 285 842 313 b 1054 153 990 313 1054 247 b 886 -8 1054 61 992 -8 b 706 244 763 -8 706 90 b 890 496 706 408 775 496 "},"⅚":{"ha":1086,"x_min":0,"x_max":0,"o":"m 208 588 b 35 749 97 588 40 651 l 107 749 b 208 656 110 682 151 656 b 310 756 271 656 310 696 b 211 857 310 814 271 857 b 111 804 164 857 133 836 l 47 828 l 61 1083 l 361 1083 l 365 1017 l 129 1017 l 122 881 b 226 922 144 904 179 922 b 383 754 322 922 383 846 b 208 588 383 663 321 588 m 158 0 l 838 1083 l 928 1083 l 247 0 m 979 153 b 885 246 979 210 943 246 b 789 153 825 246 789 210 b 885 60 789 96 825 60 b 979 153 943 60 979 96 m 890 496 b 1050 335 994 496 1050 429 l 978 335 b 889 428 978 403 943 428 b 779 239 819 428 779 378 b 899 313 797 285 842 313 b 1054 153 990 313 1054 247 b 886 -8 1054 61 992 -8 b 706 244 763 -8 706 90 b 890 496 706 408 775 496 "},"⅛":{"ha":1086,"x_min":0,"x_max":0,"o":"m 368 596 l 44 596 l 44 663 l 174 663 l 174 983 b 38 911 174 983 121 931 l 38 979 b 193 1092 129 1004 193 1092 l 247 1092 l 247 663 l 368 663 m 158 0 l 838 1083 l 928 1083 l 247 0 m 878 283 b 960 356 931 283 960 314 b 878 428 960 400 928 428 b 797 356 829 428 797 400 b 878 283 797 314 825 283 m 878 60 b 972 139 935 60 972 92 b 878 219 972 188 938 219 b 783 139 819 219 783 188 b 878 60 783 92 821 60 m 878 -8 b 710 133 769 -8 710 51 b 794 254 710 197 749 239 b 724 363 756 267 724 307 b 878 496 724 442 785 496 b 1033 363 972 496 1033 442 b 961 254 1033 307 1000 267 b 1046 133 1008 239 1046 197 b 878 -8 1046 51 988 -8 "},"⅜":{"ha":1086,"x_min":0,"x_max":0,"o":"m 211 588 b 36 749 99 588 42 649 l 108 749 b 211 656 111 683 151 656 b 306 735 272 656 306 688 b 213 815 306 786 272 815 l 140 815 l 140 879 l 213 879 b 293 953 265 879 293 910 b 208 1024 293 996 258 1024 b 118 931 156 1024 119 1000 l 46 931 b 208 1092 50 1029 104 1092 b 367 958 303 1092 367 1038 b 289 850 367 904 333 861 b 379 728 346 833 379 792 b 211 588 379 649 319 588 m 158 0 l 838 1083 l 928 1083 l 247 0 m 878 283 b 960 356 931 283 960 314 b 878 428 960 400 928 428 b 797 356 829 428 797 400 b 878 283 797 314 825 283 m 878 60 b 972 139 935 60 972 92 b 878 219 972 188 938 219 b 783 139 819 219 783 188 b 878 60 783 92 821 60 m 878 -8 b 710 133 769 -8 710 51 b 794 254 710 197 749 239 b 724 363 756 267 724 307 b 878 496 724 442 785 496 b 1033 363 972 496 1033 442 b 961 254 1033 307 1000 267 b 1046 133 1008 239 1046 197 b 878 -8 1046 51 988 -8 "},"⅝":{"ha":1086,"x_min":0,"x_max":0,"o":"m 208 588 b 35 749 97 588 40 651 l 107 749 b 208 656 110 682 151 656 b 310 756 271 656 310 696 b 211 857 310 814 271 857 b 111 804 164 857 133 836 l 47 828 l 61 1083 l 361 1083 l 365 1017 l 129 1017 l 122 881 b 226 922 144 904 179 922 b 383 754 322 922 383 846 b 208 588 383 663 321 588 m 158 0 l 838 1083 l 928 1083 l 247 0 m 878 283 b 960 356 931 283 960 314 b 878 428 960 400 928 428 b 797 356 829 428 797 400 b 878 283 797 314 825 283 m 878 60 b 972 139 935 60 972 92 b 878 219 972 188 938 219 b 783 139 819 219 783 188 b 878 60 783 92 821 60 m 878 -8 b 710 133 769 -8 710 51 b 794 254 710 197 749 239 b 724 363 756 267 724 307 b 878 496 724 442 785 496 b 1033 363 972 496 1033 442 b 961 254 1033 307 1000 267 b 1046 133 1008 239 1046 197 b 878 -8 1046 51 988 -8 "},"⅞":{"ha":1086,"x_min":0,"x_max":0,"o":"m 140 596 b 293 1017 140 765 218 946 l 97 1017 l 97 931 l 29 931 l 29 1083 l 393 1083 l 393 1035 b 214 596 272 925 214 753 m 158 0 l 838 1083 l 928 1083 l 247 0 m 878 283 b 960 356 931 283 960 314 b 878 428 960 400 928 428 b 797 356 829 428 797 400 b 878 283 797 314 825 283 m 878 60 b 972 139 935 60 972 92 b 878 219 972 188 938 219 b 783 139 819 219 783 188 b 878 60 783 92 821 60 m 878 -8 b 710 133 769 -8 710 51 b 794 254 710 197 749 239 b 724 363 756 267 724 307 b 878 496 724 442 785 496 b 1033 363 972 496 1033 442 b 961 254 1033 307 1000 267 b 1046 133 1008 239 1046 197 b 878 -8 1046 51 988 -8 "}}}
